%TF.GenerationSoftware,KiCad,Pcbnew,5.99.0+really5.1.10+dfsg1-1+b1*%
%TF.CreationDate,2021-11-04T03:31:46-03:00*%
%TF.ProjectId,PS2-MSX-F4,5053322d-4d53-4582-9d46-342e6b696361,rev?*%
%TF.SameCoordinates,Original*%
%TF.FileFunction,Legend,Top*%
%TF.FilePolarity,Positive*%
%FSLAX46Y46*%
G04 Gerber Fmt 4.6, Leading zero omitted, Abs format (unit mm)*
G04 Created by KiCad (PCBNEW 5.99.0+really5.1.10+dfsg1-1+b1) date 2021-11-04 03:31:46*
%MOMM*%
%LPD*%
G01*
G04 APERTURE LIST*
%ADD10C,0.250000*%
%ADD11C,0.150000*%
%ADD12C,0.050000*%
%ADD13C,0.300000*%
%ADD14C,0.120000*%
%ADD15C,0.180000*%
G04 APERTURE END LIST*
D10*
X126440619Y-131128855D02*
X126440619Y-129828855D01*
X126935857Y-129828855D01*
X127059666Y-129890760D01*
X127121571Y-129952664D01*
X127183476Y-130076474D01*
X127183476Y-130262188D01*
X127121571Y-130385998D01*
X127059666Y-130447902D01*
X126935857Y-130509807D01*
X126440619Y-130509807D01*
X127926333Y-131128855D02*
X127802523Y-131066950D01*
X127740619Y-131005045D01*
X127678714Y-130881236D01*
X127678714Y-130509807D01*
X127740619Y-130385998D01*
X127802523Y-130324093D01*
X127926333Y-130262188D01*
X128112047Y-130262188D01*
X128235857Y-130324093D01*
X128297761Y-130385998D01*
X128359666Y-130509807D01*
X128359666Y-130881236D01*
X128297761Y-131005045D01*
X128235857Y-131066950D01*
X128112047Y-131128855D01*
X127926333Y-131128855D01*
X128916809Y-131128855D02*
X128916809Y-130262188D01*
X128916809Y-130509807D02*
X128978714Y-130385998D01*
X129040619Y-130324093D01*
X129164428Y-130262188D01*
X129288238Y-130262188D01*
X129535857Y-130262188D02*
X130031095Y-130262188D01*
X129721571Y-129828855D02*
X129721571Y-130943140D01*
X129783476Y-131066950D01*
X129907285Y-131128855D01*
X130031095Y-131128855D01*
D11*
X137443037Y-117577385D02*
X138128751Y-117577385D01*
X137785894Y-117920242D02*
X137785894Y-117234528D01*
X138985894Y-117020242D02*
X138557322Y-117020242D01*
X138514465Y-117448814D01*
X138557322Y-117405957D01*
X138643037Y-117363100D01*
X138857322Y-117363100D01*
X138943037Y-117405957D01*
X138985894Y-117448814D01*
X139028751Y-117534528D01*
X139028751Y-117748814D01*
X138985894Y-117834528D01*
X138943037Y-117877385D01*
X138857322Y-117920242D01*
X138643037Y-117920242D01*
X138557322Y-117877385D01*
X138514465Y-117834528D01*
X139285894Y-117020242D02*
X139585894Y-117920242D01*
X139885894Y-117020242D01*
X128953355Y-75781280D02*
X128858117Y-75733660D01*
X128715260Y-75733660D01*
X128572402Y-75781280D01*
X128477164Y-75876518D01*
X128429545Y-75971756D01*
X128381926Y-76162232D01*
X128381926Y-76305089D01*
X128429545Y-76495565D01*
X128477164Y-76590803D01*
X128572402Y-76686041D01*
X128715260Y-76733660D01*
X128810498Y-76733660D01*
X128953355Y-76686041D01*
X129000974Y-76638422D01*
X129000974Y-76305089D01*
X128810498Y-76305089D01*
X129429545Y-76733660D02*
X129429545Y-75733660D01*
X130000974Y-76733660D01*
X130000974Y-75733660D01*
X130477164Y-76733660D02*
X130477164Y-75733660D01*
X130715260Y-75733660D01*
X130858117Y-75781280D01*
X130953355Y-75876518D01*
X131000974Y-75971756D01*
X131048593Y-76162232D01*
X131048593Y-76305089D01*
X131000974Y-76495565D01*
X130953355Y-76590803D01*
X130858117Y-76686041D01*
X130715260Y-76733660D01*
X130477164Y-76733660D01*
D10*
X178398419Y-77383262D02*
X178398419Y-78126120D01*
X178017466Y-77726120D01*
X178017466Y-77897548D01*
X177969847Y-78011834D01*
X177922228Y-78068977D01*
X177826990Y-78126120D01*
X177588895Y-78126120D01*
X177493657Y-78068977D01*
X177446038Y-78011834D01*
X177398419Y-77897548D01*
X177398419Y-77554691D01*
X177446038Y-77440405D01*
X177493657Y-77383262D01*
X177493657Y-78640405D02*
X177446038Y-78697548D01*
X177398419Y-78640405D01*
X177446038Y-78583262D01*
X177493657Y-78640405D01*
X177398419Y-78640405D01*
X178398419Y-79097548D02*
X178398419Y-79840405D01*
X178017466Y-79440405D01*
X178017466Y-79611834D01*
X177969847Y-79726120D01*
X177922228Y-79783262D01*
X177826990Y-79840405D01*
X177588895Y-79840405D01*
X177493657Y-79783262D01*
X177446038Y-79726120D01*
X177398419Y-79611834D01*
X177398419Y-79268977D01*
X177446038Y-79154691D01*
X177493657Y-79097548D01*
X178398419Y-80183262D02*
X177398419Y-80583262D01*
X178398419Y-80983262D01*
X177446038Y-82240405D02*
X177398419Y-82411834D01*
X177398419Y-82697548D01*
X177446038Y-82811834D01*
X177493657Y-82868977D01*
X177588895Y-82926120D01*
X177684133Y-82926120D01*
X177779371Y-82868977D01*
X177826990Y-82811834D01*
X177874609Y-82697548D01*
X177922228Y-82468977D01*
X177969847Y-82354691D01*
X178017466Y-82297548D01*
X178112704Y-82240405D01*
X178207942Y-82240405D01*
X178303180Y-82297548D01*
X178350800Y-82354691D01*
X178398419Y-82468977D01*
X178398419Y-82754691D01*
X178350800Y-82926120D01*
X177446038Y-83897548D02*
X177398419Y-83783262D01*
X177398419Y-83554691D01*
X177446038Y-83440405D01*
X177541276Y-83383262D01*
X177922228Y-83383262D01*
X178017466Y-83440405D01*
X178065085Y-83554691D01*
X178065085Y-83783262D01*
X178017466Y-83897548D01*
X177922228Y-83954691D01*
X177826990Y-83954691D01*
X177731752Y-83383262D01*
X177398419Y-84468977D02*
X178065085Y-84468977D01*
X177874609Y-84468977D02*
X177969847Y-84526120D01*
X178017466Y-84583262D01*
X178065085Y-84697548D01*
X178065085Y-84811834D01*
X177398419Y-85211834D02*
X178065085Y-85211834D01*
X178398419Y-85211834D02*
X178350800Y-85154691D01*
X178303180Y-85211834D01*
X178350800Y-85268977D01*
X178398419Y-85211834D01*
X178303180Y-85211834D01*
X177398419Y-86297548D02*
X177922228Y-86297548D01*
X178017466Y-86240405D01*
X178065085Y-86126120D01*
X178065085Y-85897548D01*
X178017466Y-85783262D01*
X177446038Y-86297548D02*
X177398419Y-86183262D01*
X177398419Y-85897548D01*
X177446038Y-85783262D01*
X177541276Y-85726120D01*
X177636514Y-85726120D01*
X177731752Y-85783262D01*
X177779371Y-85897548D01*
X177779371Y-86183262D01*
X177826990Y-86297548D01*
X177398419Y-87040405D02*
X177446038Y-86926120D01*
X177541276Y-86868977D01*
X178398419Y-86868977D01*
X177398419Y-88411834D02*
X178398419Y-88411834D01*
X178398419Y-88868977D01*
X178350800Y-88983262D01*
X178303180Y-89040405D01*
X178207942Y-89097548D01*
X178065085Y-89097548D01*
X177969847Y-89040405D01*
X177922228Y-88983262D01*
X177874609Y-88868977D01*
X177874609Y-88411834D01*
X177398419Y-89783262D02*
X177446038Y-89668977D01*
X177493657Y-89611834D01*
X177588895Y-89554691D01*
X177874609Y-89554691D01*
X177969847Y-89611834D01*
X178017466Y-89668977D01*
X178065085Y-89783262D01*
X178065085Y-89954691D01*
X178017466Y-90068977D01*
X177969847Y-90126120D01*
X177874609Y-90183262D01*
X177588895Y-90183262D01*
X177493657Y-90126120D01*
X177446038Y-90068977D01*
X177398419Y-89954691D01*
X177398419Y-89783262D01*
X177398419Y-90697548D02*
X178065085Y-90697548D01*
X177874609Y-90697548D02*
X177969847Y-90754691D01*
X178017466Y-90811834D01*
X178065085Y-90926120D01*
X178065085Y-91040405D01*
X178065085Y-91268977D02*
X178065085Y-91726120D01*
X178398419Y-91440405D02*
X177541276Y-91440405D01*
X177446038Y-91497548D01*
X177398419Y-91611834D01*
X177398419Y-91726120D01*
D12*
X178196666Y-74930000D02*
G75*
G03*
X178196666Y-74930000I-1666666J0D01*
G01*
X174030000Y-74930000D02*
X179030000Y-74930000D01*
X176530000Y-72430000D02*
X176530000Y-77430000D01*
X128666666Y-134620000D02*
G75*
G03*
X128666666Y-134620000I-1666666J0D01*
G01*
X124500000Y-134620000D02*
X129500000Y-134620000D01*
X127000000Y-132120000D02*
X127000000Y-137120000D01*
X128666666Y-74930000D02*
G75*
G03*
X128666666Y-74930000I-1666666J0D01*
G01*
X124500000Y-74930000D02*
X129500000Y-74930000D01*
X127000000Y-72430000D02*
X127000000Y-77430000D01*
X178196666Y-134620000D02*
G75*
G03*
X178196666Y-134620000I-1666666J0D01*
G01*
X174030000Y-134620000D02*
X179030000Y-134620000D01*
X176530000Y-132120000D02*
X176530000Y-137120000D01*
D11*
X175428086Y-87289846D02*
X175861420Y-87289846D01*
X175628086Y-87556513D01*
X175728086Y-87556513D01*
X175794753Y-87589846D01*
X175828086Y-87623180D01*
X175861420Y-87689846D01*
X175861420Y-87856513D01*
X175828086Y-87923180D01*
X175794753Y-87956513D01*
X175728086Y-87989846D01*
X175528086Y-87989846D01*
X175461420Y-87956513D01*
X175428086Y-87923180D01*
X176161420Y-87923180D02*
X176194753Y-87956513D01*
X176161420Y-87989846D01*
X176128086Y-87956513D01*
X176161420Y-87923180D01*
X176161420Y-87989846D01*
X176428086Y-87289846D02*
X176861420Y-87289846D01*
X176628086Y-87556513D01*
X176728086Y-87556513D01*
X176794753Y-87589846D01*
X176828086Y-87623180D01*
X176861420Y-87689846D01*
X176861420Y-87856513D01*
X176828086Y-87923180D01*
X176794753Y-87956513D01*
X176728086Y-87989846D01*
X176528086Y-87989846D01*
X176461420Y-87956513D01*
X176428086Y-87923180D01*
X177061420Y-87289846D02*
X177294753Y-87989846D01*
X177528086Y-87289846D01*
D13*
X134074122Y-136315535D02*
X134074122Y-135015535D01*
X134569360Y-135015535D01*
X134693170Y-135077440D01*
X134755075Y-135139344D01*
X134816980Y-135263154D01*
X134816980Y-135448868D01*
X134755075Y-135572678D01*
X134693170Y-135634582D01*
X134569360Y-135696487D01*
X134074122Y-135696487D01*
X135312218Y-136253630D02*
X135497932Y-136315535D01*
X135807456Y-136315535D01*
X135931265Y-136253630D01*
X135993170Y-136191725D01*
X136055075Y-136067916D01*
X136055075Y-135944106D01*
X135993170Y-135820297D01*
X135931265Y-135758392D01*
X135807456Y-135696487D01*
X135559837Y-135634582D01*
X135436027Y-135572678D01*
X135374122Y-135510773D01*
X135312218Y-135386963D01*
X135312218Y-135263154D01*
X135374122Y-135139344D01*
X135436027Y-135077440D01*
X135559837Y-135015535D01*
X135869360Y-135015535D01*
X136055075Y-135077440D01*
X137540789Y-134953630D02*
X136426503Y-136625059D01*
X137912218Y-135139344D02*
X137974122Y-135077440D01*
X138097932Y-135015535D01*
X138407456Y-135015535D01*
X138531265Y-135077440D01*
X138593170Y-135139344D01*
X138655075Y-135263154D01*
X138655075Y-135386963D01*
X138593170Y-135572678D01*
X137850313Y-136315535D01*
X138655075Y-136315535D01*
X140016980Y-135448868D02*
X140512218Y-135448868D01*
X140202694Y-135015535D02*
X140202694Y-136129820D01*
X140264599Y-136253630D01*
X140388408Y-136315535D01*
X140512218Y-136315535D01*
X141131265Y-136315535D02*
X141007456Y-136253630D01*
X140945551Y-136191725D01*
X140883646Y-136067916D01*
X140883646Y-135696487D01*
X140945551Y-135572678D01*
X141007456Y-135510773D01*
X141131265Y-135448868D01*
X141316980Y-135448868D01*
X141440789Y-135510773D01*
X141502694Y-135572678D01*
X141564599Y-135696487D01*
X141564599Y-136067916D01*
X141502694Y-136191725D01*
X141440789Y-136253630D01*
X141316980Y-136315535D01*
X141131265Y-136315535D01*
X143112218Y-136315535D02*
X143112218Y-135015535D01*
X143545551Y-135944106D01*
X143978884Y-135015535D01*
X143978884Y-136315535D01*
X144536027Y-136253630D02*
X144721741Y-136315535D01*
X145031265Y-136315535D01*
X145155075Y-136253630D01*
X145216980Y-136191725D01*
X145278884Y-136067916D01*
X145278884Y-135944106D01*
X145216980Y-135820297D01*
X145155075Y-135758392D01*
X145031265Y-135696487D01*
X144783646Y-135634582D01*
X144659837Y-135572678D01*
X144597932Y-135510773D01*
X144536027Y-135386963D01*
X144536027Y-135263154D01*
X144597932Y-135139344D01*
X144659837Y-135077440D01*
X144783646Y-135015535D01*
X145093170Y-135015535D01*
X145278884Y-135077440D01*
X145712218Y-135015535D02*
X146578884Y-136315535D01*
X146578884Y-135015535D02*
X145712218Y-136315535D01*
X148064599Y-136315535D02*
X148064599Y-135015535D01*
X148188408Y-135820297D02*
X148559837Y-136315535D01*
X148559837Y-135448868D02*
X148064599Y-135944106D01*
X149612218Y-136253630D02*
X149488408Y-136315535D01*
X149240789Y-136315535D01*
X149116980Y-136253630D01*
X149055075Y-136129820D01*
X149055075Y-135634582D01*
X149116980Y-135510773D01*
X149240789Y-135448868D01*
X149488408Y-135448868D01*
X149612218Y-135510773D01*
X149674122Y-135634582D01*
X149674122Y-135758392D01*
X149055075Y-135882201D01*
X150107456Y-135448868D02*
X150416980Y-136315535D01*
X150726503Y-135448868D02*
X150416980Y-136315535D01*
X150293170Y-136625059D01*
X150231265Y-136686963D01*
X150107456Y-136748868D01*
X151221741Y-136315535D02*
X151221741Y-135015535D01*
X151221741Y-135510773D02*
X151345551Y-135448868D01*
X151593170Y-135448868D01*
X151716980Y-135510773D01*
X151778884Y-135572678D01*
X151840789Y-135696487D01*
X151840789Y-136067916D01*
X151778884Y-136191725D01*
X151716980Y-136253630D01*
X151593170Y-136315535D01*
X151345551Y-136315535D01*
X151221741Y-136253630D01*
X152583646Y-136315535D02*
X152459837Y-136253630D01*
X152397932Y-136191725D01*
X152336027Y-136067916D01*
X152336027Y-135696487D01*
X152397932Y-135572678D01*
X152459837Y-135510773D01*
X152583646Y-135448868D01*
X152769360Y-135448868D01*
X152893170Y-135510773D01*
X152955075Y-135572678D01*
X153016980Y-135696487D01*
X153016980Y-136067916D01*
X152955075Y-136191725D01*
X152893170Y-136253630D01*
X152769360Y-136315535D01*
X152583646Y-136315535D01*
X154131265Y-136315535D02*
X154131265Y-135634582D01*
X154069360Y-135510773D01*
X153945551Y-135448868D01*
X153697932Y-135448868D01*
X153574122Y-135510773D01*
X154131265Y-136253630D02*
X154007456Y-136315535D01*
X153697932Y-136315535D01*
X153574122Y-136253630D01*
X153512218Y-136129820D01*
X153512218Y-136006011D01*
X153574122Y-135882201D01*
X153697932Y-135820297D01*
X154007456Y-135820297D01*
X154131265Y-135758392D01*
X154750313Y-136315535D02*
X154750313Y-135448868D01*
X154750313Y-135696487D02*
X154812218Y-135572678D01*
X154874122Y-135510773D01*
X154997932Y-135448868D01*
X155121741Y-135448868D01*
X156112218Y-136315535D02*
X156112218Y-135015535D01*
X156112218Y-136253630D02*
X155988408Y-136315535D01*
X155740789Y-136315535D01*
X155616980Y-136253630D01*
X155555075Y-136191725D01*
X155493170Y-136067916D01*
X155493170Y-135696487D01*
X155555075Y-135572678D01*
X155616980Y-135510773D01*
X155740789Y-135448868D01*
X155988408Y-135448868D01*
X156112218Y-135510773D01*
X157721741Y-136315535D02*
X157721741Y-135448868D01*
X157721741Y-135015535D02*
X157659837Y-135077440D01*
X157721741Y-135139344D01*
X157783646Y-135077440D01*
X157721741Y-135015535D01*
X157721741Y-135139344D01*
X158340789Y-135448868D02*
X158340789Y-136315535D01*
X158340789Y-135572678D02*
X158402694Y-135510773D01*
X158526503Y-135448868D01*
X158712218Y-135448868D01*
X158836027Y-135510773D01*
X158897932Y-135634582D01*
X158897932Y-136315535D01*
X159331265Y-135448868D02*
X159826503Y-135448868D01*
X159516980Y-135015535D02*
X159516980Y-136129820D01*
X159578884Y-136253630D01*
X159702694Y-136315535D01*
X159826503Y-136315535D01*
X160755075Y-136253630D02*
X160631265Y-136315535D01*
X160383646Y-136315535D01*
X160259837Y-136253630D01*
X160197932Y-136129820D01*
X160197932Y-135634582D01*
X160259837Y-135510773D01*
X160383646Y-135448868D01*
X160631265Y-135448868D01*
X160755075Y-135510773D01*
X160816980Y-135634582D01*
X160816980Y-135758392D01*
X160197932Y-135882201D01*
X161374122Y-136315535D02*
X161374122Y-135448868D01*
X161374122Y-135696487D02*
X161436027Y-135572678D01*
X161497932Y-135510773D01*
X161621741Y-135448868D01*
X161745551Y-135448868D01*
X161993170Y-135448868D02*
X162488408Y-135448868D01*
X162178884Y-136315535D02*
X162178884Y-135201249D01*
X162240789Y-135077440D01*
X162364599Y-135015535D01*
X162488408Y-135015535D01*
X163478884Y-136315535D02*
X163478884Y-135634582D01*
X163416980Y-135510773D01*
X163293170Y-135448868D01*
X163045551Y-135448868D01*
X162921741Y-135510773D01*
X163478884Y-136253630D02*
X163355075Y-136315535D01*
X163045551Y-136315535D01*
X162921741Y-136253630D01*
X162859837Y-136129820D01*
X162859837Y-136006011D01*
X162921741Y-135882201D01*
X163045551Y-135820297D01*
X163355075Y-135820297D01*
X163478884Y-135758392D01*
X164655075Y-136253630D02*
X164531265Y-136315535D01*
X164283646Y-136315535D01*
X164159837Y-136253630D01*
X164097932Y-136191725D01*
X164036027Y-136067916D01*
X164036027Y-135696487D01*
X164097932Y-135572678D01*
X164159837Y-135510773D01*
X164283646Y-135448868D01*
X164531265Y-135448868D01*
X164655075Y-135510773D01*
X165707456Y-136253630D02*
X165583646Y-136315535D01*
X165336027Y-136315535D01*
X165212218Y-136253630D01*
X165150313Y-136129820D01*
X165150313Y-135634582D01*
X165212218Y-135510773D01*
X165336027Y-135448868D01*
X165583646Y-135448868D01*
X165707456Y-135510773D01*
X165769360Y-135634582D01*
X165769360Y-135758392D01*
X165150313Y-135882201D01*
X167193170Y-135448868D02*
X167502694Y-136315535D01*
X167812218Y-135448868D01*
X168307456Y-136191725D02*
X168369360Y-136253630D01*
X168307456Y-136315535D01*
X168245551Y-136253630D01*
X168307456Y-136191725D01*
X168307456Y-136315535D01*
X169359837Y-135634582D02*
X168926503Y-135634582D01*
X168926503Y-136315535D02*
X168926503Y-135015535D01*
X169545551Y-135015535D01*
X170597932Y-135448868D02*
X170597932Y-136315535D01*
X170288408Y-134953630D02*
X169978884Y-135882201D01*
X170783646Y-135882201D01*
D11*
X176055993Y-85580480D02*
X175722660Y-85104290D01*
X175484564Y-85580480D02*
X175484564Y-84580480D01*
X175865517Y-84580480D01*
X175960755Y-84628100D01*
X176008374Y-84675719D01*
X176055993Y-84770957D01*
X176055993Y-84913814D01*
X176008374Y-85009052D01*
X175960755Y-85056671D01*
X175865517Y-85104290D01*
X175484564Y-85104290D01*
X176389326Y-84580480D02*
X177055993Y-85580480D01*
X177055993Y-84580480D02*
X176389326Y-85580480D01*
X175488695Y-82106520D02*
X176060123Y-82106520D01*
X175774409Y-83106520D02*
X175774409Y-82106520D01*
X176298219Y-82106520D02*
X176964885Y-83106520D01*
X176964885Y-82106520D02*
X176298219Y-83106520D01*
X175796006Y-79616820D02*
X175729340Y-79583486D01*
X175629340Y-79583486D01*
X175529340Y-79616820D01*
X175462673Y-79683486D01*
X175429340Y-79750153D01*
X175396006Y-79883486D01*
X175396006Y-79983486D01*
X175429340Y-80116820D01*
X175462673Y-80183486D01*
X175529340Y-80250153D01*
X175629340Y-80283486D01*
X175696006Y-80283486D01*
X175796006Y-80250153D01*
X175829340Y-80216820D01*
X175829340Y-79983486D01*
X175696006Y-79983486D01*
X176129340Y-80283486D02*
X176129340Y-79583486D01*
X176529340Y-80283486D01*
X176529340Y-79583486D01*
X176862673Y-80283486D02*
X176862673Y-79583486D01*
X177029340Y-79583486D01*
X177129340Y-79616820D01*
X177196006Y-79683486D01*
X177229340Y-79750153D01*
X177262673Y-79883486D01*
X177262673Y-79983486D01*
X177229340Y-80116820D01*
X177196006Y-80183486D01*
X177129340Y-80250153D01*
X177029340Y-80283486D01*
X176862673Y-80283486D01*
D10*
X125649796Y-119104495D02*
X125649796Y-117804495D01*
X126145034Y-117804495D01*
X126268843Y-117866400D01*
X126330748Y-117928304D01*
X126392653Y-118052114D01*
X126392653Y-118237828D01*
X126330748Y-118361638D01*
X126268843Y-118423542D01*
X126145034Y-118485447D01*
X125649796Y-118485447D01*
X126887891Y-119042590D02*
X127073605Y-119104495D01*
X127383129Y-119104495D01*
X127506939Y-119042590D01*
X127568843Y-118980685D01*
X127630748Y-118856876D01*
X127630748Y-118733066D01*
X127568843Y-118609257D01*
X127506939Y-118547352D01*
X127383129Y-118485447D01*
X127135510Y-118423542D01*
X127011700Y-118361638D01*
X126949796Y-118299733D01*
X126887891Y-118175923D01*
X126887891Y-118052114D01*
X126949796Y-117928304D01*
X127011700Y-117866400D01*
X127135510Y-117804495D01*
X127445034Y-117804495D01*
X127630748Y-117866400D01*
X129116462Y-117742590D02*
X128002177Y-119414019D01*
X129487891Y-117928304D02*
X129549796Y-117866400D01*
X129673605Y-117804495D01*
X129983129Y-117804495D01*
X130106939Y-117866400D01*
X130168843Y-117928304D01*
X130230748Y-118052114D01*
X130230748Y-118175923D01*
X130168843Y-118361638D01*
X129425986Y-119104495D01*
X130230748Y-119104495D01*
D11*
X125186516Y-127933500D02*
X125110325Y-127895404D01*
X124996040Y-127895404D01*
X124881754Y-127933500D01*
X124805563Y-128009690D01*
X124767468Y-128085880D01*
X124729373Y-128238261D01*
X124729373Y-128352547D01*
X124767468Y-128504928D01*
X124805563Y-128581119D01*
X124881754Y-128657309D01*
X124996040Y-128695404D01*
X125072230Y-128695404D01*
X125186516Y-128657309D01*
X125224611Y-128619214D01*
X125224611Y-128352547D01*
X125072230Y-128352547D01*
X125567468Y-128695404D02*
X125567468Y-127895404D01*
X126024611Y-128695404D01*
X126024611Y-127895404D01*
X126405563Y-128695404D02*
X126405563Y-127895404D01*
X126596040Y-127895404D01*
X126710325Y-127933500D01*
X126786516Y-128009690D01*
X126824611Y-128085880D01*
X126862706Y-128238261D01*
X126862706Y-128352547D01*
X126824611Y-128504928D01*
X126786516Y-128581119D01*
X126710325Y-128657309D01*
X126596040Y-128695404D01*
X126405563Y-128695404D01*
X124867815Y-125924264D02*
X124867815Y-125124264D01*
X125058291Y-125124264D01*
X125172577Y-125162360D01*
X125248767Y-125238550D01*
X125286862Y-125314740D01*
X125324958Y-125467121D01*
X125324958Y-125581407D01*
X125286862Y-125733788D01*
X125248767Y-125809979D01*
X125172577Y-125886169D01*
X125058291Y-125924264D01*
X124867815Y-125924264D01*
X126010672Y-125924264D02*
X126010672Y-125505217D01*
X125972577Y-125429026D01*
X125896386Y-125390931D01*
X125744005Y-125390931D01*
X125667815Y-125429026D01*
X126010672Y-125886169D02*
X125934481Y-125924264D01*
X125744005Y-125924264D01*
X125667815Y-125886169D01*
X125629720Y-125809979D01*
X125629720Y-125733788D01*
X125667815Y-125657598D01*
X125744005Y-125619502D01*
X125934481Y-125619502D01*
X126010672Y-125581407D01*
X126277339Y-125390931D02*
X126582100Y-125390931D01*
X126391624Y-125124264D02*
X126391624Y-125809979D01*
X126429720Y-125886169D01*
X126505910Y-125924264D01*
X126582100Y-125924264D01*
X127191624Y-125924264D02*
X127191624Y-125505217D01*
X127153529Y-125429026D01*
X127077339Y-125390931D01*
X126924958Y-125390931D01*
X126848767Y-125429026D01*
X127191624Y-125886169D02*
X127115434Y-125924264D01*
X126924958Y-125924264D01*
X126848767Y-125886169D01*
X126810672Y-125809979D01*
X126810672Y-125733788D01*
X126848767Y-125657598D01*
X126924958Y-125619502D01*
X127115434Y-125619502D01*
X127191624Y-125581407D01*
X125296657Y-123570002D02*
X125249038Y-123617621D01*
X125106180Y-123665240D01*
X125010942Y-123665240D01*
X124868085Y-123617621D01*
X124772847Y-123522383D01*
X124725228Y-123427145D01*
X124677609Y-123236669D01*
X124677609Y-123093812D01*
X124725228Y-122903336D01*
X124772847Y-122808098D01*
X124868085Y-122712860D01*
X125010942Y-122665240D01*
X125106180Y-122665240D01*
X125249038Y-122712860D01*
X125296657Y-122760479D01*
X125868085Y-123665240D02*
X125772847Y-123617621D01*
X125725228Y-123522383D01*
X125725228Y-122665240D01*
X126249038Y-123665240D02*
X126249038Y-122665240D01*
X126344276Y-123284288D02*
X126629990Y-123665240D01*
X126629990Y-122998574D02*
X126249038Y-123379526D01*
X124729373Y-120331284D02*
X124996040Y-121131284D01*
X125262706Y-120331284D01*
X125986516Y-121055094D02*
X125948420Y-121093189D01*
X125834135Y-121131284D01*
X125757944Y-121131284D01*
X125643659Y-121093189D01*
X125567468Y-121016999D01*
X125529373Y-120940808D01*
X125491278Y-120788427D01*
X125491278Y-120674141D01*
X125529373Y-120521760D01*
X125567468Y-120445570D01*
X125643659Y-120369380D01*
X125757944Y-120331284D01*
X125834135Y-120331284D01*
X125948420Y-120369380D01*
X125986516Y-120407475D01*
X126786516Y-121055094D02*
X126748420Y-121093189D01*
X126634135Y-121131284D01*
X126557944Y-121131284D01*
X126443659Y-121093189D01*
X126367468Y-121016999D01*
X126329373Y-120940808D01*
X126291278Y-120788427D01*
X126291278Y-120674141D01*
X126329373Y-120521760D01*
X126367468Y-120445570D01*
X126443659Y-120369380D01*
X126557944Y-120331284D01*
X126634135Y-120331284D01*
X126748420Y-120369380D01*
X126786516Y-120407475D01*
D10*
X127161332Y-92179542D02*
X127161332Y-93150971D01*
X125461332Y-92665257D02*
X127161332Y-92665257D01*
X125461332Y-93960495D02*
X125542284Y-93798590D01*
X125623237Y-93717638D01*
X125785141Y-93636685D01*
X126270856Y-93636685D01*
X126432760Y-93717638D01*
X126513713Y-93798590D01*
X126594665Y-93960495D01*
X126594665Y-94203352D01*
X126513713Y-94365257D01*
X126432760Y-94446209D01*
X126270856Y-94527161D01*
X125785141Y-94527161D01*
X125623237Y-94446209D01*
X125542284Y-94365257D01*
X125461332Y-94203352D01*
X125461332Y-93960495D01*
X125461332Y-96550971D02*
X127161332Y-96550971D01*
X125947046Y-97117638D01*
X127161332Y-97684304D01*
X125461332Y-97684304D01*
X125542284Y-98412876D02*
X125461332Y-98655733D01*
X125461332Y-99060495D01*
X125542284Y-99222400D01*
X125623237Y-99303352D01*
X125785141Y-99384304D01*
X125947046Y-99384304D01*
X126108951Y-99303352D01*
X126189903Y-99222400D01*
X126270856Y-99060495D01*
X126351808Y-98736685D01*
X126432760Y-98574780D01*
X126513713Y-98493828D01*
X126675618Y-98412876D01*
X126837522Y-98412876D01*
X126999427Y-98493828D01*
X127080380Y-98574780D01*
X127161332Y-98736685D01*
X127161332Y-99141447D01*
X127080380Y-99384304D01*
X127161332Y-99950971D02*
X125461332Y-101084304D01*
X127161332Y-101084304D02*
X125461332Y-99950971D01*
D11*
X128816195Y-116484780D02*
X128720957Y-116437160D01*
X128578100Y-116437160D01*
X128435242Y-116484780D01*
X128340004Y-116580018D01*
X128292385Y-116675256D01*
X128244766Y-116865732D01*
X128244766Y-117008589D01*
X128292385Y-117199065D01*
X128340004Y-117294303D01*
X128435242Y-117389541D01*
X128578100Y-117437160D01*
X128673338Y-117437160D01*
X128816195Y-117389541D01*
X128863814Y-117341922D01*
X128863814Y-117008589D01*
X128673338Y-117008589D01*
X129292385Y-117437160D02*
X129292385Y-116437160D01*
X129863814Y-117437160D01*
X129863814Y-116437160D01*
X130340004Y-117437160D02*
X130340004Y-116437160D01*
X130578100Y-116437160D01*
X130720957Y-116484780D01*
X130816195Y-116580018D01*
X130863814Y-116675256D01*
X130911433Y-116865732D01*
X130911433Y-117008589D01*
X130863814Y-117199065D01*
X130816195Y-117294303D01*
X130720957Y-117389541D01*
X130578100Y-117437160D01*
X130340004Y-117437160D01*
X128816195Y-113944780D02*
X128720957Y-113897160D01*
X128578100Y-113897160D01*
X128435242Y-113944780D01*
X128340004Y-114040018D01*
X128292385Y-114135256D01*
X128244766Y-114325732D01*
X128244766Y-114468589D01*
X128292385Y-114659065D01*
X128340004Y-114754303D01*
X128435242Y-114849541D01*
X128578100Y-114897160D01*
X128673338Y-114897160D01*
X128816195Y-114849541D01*
X128863814Y-114801922D01*
X128863814Y-114468589D01*
X128673338Y-114468589D01*
X129292385Y-114897160D02*
X129292385Y-113897160D01*
X129863814Y-114897160D01*
X129863814Y-113897160D01*
X130340004Y-114897160D02*
X130340004Y-113897160D01*
X130578100Y-113897160D01*
X130720957Y-113944780D01*
X130816195Y-114040018D01*
X130863814Y-114135256D01*
X130911433Y-114325732D01*
X130911433Y-114468589D01*
X130863814Y-114659065D01*
X130816195Y-114754303D01*
X130720957Y-114849541D01*
X130578100Y-114897160D01*
X130340004Y-114897160D01*
X128816195Y-111404780D02*
X128720957Y-111357160D01*
X128578100Y-111357160D01*
X128435242Y-111404780D01*
X128340004Y-111500018D01*
X128292385Y-111595256D01*
X128244766Y-111785732D01*
X128244766Y-111928589D01*
X128292385Y-112119065D01*
X128340004Y-112214303D01*
X128435242Y-112309541D01*
X128578100Y-112357160D01*
X128673338Y-112357160D01*
X128816195Y-112309541D01*
X128863814Y-112261922D01*
X128863814Y-111928589D01*
X128673338Y-111928589D01*
X129292385Y-112357160D02*
X129292385Y-111357160D01*
X129863814Y-112357160D01*
X129863814Y-111357160D01*
X130340004Y-112357160D02*
X130340004Y-111357160D01*
X130578100Y-111357160D01*
X130720957Y-111404780D01*
X130816195Y-111500018D01*
X130863814Y-111595256D01*
X130911433Y-111785732D01*
X130911433Y-111928589D01*
X130863814Y-112119065D01*
X130816195Y-112214303D01*
X130720957Y-112309541D01*
X130578100Y-112357160D01*
X130340004Y-112357160D01*
X128734915Y-108836840D02*
X128639677Y-108789220D01*
X128496820Y-108789220D01*
X128353962Y-108836840D01*
X128258724Y-108932078D01*
X128211105Y-109027316D01*
X128163486Y-109217792D01*
X128163486Y-109360649D01*
X128211105Y-109551125D01*
X128258724Y-109646363D01*
X128353962Y-109741601D01*
X128496820Y-109789220D01*
X128592058Y-109789220D01*
X128734915Y-109741601D01*
X128782534Y-109693982D01*
X128782534Y-109360649D01*
X128592058Y-109360649D01*
X129211105Y-109789220D02*
X129211105Y-108789220D01*
X129782534Y-109789220D01*
X129782534Y-108789220D01*
X130258724Y-109789220D02*
X130258724Y-108789220D01*
X130496820Y-108789220D01*
X130639677Y-108836840D01*
X130734915Y-108932078D01*
X130782534Y-109027316D01*
X130830153Y-109217792D01*
X130830153Y-109360649D01*
X130782534Y-109551125D01*
X130734915Y-109646363D01*
X130639677Y-109741601D01*
X130496820Y-109789220D01*
X130258724Y-109789220D01*
X128714595Y-106220640D02*
X128619357Y-106173020D01*
X128476500Y-106173020D01*
X128333642Y-106220640D01*
X128238404Y-106315878D01*
X128190785Y-106411116D01*
X128143166Y-106601592D01*
X128143166Y-106744449D01*
X128190785Y-106934925D01*
X128238404Y-107030163D01*
X128333642Y-107125401D01*
X128476500Y-107173020D01*
X128571738Y-107173020D01*
X128714595Y-107125401D01*
X128762214Y-107077782D01*
X128762214Y-106744449D01*
X128571738Y-106744449D01*
X129190785Y-107173020D02*
X129190785Y-106173020D01*
X129762214Y-107173020D01*
X129762214Y-106173020D01*
X130238404Y-107173020D02*
X130238404Y-106173020D01*
X130476500Y-106173020D01*
X130619357Y-106220640D01*
X130714595Y-106315878D01*
X130762214Y-106411116D01*
X130809833Y-106601592D01*
X130809833Y-106744449D01*
X130762214Y-106934925D01*
X130714595Y-107030163D01*
X130619357Y-107125401D01*
X130476500Y-107173020D01*
X130238404Y-107173020D01*
X128714595Y-103680640D02*
X128619357Y-103633020D01*
X128476500Y-103633020D01*
X128333642Y-103680640D01*
X128238404Y-103775878D01*
X128190785Y-103871116D01*
X128143166Y-104061592D01*
X128143166Y-104204449D01*
X128190785Y-104394925D01*
X128238404Y-104490163D01*
X128333642Y-104585401D01*
X128476500Y-104633020D01*
X128571738Y-104633020D01*
X128714595Y-104585401D01*
X128762214Y-104537782D01*
X128762214Y-104204449D01*
X128571738Y-104204449D01*
X129190785Y-104633020D02*
X129190785Y-103633020D01*
X129762214Y-104633020D01*
X129762214Y-103633020D01*
X130238404Y-104633020D02*
X130238404Y-103633020D01*
X130476500Y-103633020D01*
X130619357Y-103680640D01*
X130714595Y-103775878D01*
X130762214Y-103871116D01*
X130809833Y-104061592D01*
X130809833Y-104204449D01*
X130762214Y-104394925D01*
X130714595Y-104490163D01*
X130619357Y-104585401D01*
X130476500Y-104633020D01*
X130238404Y-104633020D01*
X128714595Y-101140640D02*
X128619357Y-101093020D01*
X128476500Y-101093020D01*
X128333642Y-101140640D01*
X128238404Y-101235878D01*
X128190785Y-101331116D01*
X128143166Y-101521592D01*
X128143166Y-101664449D01*
X128190785Y-101854925D01*
X128238404Y-101950163D01*
X128333642Y-102045401D01*
X128476500Y-102093020D01*
X128571738Y-102093020D01*
X128714595Y-102045401D01*
X128762214Y-101997782D01*
X128762214Y-101664449D01*
X128571738Y-101664449D01*
X129190785Y-102093020D02*
X129190785Y-101093020D01*
X129762214Y-102093020D01*
X129762214Y-101093020D01*
X130238404Y-102093020D02*
X130238404Y-101093020D01*
X130476500Y-101093020D01*
X130619357Y-101140640D01*
X130714595Y-101235878D01*
X130762214Y-101331116D01*
X130809833Y-101521592D01*
X130809833Y-101664449D01*
X130762214Y-101854925D01*
X130714595Y-101950163D01*
X130619357Y-102045401D01*
X130476500Y-102093020D01*
X130238404Y-102093020D01*
X128714595Y-98600640D02*
X128619357Y-98553020D01*
X128476500Y-98553020D01*
X128333642Y-98600640D01*
X128238404Y-98695878D01*
X128190785Y-98791116D01*
X128143166Y-98981592D01*
X128143166Y-99124449D01*
X128190785Y-99314925D01*
X128238404Y-99410163D01*
X128333642Y-99505401D01*
X128476500Y-99553020D01*
X128571738Y-99553020D01*
X128714595Y-99505401D01*
X128762214Y-99457782D01*
X128762214Y-99124449D01*
X128571738Y-99124449D01*
X129190785Y-99553020D02*
X129190785Y-98553020D01*
X129762214Y-99553020D01*
X129762214Y-98553020D01*
X130238404Y-99553020D02*
X130238404Y-98553020D01*
X130476500Y-98553020D01*
X130619357Y-98600640D01*
X130714595Y-98695878D01*
X130762214Y-98791116D01*
X130809833Y-98981592D01*
X130809833Y-99124449D01*
X130762214Y-99314925D01*
X130714595Y-99410163D01*
X130619357Y-99505401D01*
X130476500Y-99553020D01*
X130238404Y-99553020D01*
X128714595Y-96060640D02*
X128619357Y-96013020D01*
X128476500Y-96013020D01*
X128333642Y-96060640D01*
X128238404Y-96155878D01*
X128190785Y-96251116D01*
X128143166Y-96441592D01*
X128143166Y-96584449D01*
X128190785Y-96774925D01*
X128238404Y-96870163D01*
X128333642Y-96965401D01*
X128476500Y-97013020D01*
X128571738Y-97013020D01*
X128714595Y-96965401D01*
X128762214Y-96917782D01*
X128762214Y-96584449D01*
X128571738Y-96584449D01*
X129190785Y-97013020D02*
X129190785Y-96013020D01*
X129762214Y-97013020D01*
X129762214Y-96013020D01*
X130238404Y-97013020D02*
X130238404Y-96013020D01*
X130476500Y-96013020D01*
X130619357Y-96060640D01*
X130714595Y-96155878D01*
X130762214Y-96251116D01*
X130809833Y-96441592D01*
X130809833Y-96584449D01*
X130762214Y-96774925D01*
X130714595Y-96870163D01*
X130619357Y-96965401D01*
X130476500Y-97013020D01*
X130238404Y-97013020D01*
X128714595Y-93520640D02*
X128619357Y-93473020D01*
X128476500Y-93473020D01*
X128333642Y-93520640D01*
X128238404Y-93615878D01*
X128190785Y-93711116D01*
X128143166Y-93901592D01*
X128143166Y-94044449D01*
X128190785Y-94234925D01*
X128238404Y-94330163D01*
X128333642Y-94425401D01*
X128476500Y-94473020D01*
X128571738Y-94473020D01*
X128714595Y-94425401D01*
X128762214Y-94377782D01*
X128762214Y-94044449D01*
X128571738Y-94044449D01*
X129190785Y-94473020D02*
X129190785Y-93473020D01*
X129762214Y-94473020D01*
X129762214Y-93473020D01*
X130238404Y-94473020D02*
X130238404Y-93473020D01*
X130476500Y-93473020D01*
X130619357Y-93520640D01*
X130714595Y-93615878D01*
X130762214Y-93711116D01*
X130809833Y-93901592D01*
X130809833Y-94044449D01*
X130762214Y-94234925D01*
X130714595Y-94330163D01*
X130619357Y-94425401D01*
X130476500Y-94473020D01*
X130238404Y-94473020D01*
X128714595Y-90980640D02*
X128619357Y-90933020D01*
X128476500Y-90933020D01*
X128333642Y-90980640D01*
X128238404Y-91075878D01*
X128190785Y-91171116D01*
X128143166Y-91361592D01*
X128143166Y-91504449D01*
X128190785Y-91694925D01*
X128238404Y-91790163D01*
X128333642Y-91885401D01*
X128476500Y-91933020D01*
X128571738Y-91933020D01*
X128714595Y-91885401D01*
X128762214Y-91837782D01*
X128762214Y-91504449D01*
X128571738Y-91504449D01*
X129190785Y-91933020D02*
X129190785Y-90933020D01*
X129762214Y-91933020D01*
X129762214Y-90933020D01*
X130238404Y-91933020D02*
X130238404Y-90933020D01*
X130476500Y-90933020D01*
X130619357Y-90980640D01*
X130714595Y-91075878D01*
X130762214Y-91171116D01*
X130809833Y-91361592D01*
X130809833Y-91504449D01*
X130762214Y-91694925D01*
X130714595Y-91790163D01*
X130619357Y-91885401D01*
X130476500Y-91933020D01*
X130238404Y-91933020D01*
X128714595Y-88440640D02*
X128619357Y-88393020D01*
X128476500Y-88393020D01*
X128333642Y-88440640D01*
X128238404Y-88535878D01*
X128190785Y-88631116D01*
X128143166Y-88821592D01*
X128143166Y-88964449D01*
X128190785Y-89154925D01*
X128238404Y-89250163D01*
X128333642Y-89345401D01*
X128476500Y-89393020D01*
X128571738Y-89393020D01*
X128714595Y-89345401D01*
X128762214Y-89297782D01*
X128762214Y-88964449D01*
X128571738Y-88964449D01*
X129190785Y-89393020D02*
X129190785Y-88393020D01*
X129762214Y-89393020D01*
X129762214Y-88393020D01*
X130238404Y-89393020D02*
X130238404Y-88393020D01*
X130476500Y-88393020D01*
X130619357Y-88440640D01*
X130714595Y-88535878D01*
X130762214Y-88631116D01*
X130809833Y-88821592D01*
X130809833Y-88964449D01*
X130762214Y-89154925D01*
X130714595Y-89250163D01*
X130619357Y-89345401D01*
X130476500Y-89393020D01*
X130238404Y-89393020D01*
X128714595Y-85900640D02*
X128619357Y-85853020D01*
X128476500Y-85853020D01*
X128333642Y-85900640D01*
X128238404Y-85995878D01*
X128190785Y-86091116D01*
X128143166Y-86281592D01*
X128143166Y-86424449D01*
X128190785Y-86614925D01*
X128238404Y-86710163D01*
X128333642Y-86805401D01*
X128476500Y-86853020D01*
X128571738Y-86853020D01*
X128714595Y-86805401D01*
X128762214Y-86757782D01*
X128762214Y-86424449D01*
X128571738Y-86424449D01*
X129190785Y-86853020D02*
X129190785Y-85853020D01*
X129762214Y-86853020D01*
X129762214Y-85853020D01*
X130238404Y-86853020D02*
X130238404Y-85853020D01*
X130476500Y-85853020D01*
X130619357Y-85900640D01*
X130714595Y-85995878D01*
X130762214Y-86091116D01*
X130809833Y-86281592D01*
X130809833Y-86424449D01*
X130762214Y-86614925D01*
X130714595Y-86710163D01*
X130619357Y-86805401D01*
X130476500Y-86853020D01*
X130238404Y-86853020D01*
X128714595Y-83360640D02*
X128619357Y-83313020D01*
X128476500Y-83313020D01*
X128333642Y-83360640D01*
X128238404Y-83455878D01*
X128190785Y-83551116D01*
X128143166Y-83741592D01*
X128143166Y-83884449D01*
X128190785Y-84074925D01*
X128238404Y-84170163D01*
X128333642Y-84265401D01*
X128476500Y-84313020D01*
X128571738Y-84313020D01*
X128714595Y-84265401D01*
X128762214Y-84217782D01*
X128762214Y-83884449D01*
X128571738Y-83884449D01*
X129190785Y-84313020D02*
X129190785Y-83313020D01*
X129762214Y-84313020D01*
X129762214Y-83313020D01*
X130238404Y-84313020D02*
X130238404Y-83313020D01*
X130476500Y-83313020D01*
X130619357Y-83360640D01*
X130714595Y-83455878D01*
X130762214Y-83551116D01*
X130809833Y-83741592D01*
X130809833Y-83884449D01*
X130762214Y-84074925D01*
X130714595Y-84170163D01*
X130619357Y-84265401D01*
X130476500Y-84313020D01*
X130238404Y-84313020D01*
X128780635Y-80815560D02*
X128685397Y-80767940D01*
X128542540Y-80767940D01*
X128399682Y-80815560D01*
X128304444Y-80910798D01*
X128256825Y-81006036D01*
X128209206Y-81196512D01*
X128209206Y-81339369D01*
X128256825Y-81529845D01*
X128304444Y-81625083D01*
X128399682Y-81720321D01*
X128542540Y-81767940D01*
X128637778Y-81767940D01*
X128780635Y-81720321D01*
X128828254Y-81672702D01*
X128828254Y-81339369D01*
X128637778Y-81339369D01*
X129256825Y-81767940D02*
X129256825Y-80767940D01*
X129828254Y-81767940D01*
X129828254Y-80767940D01*
X130304444Y-81767940D02*
X130304444Y-80767940D01*
X130542540Y-80767940D01*
X130685397Y-80815560D01*
X130780635Y-80910798D01*
X130828254Y-81006036D01*
X130875873Y-81196512D01*
X130875873Y-81339369D01*
X130828254Y-81529845D01*
X130780635Y-81625083D01*
X130685397Y-81720321D01*
X130542540Y-81767940D01*
X130304444Y-81767940D01*
X128780635Y-78339060D02*
X128685397Y-78291440D01*
X128542540Y-78291440D01*
X128399682Y-78339060D01*
X128304444Y-78434298D01*
X128256825Y-78529536D01*
X128209206Y-78720012D01*
X128209206Y-78862869D01*
X128256825Y-79053345D01*
X128304444Y-79148583D01*
X128399682Y-79243821D01*
X128542540Y-79291440D01*
X128637778Y-79291440D01*
X128780635Y-79243821D01*
X128828254Y-79196202D01*
X128828254Y-78862869D01*
X128637778Y-78862869D01*
X129256825Y-79291440D02*
X129256825Y-78291440D01*
X129828254Y-79291440D01*
X129828254Y-78291440D01*
X130304444Y-79291440D02*
X130304444Y-78291440D01*
X130542540Y-78291440D01*
X130685397Y-78339060D01*
X130780635Y-78434298D01*
X130828254Y-78529536D01*
X130875873Y-78720012D01*
X130875873Y-78862869D01*
X130828254Y-79053345D01*
X130780635Y-79148583D01*
X130685397Y-79243821D01*
X130542540Y-79291440D01*
X130304444Y-79291440D01*
X137758229Y-104258430D02*
X137758229Y-104734620D01*
X137424896Y-103734620D02*
X137758229Y-104258430D01*
X138091562Y-103734620D01*
X138329658Y-103734620D02*
X138948705Y-103734620D01*
X138615372Y-104115573D01*
X138758229Y-104115573D01*
X138853467Y-104163192D01*
X138901086Y-104210811D01*
X138948705Y-104306049D01*
X138948705Y-104544144D01*
X138901086Y-104639382D01*
X138853467Y-104687001D01*
X138758229Y-104734620D01*
X138472515Y-104734620D01*
X138377277Y-104687001D01*
X138329658Y-104639382D01*
X137699809Y-101535550D02*
X137699809Y-102011740D01*
X137366476Y-101011740D02*
X137699809Y-101535550D01*
X138033142Y-101011740D01*
X138318857Y-101106979D02*
X138366476Y-101059360D01*
X138461714Y-101011740D01*
X138699809Y-101011740D01*
X138795047Y-101059360D01*
X138842666Y-101106979D01*
X138890285Y-101202217D01*
X138890285Y-101297455D01*
X138842666Y-101440312D01*
X138271238Y-102011740D01*
X138890285Y-102011740D01*
X137699809Y-99081910D02*
X137699809Y-99558100D01*
X137366476Y-98558100D02*
X137699809Y-99081910D01*
X138033142Y-98558100D01*
X138890285Y-99558100D02*
X138318857Y-99558100D01*
X138604571Y-99558100D02*
X138604571Y-98558100D01*
X138509333Y-98700958D01*
X138414095Y-98796196D01*
X138318857Y-98843815D01*
X137697269Y-96493650D02*
X137697269Y-96969840D01*
X137363936Y-95969840D02*
X137697269Y-96493650D01*
X138030602Y-95969840D01*
X138554412Y-95969840D02*
X138649650Y-95969840D01*
X138744888Y-96017460D01*
X138792507Y-96065079D01*
X138840126Y-96160317D01*
X138887745Y-96350793D01*
X138887745Y-96588888D01*
X138840126Y-96779364D01*
X138792507Y-96874602D01*
X138744888Y-96922221D01*
X138649650Y-96969840D01*
X138554412Y-96969840D01*
X138459174Y-96922221D01*
X138411555Y-96874602D01*
X138363936Y-96779364D01*
X138316317Y-96588888D01*
X138316317Y-96350793D01*
X138363936Y-96160317D01*
X138411555Y-96065079D01*
X138459174Y-96017460D01*
X138554412Y-95969840D01*
X138117182Y-105285765D02*
X137345754Y-106442908D01*
X138931468Y-106142908D02*
X138888611Y-106185765D01*
X138760040Y-106228622D01*
X138674325Y-106228622D01*
X138545754Y-106185765D01*
X138460040Y-106100051D01*
X138417182Y-106014337D01*
X138374325Y-105842908D01*
X138374325Y-105714337D01*
X138417182Y-105542908D01*
X138460040Y-105457194D01*
X138545754Y-105371480D01*
X138674325Y-105328622D01*
X138760040Y-105328622D01*
X138888611Y-105371480D01*
X138931468Y-105414337D01*
X139702897Y-106228622D02*
X139702897Y-105757194D01*
X139660040Y-105671480D01*
X139574325Y-105628622D01*
X139402897Y-105628622D01*
X139317182Y-105671480D01*
X139702897Y-106185765D02*
X139617182Y-106228622D01*
X139402897Y-106228622D01*
X139317182Y-106185765D01*
X139274325Y-106100051D01*
X139274325Y-106014337D01*
X139317182Y-105928622D01*
X139402897Y-105885765D01*
X139617182Y-105885765D01*
X139702897Y-105842908D01*
X140131468Y-105628622D02*
X140131468Y-106528622D01*
X140131468Y-105671480D02*
X140217182Y-105628622D01*
X140388611Y-105628622D01*
X140474325Y-105671480D01*
X140517182Y-105714337D01*
X140560040Y-105800051D01*
X140560040Y-106057194D01*
X140517182Y-106142908D01*
X140474325Y-106185765D01*
X140388611Y-106228622D01*
X140217182Y-106228622D01*
X140131468Y-106185765D01*
X140902897Y-106185765D02*
X140988611Y-106228622D01*
X141160040Y-106228622D01*
X141245754Y-106185765D01*
X141288611Y-106100051D01*
X141288611Y-106057194D01*
X141245754Y-105971480D01*
X141160040Y-105928622D01*
X141031468Y-105928622D01*
X140945754Y-105885765D01*
X140902897Y-105800051D01*
X140902897Y-105757194D01*
X140945754Y-105671480D01*
X141031468Y-105628622D01*
X141160040Y-105628622D01*
X141245754Y-105671480D01*
X138117182Y-108587765D02*
X137345754Y-109744908D01*
X138417182Y-109530622D02*
X138417182Y-108630622D01*
X138931468Y-109530622D02*
X138545754Y-109016337D01*
X138931468Y-108630622D02*
X138417182Y-109144908D01*
X139702897Y-109530622D02*
X139702897Y-109059194D01*
X139660040Y-108973480D01*
X139574325Y-108930622D01*
X139402897Y-108930622D01*
X139317182Y-108973480D01*
X139702897Y-109487765D02*
X139617182Y-109530622D01*
X139402897Y-109530622D01*
X139317182Y-109487765D01*
X139274325Y-109402051D01*
X139274325Y-109316337D01*
X139317182Y-109230622D01*
X139402897Y-109187765D01*
X139617182Y-109187765D01*
X139702897Y-109144908D01*
X140131468Y-108930622D02*
X140131468Y-109530622D01*
X140131468Y-109016337D02*
X140174325Y-108973480D01*
X140260040Y-108930622D01*
X140388611Y-108930622D01*
X140474325Y-108973480D01*
X140517182Y-109059194D01*
X140517182Y-109530622D01*
X141331468Y-109530622D02*
X141331468Y-109059194D01*
X141288611Y-108973480D01*
X141202897Y-108930622D01*
X141031468Y-108930622D01*
X140945754Y-108973480D01*
X141331468Y-109487765D02*
X141245754Y-109530622D01*
X141031468Y-109530622D01*
X140945754Y-109487765D01*
X140902897Y-109402051D01*
X140902897Y-109316337D01*
X140945754Y-109230622D01*
X141031468Y-109187765D01*
X141245754Y-109187765D01*
X141331468Y-109144908D01*
X137882371Y-92806745D02*
X137110942Y-93963888D01*
X138096657Y-92849602D02*
X138696657Y-93749602D01*
X138696657Y-92849602D02*
X138096657Y-93749602D01*
X138953800Y-92849602D02*
X139553800Y-92849602D01*
X139168085Y-93749602D01*
X137829990Y-90016721D02*
X136972847Y-91302436D01*
X138068085Y-90064340D02*
X138734752Y-91064340D01*
X138734752Y-90064340D02*
X138068085Y-91064340D01*
X139544276Y-90064340D02*
X139353800Y-90064340D01*
X139258561Y-90111960D01*
X139210942Y-90159579D01*
X139115704Y-90302436D01*
X139068085Y-90492912D01*
X139068085Y-90873864D01*
X139115704Y-90969102D01*
X139163323Y-91016721D01*
X139258561Y-91064340D01*
X139449038Y-91064340D01*
X139544276Y-91016721D01*
X139591895Y-90969102D01*
X139639514Y-90873864D01*
X139639514Y-90635769D01*
X139591895Y-90540531D01*
X139544276Y-90492912D01*
X139449038Y-90445293D01*
X139258561Y-90445293D01*
X139163323Y-90492912D01*
X139115704Y-90540531D01*
X139068085Y-90635769D01*
X137829990Y-87428461D02*
X136972847Y-88714176D01*
X138068085Y-87476080D02*
X138734752Y-88476080D01*
X138734752Y-87476080D02*
X138068085Y-88476080D01*
X139591895Y-87476080D02*
X139115704Y-87476080D01*
X139068085Y-87952271D01*
X139115704Y-87904652D01*
X139210942Y-87857033D01*
X139449038Y-87857033D01*
X139544276Y-87904652D01*
X139591895Y-87952271D01*
X139639514Y-88047509D01*
X139639514Y-88285604D01*
X139591895Y-88380842D01*
X139544276Y-88428461D01*
X139449038Y-88476080D01*
X139210942Y-88476080D01*
X139115704Y-88428461D01*
X139068085Y-88380842D01*
X137779190Y-84840201D02*
X136922047Y-86125916D01*
X138017285Y-84887820D02*
X138683952Y-85887820D01*
X138683952Y-84887820D02*
X138017285Y-85887820D01*
X139493476Y-85221154D02*
X139493476Y-85887820D01*
X139255380Y-84840201D02*
X139017285Y-85554487D01*
X139636333Y-85554487D01*
X137829990Y-82353541D02*
X136972847Y-83639256D01*
X138068085Y-82401160D02*
X138734752Y-83401160D01*
X138734752Y-82401160D02*
X138068085Y-83401160D01*
X139020466Y-82401160D02*
X139639514Y-82401160D01*
X139306180Y-82782113D01*
X139449038Y-82782113D01*
X139544276Y-82829732D01*
X139591895Y-82877351D01*
X139639514Y-82972589D01*
X139639514Y-83210684D01*
X139591895Y-83305922D01*
X139544276Y-83353541D01*
X139449038Y-83401160D01*
X139163323Y-83401160D01*
X139068085Y-83353541D01*
X139020466Y-83305922D01*
X137680130Y-79955781D02*
X136822987Y-81241496D01*
X137918225Y-80003400D02*
X138584892Y-81003400D01*
X138584892Y-80003400D02*
X137918225Y-81003400D01*
X138918225Y-80098639D02*
X138965844Y-80051020D01*
X139061082Y-80003400D01*
X139299178Y-80003400D01*
X139394416Y-80051020D01*
X139442035Y-80098639D01*
X139489654Y-80193877D01*
X139489654Y-80289115D01*
X139442035Y-80431972D01*
X138870606Y-81003400D01*
X139489654Y-81003400D01*
X137878250Y-77077961D02*
X137021107Y-78363676D01*
X138116345Y-77125580D02*
X138783012Y-78125580D01*
X138783012Y-77125580D02*
X138116345Y-78125580D01*
X139687774Y-78125580D02*
X139116345Y-78125580D01*
X139402060Y-78125580D02*
X139402060Y-77125580D01*
X139306821Y-77268438D01*
X139211583Y-77363676D01*
X139116345Y-77411295D01*
X137829990Y-75383781D02*
X136972847Y-76669496D01*
X138068085Y-75431400D02*
X138734752Y-76431400D01*
X138734752Y-75431400D02*
X138068085Y-76431400D01*
X139306180Y-75431400D02*
X139401419Y-75431400D01*
X139496657Y-75479020D01*
X139544276Y-75526639D01*
X139591895Y-75621877D01*
X139639514Y-75812353D01*
X139639514Y-76050448D01*
X139591895Y-76240924D01*
X139544276Y-76336162D01*
X139496657Y-76383781D01*
X139401419Y-76431400D01*
X139306180Y-76431400D01*
X139210942Y-76383781D01*
X139163323Y-76336162D01*
X139115704Y-76240924D01*
X139068085Y-76050448D01*
X139068085Y-75812353D01*
X139115704Y-75621877D01*
X139163323Y-75526639D01*
X139210942Y-75479020D01*
X139306180Y-75431400D01*
X137952565Y-111274440D02*
X137866851Y-111231582D01*
X137738280Y-111231582D01*
X137609708Y-111274440D01*
X137523994Y-111360154D01*
X137481137Y-111445868D01*
X137438280Y-111617297D01*
X137438280Y-111745868D01*
X137481137Y-111917297D01*
X137523994Y-112003011D01*
X137609708Y-112088725D01*
X137738280Y-112131582D01*
X137823994Y-112131582D01*
X137952565Y-112088725D01*
X137995422Y-112045868D01*
X137995422Y-111745868D01*
X137823994Y-111745868D01*
X138381137Y-112131582D02*
X138381137Y-111231582D01*
X138895422Y-112131582D01*
X138895422Y-111231582D01*
X139323994Y-112131582D02*
X139323994Y-111231582D01*
X139538280Y-111231582D01*
X139666851Y-111274440D01*
X139752565Y-111360154D01*
X139795422Y-111445868D01*
X139838280Y-111617297D01*
X139838280Y-111745868D01*
X139795422Y-111917297D01*
X139752565Y-112003011D01*
X139666851Y-112088725D01*
X139538280Y-112131582D01*
X139323994Y-112131582D01*
X137196657Y-113546405D02*
X137882371Y-113546405D01*
X137539514Y-113889262D02*
X137539514Y-113203548D01*
X138739514Y-112989262D02*
X138310942Y-112989262D01*
X138268085Y-113417834D01*
X138310942Y-113374977D01*
X138396657Y-113332120D01*
X138610942Y-113332120D01*
X138696657Y-113374977D01*
X138739514Y-113417834D01*
X138782371Y-113503548D01*
X138782371Y-113717834D01*
X138739514Y-113803548D01*
X138696657Y-113846405D01*
X138610942Y-113889262D01*
X138396657Y-113889262D01*
X138310942Y-113846405D01*
X138268085Y-113803548D01*
X139039514Y-112989262D02*
X139339514Y-113889262D01*
X139639514Y-112989262D01*
D14*
%TO.C,C4*%
X142205225Y-129085000D02*
X142205225Y-129585000D01*
X141955225Y-129335000D02*
X142455225Y-129335000D01*
X147361000Y-130526000D02*
X147361000Y-131094000D01*
X147321000Y-130292000D02*
X147321000Y-131328000D01*
X147281000Y-130133000D02*
X147281000Y-131487000D01*
X147241000Y-130005000D02*
X147241000Y-131615000D01*
X147201000Y-129895000D02*
X147201000Y-131725000D01*
X147161000Y-129799000D02*
X147161000Y-131821000D01*
X147121000Y-129712000D02*
X147121000Y-131908000D01*
X147081000Y-129632000D02*
X147081000Y-131988000D01*
X147041000Y-131850000D02*
X147041000Y-132061000D01*
X147041000Y-129559000D02*
X147041000Y-129770000D01*
X147001000Y-131850000D02*
X147001000Y-132129000D01*
X147001000Y-129491000D02*
X147001000Y-129770000D01*
X146961000Y-131850000D02*
X146961000Y-132193000D01*
X146961000Y-129427000D02*
X146961000Y-129770000D01*
X146921000Y-131850000D02*
X146921000Y-132253000D01*
X146921000Y-129367000D02*
X146921000Y-129770000D01*
X146881000Y-131850000D02*
X146881000Y-132310000D01*
X146881000Y-129310000D02*
X146881000Y-129770000D01*
X146841000Y-131850000D02*
X146841000Y-132364000D01*
X146841000Y-129256000D02*
X146841000Y-129770000D01*
X146801000Y-131850000D02*
X146801000Y-132415000D01*
X146801000Y-129205000D02*
X146801000Y-129770000D01*
X146761000Y-131850000D02*
X146761000Y-132463000D01*
X146761000Y-129157000D02*
X146761000Y-129770000D01*
X146721000Y-131850000D02*
X146721000Y-132509000D01*
X146721000Y-129111000D02*
X146721000Y-129770000D01*
X146681000Y-131850000D02*
X146681000Y-132553000D01*
X146681000Y-129067000D02*
X146681000Y-129770000D01*
X146641000Y-131850000D02*
X146641000Y-132595000D01*
X146641000Y-129025000D02*
X146641000Y-129770000D01*
X146601000Y-131850000D02*
X146601000Y-132636000D01*
X146601000Y-128984000D02*
X146601000Y-129770000D01*
X146561000Y-131850000D02*
X146561000Y-132674000D01*
X146561000Y-128946000D02*
X146561000Y-129770000D01*
X146521000Y-131850000D02*
X146521000Y-132711000D01*
X146521000Y-128909000D02*
X146521000Y-129770000D01*
X146481000Y-131850000D02*
X146481000Y-132747000D01*
X146481000Y-128873000D02*
X146481000Y-129770000D01*
X146441000Y-131850000D02*
X146441000Y-132781000D01*
X146441000Y-128839000D02*
X146441000Y-129770000D01*
X146401000Y-131850000D02*
X146401000Y-132814000D01*
X146401000Y-128806000D02*
X146401000Y-129770000D01*
X146361000Y-131850000D02*
X146361000Y-132845000D01*
X146361000Y-128775000D02*
X146361000Y-129770000D01*
X146321000Y-131850000D02*
X146321000Y-132875000D01*
X146321000Y-128745000D02*
X146321000Y-129770000D01*
X146281000Y-131850000D02*
X146281000Y-132905000D01*
X146281000Y-128715000D02*
X146281000Y-129770000D01*
X146241000Y-131850000D02*
X146241000Y-132932000D01*
X146241000Y-128688000D02*
X146241000Y-129770000D01*
X146201000Y-131850000D02*
X146201000Y-132959000D01*
X146201000Y-128661000D02*
X146201000Y-129770000D01*
X146161000Y-131850000D02*
X146161000Y-132985000D01*
X146161000Y-128635000D02*
X146161000Y-129770000D01*
X146121000Y-131850000D02*
X146121000Y-133010000D01*
X146121000Y-128610000D02*
X146121000Y-129770000D01*
X146081000Y-131850000D02*
X146081000Y-133034000D01*
X146081000Y-128586000D02*
X146081000Y-129770000D01*
X146041000Y-131850000D02*
X146041000Y-133057000D01*
X146041000Y-128563000D02*
X146041000Y-129770000D01*
X146001000Y-131850000D02*
X146001000Y-133078000D01*
X146001000Y-128542000D02*
X146001000Y-129770000D01*
X145961000Y-131850000D02*
X145961000Y-133100000D01*
X145961000Y-128520000D02*
X145961000Y-129770000D01*
X145921000Y-131850000D02*
X145921000Y-133120000D01*
X145921000Y-128500000D02*
X145921000Y-129770000D01*
X145881000Y-131850000D02*
X145881000Y-133139000D01*
X145881000Y-128481000D02*
X145881000Y-129770000D01*
X145841000Y-131850000D02*
X145841000Y-133158000D01*
X145841000Y-128462000D02*
X145841000Y-129770000D01*
X145801000Y-131850000D02*
X145801000Y-133175000D01*
X145801000Y-128445000D02*
X145801000Y-129770000D01*
X145761000Y-131850000D02*
X145761000Y-133192000D01*
X145761000Y-128428000D02*
X145761000Y-129770000D01*
X145721000Y-131850000D02*
X145721000Y-133208000D01*
X145721000Y-128412000D02*
X145721000Y-129770000D01*
X145681000Y-131850000D02*
X145681000Y-133224000D01*
X145681000Y-128396000D02*
X145681000Y-129770000D01*
X145641000Y-131850000D02*
X145641000Y-133238000D01*
X145641000Y-128382000D02*
X145641000Y-129770000D01*
X145601000Y-131850000D02*
X145601000Y-133252000D01*
X145601000Y-128368000D02*
X145601000Y-129770000D01*
X145561000Y-131850000D02*
X145561000Y-133265000D01*
X145561000Y-128355000D02*
X145561000Y-129770000D01*
X145521000Y-131850000D02*
X145521000Y-133278000D01*
X145521000Y-128342000D02*
X145521000Y-129770000D01*
X145481000Y-131850000D02*
X145481000Y-133290000D01*
X145481000Y-128330000D02*
X145481000Y-129770000D01*
X145440000Y-131850000D02*
X145440000Y-133301000D01*
X145440000Y-128319000D02*
X145440000Y-129770000D01*
X145400000Y-131850000D02*
X145400000Y-133311000D01*
X145400000Y-128309000D02*
X145400000Y-129770000D01*
X145360000Y-131850000D02*
X145360000Y-133321000D01*
X145360000Y-128299000D02*
X145360000Y-129770000D01*
X145320000Y-131850000D02*
X145320000Y-133330000D01*
X145320000Y-128290000D02*
X145320000Y-129770000D01*
X145280000Y-131850000D02*
X145280000Y-133338000D01*
X145280000Y-128282000D02*
X145280000Y-129770000D01*
X145240000Y-131850000D02*
X145240000Y-133346000D01*
X145240000Y-128274000D02*
X145240000Y-129770000D01*
X145200000Y-131850000D02*
X145200000Y-133353000D01*
X145200000Y-128267000D02*
X145200000Y-129770000D01*
X145160000Y-131850000D02*
X145160000Y-133360000D01*
X145160000Y-128260000D02*
X145160000Y-129770000D01*
X145120000Y-131850000D02*
X145120000Y-133366000D01*
X145120000Y-128254000D02*
X145120000Y-129770000D01*
X145080000Y-131850000D02*
X145080000Y-133371000D01*
X145080000Y-128249000D02*
X145080000Y-129770000D01*
X145040000Y-131850000D02*
X145040000Y-133375000D01*
X145040000Y-128245000D02*
X145040000Y-129770000D01*
X145000000Y-131850000D02*
X145000000Y-133379000D01*
X145000000Y-128241000D02*
X145000000Y-129770000D01*
X144960000Y-128237000D02*
X144960000Y-133383000D01*
X144920000Y-128234000D02*
X144920000Y-133386000D01*
X144880000Y-128232000D02*
X144880000Y-133388000D01*
X144840000Y-128231000D02*
X144840000Y-133389000D01*
X144800000Y-128230000D02*
X144800000Y-133390000D01*
X144760000Y-128230000D02*
X144760000Y-133390000D01*
X147380000Y-130810000D02*
G75*
G03*
X147380000Y-130810000I-2620000J0D01*
G01*
%TO.C,U1*%
X163814760Y-128986280D02*
X163596320Y-128813560D01*
X164020500Y-125577600D02*
X164020500Y-128798320D01*
X164020500Y-128798320D02*
X163814760Y-128986280D01*
X163596320Y-128813560D02*
X163596320Y-125577600D01*
X161061400Y-128803400D02*
X161061400Y-125567440D01*
X161485580Y-125567440D02*
X161485580Y-128788160D01*
X161485580Y-128788160D02*
X161279840Y-128976120D01*
X161279840Y-128976120D02*
X161061400Y-128803400D01*
X158752540Y-128976120D02*
X158534100Y-128803400D01*
X158958280Y-128788160D02*
X158752540Y-128976120D01*
X158958280Y-125567440D02*
X158958280Y-128788160D01*
X158534100Y-128803400D02*
X158534100Y-125567440D01*
X161028769Y-103386199D02*
X161191948Y-103223020D01*
X161191948Y-103223020D02*
X161287135Y-103318207D01*
X161283899Y-103321451D02*
X161120720Y-103484629D01*
X160497624Y-103045427D02*
X160755990Y-102787062D01*
X160755990Y-102787062D02*
X160851176Y-102882250D01*
X160851176Y-102882250D02*
X160687999Y-103045427D01*
X160687999Y-103045427D02*
X160802819Y-103159544D01*
X160804353Y-103161783D02*
X160967532Y-102998604D01*
X160967532Y-102998604D02*
X161062719Y-103093791D01*
X161062719Y-103093791D02*
X160899541Y-103256970D01*
X160901602Y-103258327D02*
X161028769Y-103386199D01*
X161123141Y-103480570D02*
X161027954Y-103575757D01*
X161027954Y-103575757D02*
X160497624Y-103045427D01*
X155994100Y-128795780D02*
X155994100Y-125559820D01*
X156212540Y-128968500D02*
X155994100Y-128795780D01*
X156418280Y-128780540D02*
X156212540Y-128968500D01*
X156418280Y-125559820D02*
X156418280Y-128780540D01*
X159432660Y-116351920D02*
X156703513Y-116351920D01*
X159532660Y-120070540D02*
X159532660Y-116484060D01*
X156642140Y-116443420D02*
X156640013Y-120055797D01*
X156766160Y-120168040D02*
X159432660Y-120170540D01*
X157137440Y-118577020D02*
X157137440Y-118069020D01*
X159042440Y-118577020D02*
X159042440Y-118069020D01*
X163200080Y-93253560D02*
X163200080Y-92745560D01*
X163590300Y-91028460D02*
X160861153Y-91028460D01*
X163690300Y-94747080D02*
X163690300Y-91160600D01*
X160799780Y-91119960D02*
X160797653Y-94732337D01*
X160923800Y-94844580D02*
X163590300Y-94847080D01*
X161295080Y-93253560D02*
X161295080Y-92745560D01*
X158694120Y-93276420D02*
X158694120Y-92768420D01*
X160181270Y-98966027D02*
X159812969Y-98966026D01*
X164580167Y-104095634D02*
X164385643Y-103902997D01*
X164358702Y-104314293D02*
X164166916Y-104122508D01*
X164240713Y-104456642D02*
X164044393Y-104258615D01*
X164019249Y-104675299D02*
X163827464Y-104483514D01*
X163881503Y-104808668D02*
X163685182Y-104610641D01*
X163660038Y-105027325D02*
X163468253Y-104835540D01*
X163525885Y-105157102D02*
X163329565Y-104959075D01*
X163304419Y-105375759D02*
X163112634Y-105183974D01*
X163175655Y-105514516D02*
X162979333Y-105316490D01*
X162954189Y-105733173D02*
X162762404Y-105541388D01*
X162805667Y-105870134D02*
X162618329Y-105684680D01*
X162584204Y-106088792D02*
X162392419Y-105897007D01*
X162457233Y-106225753D02*
X162253730Y-106024134D01*
X162235770Y-106444408D02*
X162043985Y-106252623D01*
X162108799Y-106567002D02*
X161917869Y-106377954D01*
X161887336Y-106785659D02*
X161695551Y-106593874D01*
X161756773Y-106926213D02*
X161553270Y-106724594D01*
X161535310Y-107144868D02*
X161343525Y-106953083D01*
X161401155Y-107274646D02*
X161208428Y-107080212D01*
X161179692Y-107493304D02*
X160987907Y-107301519D01*
X161043742Y-107642837D02*
X160851013Y-107448402D01*
X160831610Y-107854969D02*
X160629048Y-107652408D01*
X155471334Y-103802635D02*
X155471332Y-103309919D01*
X164494015Y-103281635D02*
X160191272Y-98976633D01*
X159784684Y-108115988D02*
X155471334Y-103802635D01*
X164494016Y-103774352D02*
X160152985Y-108115989D01*
X159812969Y-98966026D02*
X155471334Y-103307662D01*
X161836808Y-102764649D02*
X161567401Y-103034056D01*
X161693125Y-102728729D02*
X161531481Y-102890373D01*
X161818849Y-102603005D02*
X161369835Y-102153991D01*
X161675165Y-102638926D02*
X161280032Y-102243795D01*
X161441679Y-102872412D02*
X161046546Y-102477282D01*
X161405758Y-103016096D02*
X160956744Y-102567084D01*
X159462430Y-105124659D02*
X159372626Y-105214463D01*
X158932099Y-104594331D02*
X158842296Y-104684134D01*
X159336705Y-104855253D02*
X159246904Y-104765450D01*
X158977496Y-105214463D02*
X158887693Y-105124661D01*
X158977496Y-105214463D02*
X159336705Y-104855253D01*
X158887693Y-105124661D02*
X159246904Y-104765450D01*
X158842296Y-104684134D02*
X158869733Y-105106700D01*
X158842296Y-104684134D02*
X159372626Y-105214463D01*
X158932099Y-104594331D02*
X159462430Y-105124659D01*
X161855250Y-102211862D02*
X161725219Y-101812415D01*
X161852170Y-101770877D02*
X161941408Y-102044965D01*
X161725219Y-101812415D02*
X161852170Y-101770877D01*
X159436602Y-108224672D02*
X159224470Y-108012541D01*
X155918746Y-102444075D02*
X155706614Y-102656207D01*
X161045270Y-107641310D02*
X160833138Y-107853442D01*
X157686513Y-100676308D02*
X157474381Y-100888440D01*
X159454280Y-98908541D02*
X159242148Y-99120673D01*
X157315281Y-106103352D02*
X157103150Y-105891221D01*
X164227250Y-104459329D02*
X164015118Y-104671461D01*
X156254621Y-105042692D02*
X156042489Y-104830560D01*
X161115981Y-99467154D02*
X160903849Y-99255022D01*
X159083049Y-107871120D02*
X158870917Y-107658988D01*
X162813037Y-105873543D02*
X162600905Y-106085675D01*
X158747173Y-99615648D02*
X158535041Y-99827780D01*
X160691716Y-107994863D02*
X160479584Y-108206995D01*
X156608175Y-105396246D02*
X156396043Y-105184114D01*
X162530193Y-100881368D02*
X162318061Y-100669237D01*
X160762426Y-99113601D02*
X160550294Y-98901469D01*
X162459483Y-106227096D02*
X162247351Y-106439228D01*
X156272298Y-102090522D02*
X156060166Y-102302654D01*
X164651514Y-103002688D02*
X164439382Y-102790557D01*
X156625852Y-101736968D02*
X156413720Y-101949100D01*
X157332959Y-101029861D02*
X157120827Y-101241993D01*
X162883748Y-101234921D02*
X162671615Y-101022789D01*
X163166590Y-105519990D02*
X162954457Y-105732122D01*
X163590854Y-101942029D02*
X163378722Y-101729897D01*
X158375942Y-107164013D02*
X158163808Y-106951880D01*
X159100726Y-99262094D02*
X158888593Y-99474226D01*
X163944408Y-102295583D02*
X163732276Y-102083451D01*
X162176641Y-100527816D02*
X161964509Y-100315684D01*
X161469534Y-99820709D02*
X161257402Y-99608577D01*
X163237301Y-101588476D02*
X163025169Y-101376344D01*
X156961728Y-105749799D02*
X156749595Y-105537667D01*
X161398823Y-107287757D02*
X161186691Y-107499889D01*
X156979406Y-101383415D02*
X156767274Y-101595547D01*
X155547514Y-104335585D02*
X155335382Y-104123453D01*
X164580804Y-104105776D02*
X164368672Y-104317908D01*
X158393619Y-99969201D02*
X158181487Y-100181333D01*
X155565192Y-102797628D02*
X155353060Y-103009760D01*
X158729494Y-107517566D02*
X158517362Y-107305434D01*
X163873697Y-104812883D02*
X163661565Y-105025015D01*
X157668835Y-106456905D02*
X157456703Y-106244773D01*
X163520144Y-105166436D02*
X163308012Y-105378568D01*
X161752377Y-106934203D02*
X161540245Y-107146335D01*
X164297960Y-102649136D02*
X164085828Y-102437004D01*
X158040065Y-100322755D02*
X157827933Y-100534887D01*
X161823087Y-100174262D02*
X161610955Y-99962130D01*
X158022388Y-106810459D02*
X157810256Y-106598327D01*
X155901068Y-104689138D02*
X155688936Y-104477006D01*
X162105930Y-106580650D02*
X161893798Y-106792782D01*
X155353060Y-103009760D02*
X155547976Y-103204678D01*
X162671615Y-101022789D02*
X162454650Y-101239754D01*
X158022388Y-106810459D02*
X158224456Y-106608392D01*
X160903849Y-99255022D02*
X160686883Y-99471987D01*
X156254621Y-105042692D02*
X156465669Y-104831645D01*
X163732276Y-102083451D02*
X163515311Y-102300414D01*
X157315281Y-106103352D02*
X157517349Y-105901284D01*
X156060166Y-102302654D02*
X156255085Y-102497570D01*
X160762426Y-99113601D02*
X160545463Y-99330566D01*
X158888593Y-99474226D02*
X159083510Y-99669144D01*
X160691716Y-107994863D02*
X160498987Y-107800428D01*
X156413720Y-101949100D02*
X156617618Y-102152998D01*
X155918746Y-102444075D02*
X156113663Y-102638992D01*
X159454280Y-98908541D02*
X159662366Y-99116629D01*
X158517362Y-107305434D02*
X158728410Y-107094387D01*
X157120827Y-101241993D02*
X157315743Y-101436911D01*
X161964509Y-100315684D02*
X161747544Y-100532647D01*
X161469534Y-99820709D02*
X161252570Y-100037672D01*
X156961728Y-105749799D02*
X157172776Y-105538752D01*
X156272298Y-102090522D02*
X156458236Y-102276460D01*
X155901068Y-104689138D02*
X156112115Y-104478091D01*
X156042489Y-104830560D02*
X156253537Y-104619513D01*
X159242148Y-99120673D02*
X159446045Y-99324572D01*
X155565192Y-102797628D02*
X155750186Y-102984508D01*
X163944408Y-102295583D02*
X163727443Y-102512546D01*
X157332959Y-101029861D02*
X157527875Y-101224779D01*
X156608175Y-105396246D02*
X156819221Y-105185198D01*
X162176641Y-100527816D02*
X161959676Y-100744778D01*
X158747173Y-99615648D02*
X158942090Y-99810565D01*
X155688936Y-104477006D02*
X155899983Y-104265959D01*
X163237301Y-101588476D02*
X163020337Y-101805440D01*
X163025169Y-101376344D02*
X162808206Y-101593307D01*
X162883748Y-101234921D02*
X162665691Y-101450793D01*
X157668835Y-106456905D02*
X157879882Y-106245858D01*
X157827933Y-100534887D02*
X158022852Y-100729803D01*
X158535041Y-99827780D02*
X158729958Y-100022697D01*
X155706614Y-102656207D02*
X155901530Y-102851124D01*
X157103150Y-105891221D02*
X157314197Y-105680172D01*
X162530193Y-100881368D02*
X162322209Y-101089353D01*
X162318061Y-100669237D02*
X162099934Y-100885037D01*
X157456703Y-106244773D02*
X157667750Y-106033726D01*
X161257402Y-99608577D02*
X161049244Y-99816387D01*
X158729494Y-107517566D02*
X158940542Y-107306519D01*
X164085828Y-102437004D02*
X163868735Y-102654097D01*
X159224470Y-108012541D02*
X159426538Y-107810473D01*
X161115981Y-99467154D02*
X160905560Y-99672703D01*
X158040065Y-100322755D02*
X158234984Y-100517671D01*
X158870917Y-107658988D02*
X159082143Y-107448120D01*
X164651514Y-103002688D02*
X164434421Y-103219782D01*
X156625852Y-101736968D02*
X156820767Y-101931885D01*
X161610955Y-99962130D02*
X161393992Y-100179094D01*
X157686513Y-100676308D02*
X157890410Y-100880205D01*
X158181487Y-100181333D02*
X158376404Y-100376248D01*
X160550294Y-98901469D02*
X160333331Y-99118433D01*
X159100726Y-99262094D02*
X159295642Y-99457012D01*
X159436602Y-108224672D02*
X159638920Y-108022856D01*
X159083049Y-107871120D02*
X159285115Y-107669052D01*
X158393619Y-99969201D02*
X158587947Y-100164705D01*
X164439382Y-102790557D02*
X164221909Y-103007013D01*
X155335382Y-104123453D02*
X155546429Y-103912406D01*
X164297960Y-102649136D02*
X164082774Y-102864286D01*
X163378722Y-101729897D02*
X163170737Y-101937881D01*
X157474381Y-100888440D02*
X157669297Y-101083357D01*
X160479584Y-108206995D02*
X160277022Y-108004434D01*
X156767274Y-101595547D02*
X156962191Y-101790464D01*
X161823087Y-100174262D02*
X161614999Y-100382143D01*
X163590854Y-101942029D02*
X163373891Y-102158993D01*
X156979406Y-101383415D02*
X157174323Y-101578332D01*
X156749595Y-105537667D02*
X156960644Y-105326620D01*
X156396043Y-105184114D02*
X156607089Y-104973065D01*
X159611433Y-103939028D02*
X159758570Y-103791892D01*
X160288901Y-104322221D02*
X160193714Y-104417408D01*
X160193714Y-104417408D02*
X159751771Y-103975467D01*
X159751771Y-103975467D02*
X159642987Y-104084252D01*
X159642987Y-104084252D02*
X159611433Y-103939028D01*
X157441495Y-103063490D02*
X157540294Y-102964689D01*
X157540294Y-102964689D02*
X158031211Y-103213602D01*
X158031211Y-103213602D02*
X157783149Y-102721835D01*
X157783149Y-102721835D02*
X157880992Y-102623992D01*
X157880992Y-102623992D02*
X158500987Y-103064656D01*
X158500987Y-103064656D02*
X158404631Y-103161012D01*
X158404631Y-103161012D02*
X158013045Y-102882675D01*
X158013045Y-102882675D02*
X158237734Y-103327911D01*
X158237734Y-103327911D02*
X158144883Y-103420762D01*
X158144883Y-103420762D02*
X157700286Y-103195434D01*
X157700286Y-103195434D02*
X157978729Y-103586915D01*
X157882267Y-103683377D02*
X157441495Y-103063490D01*
X157978729Y-103586915D02*
X157882267Y-103683377D01*
X159758570Y-103791892D02*
X160288901Y-104322221D01*
X158439796Y-102636314D02*
X158351407Y-102547925D01*
X158385402Y-102853887D02*
X158480589Y-102758699D01*
X158269818Y-102493533D02*
X158174629Y-102588722D01*
X157055645Y-103591059D02*
X157049590Y-103727359D01*
X157103027Y-104263958D02*
X157136492Y-104129994D01*
X156789120Y-93276420D02*
X156789120Y-92768420D01*
X159184340Y-94769940D02*
X159184340Y-91183460D01*
X156293820Y-91142820D02*
X156291693Y-94755197D01*
X156417840Y-94867440D02*
X159084340Y-94869940D01*
X159084340Y-91051320D02*
X156355193Y-91051320D01*
X156147784Y-76771269D02*
X156332659Y-76608378D01*
X156445142Y-76736041D02*
X156167387Y-76420800D01*
X156167387Y-76420800D02*
X155982512Y-76583692D01*
X155982512Y-76583692D02*
X156261166Y-76899953D01*
X164057487Y-76583692D02*
X163778833Y-76899953D01*
X163872612Y-76420800D02*
X164057487Y-76583692D01*
X163892215Y-76771269D02*
X163707340Y-76608378D01*
X163594857Y-76736041D02*
X163872612Y-76420800D01*
X156560728Y-76970800D02*
X156305072Y-76970800D01*
X156569988Y-77070800D02*
X156569988Y-77066585D01*
X163470011Y-77070800D02*
X163470011Y-77066585D01*
X163479271Y-76970800D02*
X163734927Y-76970800D01*
X156823589Y-77070736D02*
X156832300Y-84272120D01*
X156323589Y-77065225D02*
X156323572Y-77062300D01*
X156323589Y-77065225D02*
X156323589Y-84307680D01*
X163926520Y-84310220D02*
X156384549Y-84321240D01*
X156330103Y-77070800D02*
X156820000Y-77070800D01*
X163716410Y-77065225D02*
X163710620Y-84289900D01*
X163716410Y-77065225D02*
X163716427Y-77062300D01*
X163709896Y-77070800D02*
X163220000Y-77070800D01*
X163216410Y-77070736D02*
X163212780Y-84289900D01*
X163220000Y-77070800D02*
X163216410Y-77070736D01*
X156820000Y-77070800D02*
X156823589Y-77070736D01*
X163158464Y-77049625D02*
X156881535Y-77049625D01*
X162870000Y-76420800D02*
X157170000Y-76420800D01*
X157170000Y-76564195D02*
X157170000Y-76420800D01*
X162870000Y-76564195D02*
X162870000Y-76420800D01*
X163120000Y-76625589D02*
X163120000Y-76970800D01*
X162870000Y-76564195D02*
X157170000Y-76564195D01*
X156920000Y-76625589D02*
X156920000Y-76970800D01*
X156920000Y-76906231D02*
X163120000Y-76906231D01*
X158908294Y-102560888D02*
X158898204Y-102236760D01*
X158956526Y-102609118D02*
X158908294Y-102560888D01*
X159310080Y-102255564D02*
X158956526Y-102609118D01*
X159221691Y-102167178D02*
X159310080Y-102255564D01*
X159043215Y-102345654D02*
X159221691Y-102167178D01*
X159035141Y-102226881D02*
X159043215Y-102345654D01*
X158711760Y-102146779D02*
X158616571Y-102241968D01*
X157134368Y-103560992D02*
X157039178Y-103465807D01*
X157229553Y-103465807D02*
X157134368Y-103560992D01*
X157664697Y-103900947D02*
X157229553Y-103465807D01*
X157759883Y-103805761D02*
X157664697Y-103900947D01*
X157324743Y-103370617D02*
X157759883Y-103805761D01*
X157419928Y-103275432D02*
X157324743Y-103370617D01*
X157324743Y-103180243D02*
X157419928Y-103275432D01*
X157039178Y-103465807D02*
X157324743Y-103180243D01*
X160642640Y-103615127D02*
X160781385Y-103618526D01*
X158267098Y-105247443D02*
X158525464Y-104989077D01*
X158525464Y-104989077D02*
X158620650Y-105084265D01*
X158620650Y-105084265D02*
X158457473Y-105247442D01*
X158457473Y-105247442D02*
X158559459Y-105349430D01*
X158559459Y-105349430D02*
X158722638Y-105186251D01*
X158722638Y-105186251D02*
X158817825Y-105281438D01*
X158817825Y-105281438D02*
X158654646Y-105444617D01*
X158654646Y-105444617D02*
X158892616Y-105682586D01*
X158892616Y-105682586D02*
X158797428Y-105777773D01*
X158797428Y-105777773D02*
X158267098Y-105247443D01*
X161884461Y-102290207D02*
X161855250Y-102211862D01*
X161942258Y-102378759D02*
X161884461Y-102290207D01*
X159681998Y-104719135D02*
X159714065Y-104697957D01*
X159644082Y-104725484D02*
X159681998Y-104719135D01*
X159570722Y-104703642D02*
X159644082Y-104725484D01*
X159451023Y-104606383D02*
X159570722Y-104703642D01*
X159677776Y-104499953D02*
X159614948Y-104430349D01*
X159735738Y-104603407D02*
X159677776Y-104499953D01*
X159380016Y-104309753D02*
X159346914Y-104330806D01*
X159419049Y-104305084D02*
X159380016Y-104309753D01*
X159493349Y-104329837D02*
X159419049Y-104305084D01*
X159614948Y-104430349D02*
X159493349Y-104329837D01*
X159345808Y-104481264D02*
X159451023Y-104606383D01*
X159318007Y-104405000D02*
X159345808Y-104481264D01*
X159324542Y-104364827D02*
X159318007Y-104405000D01*
X159346914Y-104330806D02*
X159324542Y-104364827D01*
X159610419Y-104246741D02*
X159710134Y-104335161D01*
X159494530Y-104181879D02*
X159610419Y-104246741D01*
X159429568Y-104167520D02*
X159494530Y-104181879D01*
X159363307Y-104172003D02*
X159429568Y-104167520D01*
X159301692Y-104196848D02*
X159363307Y-104172003D01*
X159249389Y-104237955D02*
X159301692Y-104196848D01*
X159850996Y-104740971D02*
X159809678Y-104792720D01*
X159876086Y-104679838D02*
X159850996Y-104740971D01*
X159878845Y-104613814D02*
X159876086Y-104679838D01*
X159863192Y-104549465D02*
X159878845Y-104613814D01*
X159798180Y-104434360D02*
X159863192Y-104549465D01*
X159710134Y-104335161D02*
X159798180Y-104434360D01*
X159453276Y-104787877D02*
X159354776Y-104700507D01*
X159568231Y-104851036D02*
X159453276Y-104787877D01*
X159632555Y-104864539D02*
X159568231Y-104851036D01*
X159697986Y-104859516D02*
X159632555Y-104864539D01*
X159758378Y-104833832D02*
X159697986Y-104859516D01*
X159809678Y-104792720D02*
X159758378Y-104833832D01*
X159242761Y-104568383D02*
X159186498Y-104445113D01*
X159354776Y-104700507D02*
X159242761Y-104568383D01*
X159194737Y-104320285D02*
X159249389Y-104237955D01*
X159186498Y-104445113D02*
X159194737Y-104320285D01*
X159677776Y-104499953D02*
X159614948Y-104430349D01*
X159735738Y-104603407D02*
X159677776Y-104499953D01*
X159681998Y-104719135D02*
X159714065Y-104697957D01*
X159644082Y-104725484D02*
X159681998Y-104719135D01*
X159570722Y-104703642D02*
X159644082Y-104725484D01*
X159451023Y-104606383D02*
X159570722Y-104703642D01*
X159345808Y-104481264D02*
X159451023Y-104606383D01*
X159318007Y-104405000D02*
X159345808Y-104481264D01*
X159324542Y-104364827D02*
X159318007Y-104405000D01*
X159346914Y-104330806D02*
X159324542Y-104364827D01*
X159380016Y-104309753D02*
X159346914Y-104330806D01*
X159419049Y-104305084D02*
X159380016Y-104309753D01*
X159493349Y-104329837D02*
X159419049Y-104305084D01*
X159614948Y-104430349D02*
X159493349Y-104329837D01*
X157261800Y-104131380D02*
X157291383Y-104111084D01*
X157227052Y-104140526D02*
X157261800Y-104131380D01*
X157136492Y-104129994D02*
X157227052Y-104140526D01*
X157321267Y-103851742D02*
X157391351Y-103899567D01*
X157214894Y-103832745D02*
X157321267Y-103851742D01*
X157157865Y-103834866D02*
X157214894Y-103832745D01*
X157085392Y-103839864D02*
X157157865Y-103834866D01*
X157023623Y-103843501D02*
X157085392Y-103839864D01*
X156944948Y-103843474D02*
X157023623Y-103843501D01*
X156928609Y-103838904D02*
X156944948Y-103843474D01*
X156910739Y-103826903D02*
X156928609Y-103838904D01*
X158401267Y-102399626D02*
X158387738Y-102380287D01*
X158408006Y-102422288D02*
X158401267Y-102399626D01*
X158403090Y-102469071D02*
X158408006Y-102422288D01*
X158351407Y-102547925D02*
X158403090Y-102469071D01*
X158541020Y-102570390D02*
X158439796Y-102636314D01*
X158601319Y-102565534D02*
X158541020Y-102570390D01*
X158630200Y-102574914D02*
X158601319Y-102565534D01*
X158654710Y-102592863D02*
X158630200Y-102574914D01*
X158142327Y-102353879D02*
X158189715Y-102288073D01*
X158121830Y-102454546D02*
X158142327Y-102353879D01*
X158134139Y-102517615D02*
X158121830Y-102454546D01*
X158174629Y-102588722D02*
X158134139Y-102517615D01*
X158882918Y-102085261D02*
X158829892Y-101979352D01*
X158898204Y-102236760D02*
X158882918Y-102085261D01*
X158668419Y-102076540D02*
X158711760Y-102146779D01*
X158665165Y-102024111D02*
X158668419Y-102076540D01*
X158689979Y-101978184D02*
X158665165Y-102024111D01*
X159242761Y-104568383D02*
X159186498Y-104445113D01*
X159354776Y-104700507D02*
X159242761Y-104568383D01*
X159453276Y-104787877D02*
X159354776Y-104700507D01*
X159568231Y-104851036D02*
X159453276Y-104787877D01*
X159632555Y-104864539D02*
X159568231Y-104851036D01*
X159697986Y-104859516D02*
X159632555Y-104864539D01*
X159758378Y-104833832D02*
X159697986Y-104859516D01*
X159809678Y-104792720D02*
X159758378Y-104833832D01*
X159850996Y-104740971D02*
X159809678Y-104792720D01*
X159876086Y-104679838D02*
X159850996Y-104740971D01*
X159878845Y-104613814D02*
X159876086Y-104679838D01*
X159863192Y-104549465D02*
X159878845Y-104613814D01*
X159798180Y-104434360D02*
X159863192Y-104549465D01*
X159710134Y-104335161D02*
X159798180Y-104434360D01*
X159610419Y-104246741D02*
X159710134Y-104335161D01*
X159494530Y-104181879D02*
X159610419Y-104246741D01*
X159429568Y-104167520D02*
X159494530Y-104181879D01*
X159363307Y-104172003D02*
X159429568Y-104167520D01*
X159301692Y-104196848D02*
X159363307Y-104172003D01*
X159249389Y-104237955D02*
X159301692Y-104196848D01*
X159194737Y-104320285D02*
X159249389Y-104237955D01*
X159186498Y-104445113D02*
X159194737Y-104320285D01*
X160747670Y-103816315D02*
X160656983Y-103945415D01*
X160781385Y-103618526D02*
X160747670Y-103816315D01*
X160287161Y-103423312D02*
X160192413Y-103485307D01*
X160429743Y-103402230D02*
X160287161Y-103423312D01*
X160274334Y-103282646D02*
X160432823Y-103265717D01*
X160100944Y-103386400D02*
X160274334Y-103282646D01*
X161884461Y-102290207D02*
X161855250Y-102211862D01*
X161942258Y-102378759D02*
X161884461Y-102290207D01*
X160169035Y-107203820D02*
G75*
G03*
X160169035Y-107203820I-250000J0D01*
G01*
X158401267Y-102399626D02*
X158387738Y-102380287D01*
X158408006Y-102422288D02*
X158401267Y-102399626D01*
X158403090Y-102469071D02*
X158408006Y-102422288D01*
X158351407Y-102547925D02*
X158403090Y-102469071D01*
X158541020Y-102570390D02*
X158439796Y-102636314D01*
X158601319Y-102565534D02*
X158541020Y-102570390D01*
X158630200Y-102574914D02*
X158601319Y-102565534D01*
X158654710Y-102592863D02*
X158630200Y-102574914D01*
X158142327Y-102353879D02*
X158189715Y-102288073D01*
X158121830Y-102454546D02*
X158142327Y-102353879D01*
X158134139Y-102517615D02*
X158121830Y-102454546D01*
X158174629Y-102588722D02*
X158134139Y-102517615D01*
X156928609Y-103838904D02*
X156944948Y-103843474D01*
X156910739Y-103826903D02*
X156928609Y-103838904D01*
X157023623Y-103843501D02*
X157085392Y-103839864D01*
X156944948Y-103843474D02*
X157023623Y-103843501D01*
X157157865Y-103834866D02*
X157214894Y-103832745D01*
X157085392Y-103839864D02*
X157157865Y-103834866D01*
X157321267Y-103851742D02*
X157391351Y-103899567D01*
X157214894Y-103832745D02*
X157321267Y-103851742D01*
X157261800Y-104131380D02*
X157291383Y-104111084D01*
X157227052Y-104140526D02*
X157261800Y-104131380D01*
X157136492Y-104129994D02*
X157227052Y-104140526D01*
X156328513Y-77070469D02*
X156330103Y-77070800D01*
X156323572Y-77062300D02*
X156328513Y-77070469D01*
X163711486Y-77070469D02*
X163709896Y-77070800D01*
X163716427Y-77062300D02*
X163711486Y-77070469D01*
X158668419Y-102076540D02*
X158711760Y-102146779D01*
X158665165Y-102024111D02*
X158668419Y-102076540D01*
X158689979Y-101978184D02*
X158665165Y-102024111D01*
X158882918Y-102085261D02*
X158829892Y-101979352D01*
X158898204Y-102236760D02*
X158882918Y-102085261D01*
X160274334Y-103282646D02*
X160432823Y-103265717D01*
X160100944Y-103386400D02*
X160274334Y-103282646D01*
X160747670Y-103816315D02*
X160656983Y-103945415D01*
X160781385Y-103618526D02*
X160747670Y-103816315D01*
X160287161Y-103423312D02*
X160192413Y-103485307D01*
X160429743Y-103402230D02*
X160287161Y-103423312D01*
X151070000Y-77460800D02*
X153736040Y-77459840D01*
X151066500Y-80035400D02*
X151070000Y-77460800D01*
X166370000Y-128320800D02*
X166370000Y-77520800D01*
X153733500Y-77464920D02*
X153730000Y-128380800D01*
X151070000Y-80060800D02*
X153730000Y-80060800D01*
X165181900Y-125557280D02*
X154901900Y-125557280D01*
X165160000Y-124570800D02*
X165150800Y-125531880D01*
X154880000Y-124570800D02*
X165160000Y-124570800D01*
X154881580Y-125554740D02*
X154880000Y-124570800D01*
X148645000Y-129495800D02*
X148645000Y-76345800D01*
X171355240Y-129504440D02*
X148605240Y-129504440D01*
X171395000Y-76345800D02*
X171395000Y-129495800D01*
X148645000Y-76345800D02*
X171395000Y-76345800D01*
X160152985Y-108115989D02*
X159784684Y-108115988D01*
X164494016Y-103774352D02*
X164494015Y-103281635D01*
X155549116Y-104332967D02*
X155768319Y-104113762D01*
X157811857Y-106595708D02*
X158031060Y-106376505D01*
X158165411Y-106949262D02*
X158384614Y-106730059D01*
X158377543Y-107161394D02*
X158596746Y-106942191D01*
X156640013Y-116437177D02*
G75*
G02*
X156696255Y-116351920I92742J0D01*
G01*
X159432660Y-116351920D02*
G75*
G02*
X159532660Y-116451920I0J-100000D01*
G01*
X156756110Y-120167544D02*
G75*
G02*
X156646160Y-120068040I-9950J99504D01*
G01*
X159042440Y-118577020D02*
G75*
G02*
X157137440Y-118577020I-952500J0D01*
G01*
X159532660Y-120070540D02*
G75*
G02*
X159432660Y-120170540I-100000J0D01*
G01*
X157137440Y-118069020D02*
G75*
G02*
X159042440Y-118069020I952500J0D01*
G01*
X161295080Y-92745560D02*
G75*
G02*
X163200080Y-92745560I952500J0D01*
G01*
X163200080Y-93253560D02*
G75*
G02*
X161295080Y-93253560I-952500J0D01*
G01*
X160913750Y-94844084D02*
G75*
G02*
X160803800Y-94744580I-9950J99504D01*
G01*
X163590300Y-91028460D02*
G75*
G02*
X163690300Y-91128460I0J-100000D01*
G01*
X160797653Y-91113717D02*
G75*
G02*
X160853895Y-91028460I92742J0D01*
G01*
X163690300Y-94747080D02*
G75*
G02*
X163590300Y-94847080I-100000J0D01*
G01*
X156789120Y-92768420D02*
G75*
G02*
X158694120Y-92768420I952500J0D01*
G01*
X158694120Y-93276420D02*
G75*
G02*
X156789120Y-93276420I-952500J0D01*
G01*
X161691472Y-102658538D02*
G75*
G02*
X161687661Y-102734039I-107983J-32396D01*
G01*
X161535073Y-102886780D02*
G75*
G02*
X161430698Y-102860866I-28636J107818D01*
G01*
X161820644Y-102608394D02*
G75*
G02*
X161830419Y-102769233I-72130J-85100D01*
G01*
X161582762Y-103018893D02*
G75*
G02*
X161421922Y-103028669I-85101J72130D01*
G01*
X160196982Y-103845765D02*
G75*
G02*
X160192413Y-103485307I172074J182439D01*
G01*
X160561372Y-103850651D02*
G75*
G02*
X160196981Y-103845766I-179916J172477D01*
G01*
X160642641Y-103615126D02*
G75*
G02*
X160561371Y-103850652I-288569J-32212D01*
G01*
X160656982Y-103945415D02*
G75*
G02*
X160102005Y-103941166I-275521J259124D01*
G01*
X160102004Y-103941165D02*
G75*
G02*
X160100944Y-103386400I267340J277895D01*
G01*
X158616571Y-102241969D02*
G75*
G02*
X158600211Y-101877577I162875J189876D01*
G01*
X158600210Y-101877578D02*
G75*
G02*
X158918387Y-101877471I159141J-155961D01*
G01*
X158918387Y-101877470D02*
G75*
G02*
X159035141Y-102226881I-396694J-326765D01*
G01*
X158689980Y-101978183D02*
G75*
G02*
X158829892Y-101979352I69414J-65451D01*
G01*
X156920000Y-76768982D02*
G75*
G02*
X157170000Y-76564195I229438J-25102D01*
G01*
X162870000Y-76564195D02*
G75*
G02*
X163119999Y-76768983I20561J-229889D01*
G01*
X162870000Y-76420801D02*
G75*
G02*
X163119999Y-76625589I20561J-229889D01*
G01*
X156919999Y-76625588D02*
G75*
G02*
X157170000Y-76420800I229439J-25102D01*
G01*
X163216410Y-77070737D02*
G75*
G02*
X163119999Y-76970800I3590J99937D01*
G01*
X156920000Y-76970801D02*
G75*
G02*
X156823589Y-77070736I-100000J1D01*
G01*
X163470011Y-77066585D02*
G75*
G02*
X163594857Y-76736041I500000J0D01*
G01*
X163716427Y-77062300D02*
G75*
G02*
X163778833Y-76899953I249983J-2925D01*
G01*
X156261166Y-76899953D02*
G75*
G02*
X156323572Y-77062300I-187577J-165272D01*
G01*
X156445142Y-76736041D02*
G75*
G02*
X156569988Y-77066585I-375154J-330544D01*
G01*
X156407790Y-94866944D02*
G75*
G02*
X156297840Y-94767440I-9950J99504D01*
G01*
X159084340Y-91051320D02*
G75*
G02*
X159184340Y-91151320I0J-100000D01*
G01*
X156291693Y-91136577D02*
G75*
G02*
X156347935Y-91051320I92742J0D01*
G01*
X159184340Y-94769940D02*
G75*
G02*
X159084340Y-94869940I-100000J0D01*
G01*
X156824795Y-103652996D02*
G75*
G02*
X157055645Y-103591059I175251J-192016D01*
G01*
X156820120Y-103926656D02*
G75*
G02*
X156824795Y-103652994I136545J134538D01*
G01*
X157139891Y-103979136D02*
G75*
G02*
X156820122Y-103926656I-108634J338516D01*
G01*
X157139890Y-103979138D02*
G75*
G02*
X157301687Y-104000280I55615J-204064D01*
G01*
X157301692Y-104000279D02*
G75*
G02*
X157291383Y-104111084I-61159J-50192D01*
G01*
X157383066Y-104209777D02*
G75*
G02*
X157103027Y-104263958I-179111J174958D01*
G01*
X157391351Y-103899567D02*
G75*
G02*
X157383066Y-104209777I-148378J-151253D01*
G01*
X156910740Y-103826901D02*
G75*
G02*
X156918919Y-103749244I43124J34717D01*
G01*
X156918920Y-103749245D02*
G75*
G02*
X157049590Y-103727359I84784J-105181D01*
G01*
X158189717Y-102288072D02*
G75*
G02*
X158476871Y-102279043I147999J-136122D01*
G01*
X158476871Y-102279044D02*
G75*
G02*
X158517027Y-102461133I-122239J-122430D01*
G01*
X158517029Y-102461130D02*
G75*
G02*
X158750855Y-102498632I92758J-169356D01*
G01*
X158750853Y-102498633D02*
G75*
G02*
X158738637Y-102854204I-176853J-171919D01*
G01*
X158738639Y-102854203D02*
G75*
G02*
X158385402Y-102853887I-176467J169650D01*
G01*
X158648654Y-102753812D02*
G75*
G02*
X158480589Y-102758699I-86530J83460D01*
G01*
X158654710Y-102592865D02*
G75*
G02*
X158648654Y-102753813I-79814J-77585D01*
G01*
X158284265Y-102383901D02*
G75*
G02*
X158387738Y-102380287I53417J-46310D01*
G01*
X158269816Y-102493534D02*
G75*
G02*
X158284265Y-102383897I80734J45131D01*
G01*
X161941409Y-102044966D02*
G75*
G02*
X162269359Y-102053146I159994J-163695D01*
G01*
X162269359Y-102053145D02*
G75*
G02*
X162272121Y-102380566I-159052J-165064D01*
G01*
X162272119Y-102380565D02*
G75*
G02*
X161942258Y-102378759I-164029J165584D01*
G01*
X162025230Y-102137921D02*
G75*
G02*
X162168754Y-102142916I69396J-70494D01*
G01*
X162032773Y-102278897D02*
G75*
G02*
X162025229Y-102137923I64740J74153D01*
G01*
X162175127Y-102287181D02*
G75*
G02*
X162032772Y-102278897I-67058J74926D01*
G01*
X162168755Y-102142913D02*
G75*
G02*
X162175128Y-102287183I-67282J-75248D01*
G01*
X159735736Y-104603407D02*
G75*
G02*
X159714065Y-104697957I-86998J-29819D01*
G01*
%TO.C,J1*%
X132020000Y-118170000D02*
X137220000Y-118170000D01*
X132020000Y-77470000D02*
X132020000Y-118170000D01*
X137220000Y-74870000D02*
X137220000Y-118170000D01*
X132020000Y-77470000D02*
X134620000Y-77470000D01*
X134620000Y-77470000D02*
X134620000Y-74870000D01*
X134620000Y-74870000D02*
X137220000Y-74870000D01*
X132020000Y-76200000D02*
X132020000Y-74870000D01*
X132020000Y-74870000D02*
X133350000Y-74870000D01*
%TO.C,J2*%
X173990000Y-78680000D02*
X175320000Y-78680000D01*
X175320000Y-78680000D02*
X175320000Y-80010000D01*
X175320000Y-81280000D02*
X175320000Y-88960000D01*
X172660000Y-88960000D02*
X175320000Y-88960000D01*
X172660000Y-81280000D02*
X172660000Y-88960000D01*
X172660000Y-81280000D02*
X175320000Y-81280000D01*
%TO.C,C5*%
X154710000Y-133150000D02*
X150170000Y-133150000D01*
X154710000Y-131010000D02*
X150170000Y-131010000D01*
X154710000Y-133150000D02*
X154710000Y-133135000D01*
X154710000Y-131025000D02*
X154710000Y-131010000D01*
X150170000Y-133150000D02*
X150170000Y-133135000D01*
X150170000Y-131025000D02*
X150170000Y-131010000D01*
%TO.C,C3*%
X139470000Y-133150000D02*
X134930000Y-133150000D01*
X139470000Y-131010000D02*
X134930000Y-131010000D01*
X139470000Y-133150000D02*
X139470000Y-133135000D01*
X139470000Y-131025000D02*
X139470000Y-131010000D01*
X134930000Y-133150000D02*
X134930000Y-133135000D01*
X134930000Y-131025000D02*
X134930000Y-131010000D01*
%TO.C,C2*%
X132310000Y-120850000D02*
X136850000Y-120850000D01*
X132310000Y-122990000D02*
X136850000Y-122990000D01*
X132310000Y-120850000D02*
X132310000Y-120865000D01*
X132310000Y-122975000D02*
X132310000Y-122990000D01*
X136850000Y-120850000D02*
X136850000Y-120865000D01*
X136850000Y-122975000D02*
X136850000Y-122990000D01*
%TO.C,C1*%
X139930000Y-118310000D02*
X144470000Y-118310000D01*
X139930000Y-120450000D02*
X144470000Y-120450000D01*
X139930000Y-118310000D02*
X139930000Y-118325000D01*
X139930000Y-120435000D02*
X139930000Y-120450000D01*
X144470000Y-118310000D02*
X144470000Y-118325000D01*
X144470000Y-120435000D02*
X144470000Y-120450000D01*
%TO.C,Q1*%
X142980000Y-112340000D02*
X146580000Y-112340000D01*
X146618478Y-112328478D02*
G75*
G03*
X144780000Y-107890000I-1838478J1838478D01*
G01*
X142941522Y-112328478D02*
G75*
G02*
X144780000Y-107890000I1838478J1838478D01*
G01*
%TO.C,Q2*%
X142992700Y-127580000D02*
X146592700Y-127580000D01*
X146631178Y-127568478D02*
G75*
G03*
X144792700Y-123130000I-1838478J1838478D01*
G01*
X142954222Y-127568478D02*
G75*
G02*
X144792700Y-123130000I1838478J1838478D01*
G01*
%TO.C,J3*%
X126940000Y-129600000D02*
X129600000Y-129600000D01*
X126940000Y-121920000D02*
X126940000Y-129600000D01*
X129600000Y-121920000D02*
X129600000Y-129600000D01*
X126940000Y-121920000D02*
X129600000Y-121920000D01*
X126940000Y-120650000D02*
X126940000Y-119320000D01*
X126940000Y-119320000D02*
X128270000Y-119320000D01*
%TO.C,R18*%
X137810000Y-130460000D02*
X137810000Y-128620000D01*
X137810000Y-128620000D02*
X133970000Y-128620000D01*
X133970000Y-128620000D02*
X133970000Y-130460000D01*
X133970000Y-130460000D02*
X137810000Y-130460000D01*
X138760000Y-129540000D02*
X137810000Y-129540000D01*
X133020000Y-129540000D02*
X133970000Y-129540000D01*
%TO.C,R17*%
X137810000Y-127920000D02*
X137810000Y-126080000D01*
X137810000Y-126080000D02*
X133970000Y-126080000D01*
X133970000Y-126080000D02*
X133970000Y-127920000D01*
X133970000Y-127920000D02*
X137810000Y-127920000D01*
X138760000Y-127000000D02*
X137810000Y-127000000D01*
X133020000Y-127000000D02*
X133970000Y-127000000D01*
%TO.C,R15*%
X145430000Y-122840000D02*
X145430000Y-121000000D01*
X145430000Y-121000000D02*
X141590000Y-121000000D01*
X141590000Y-121000000D02*
X141590000Y-122840000D01*
X141590000Y-122840000D02*
X145430000Y-122840000D01*
X146380000Y-121920000D02*
X145430000Y-121920000D01*
X140640000Y-121920000D02*
X141590000Y-121920000D01*
%TO.C,R14*%
X141590000Y-115920000D02*
X141590000Y-117760000D01*
X141590000Y-117760000D02*
X145430000Y-117760000D01*
X145430000Y-117760000D02*
X145430000Y-115920000D01*
X145430000Y-115920000D02*
X141590000Y-115920000D01*
X140640000Y-116840000D02*
X141590000Y-116840000D01*
X146380000Y-116840000D02*
X145430000Y-116840000D01*
%TO.C,R10*%
X145430000Y-102520000D02*
X145430000Y-100680000D01*
X145430000Y-100680000D02*
X141590000Y-100680000D01*
X141590000Y-100680000D02*
X141590000Y-102520000D01*
X141590000Y-102520000D02*
X145430000Y-102520000D01*
X146380000Y-101600000D02*
X145430000Y-101600000D01*
X140640000Y-101600000D02*
X141590000Y-101600000D01*
%TO.C,R16*%
X137810000Y-125380000D02*
X137810000Y-123540000D01*
X137810000Y-123540000D02*
X133970000Y-123540000D01*
X133970000Y-123540000D02*
X133970000Y-125380000D01*
X133970000Y-125380000D02*
X137810000Y-125380000D01*
X138760000Y-124460000D02*
X137810000Y-124460000D01*
X133020000Y-124460000D02*
X133970000Y-124460000D01*
%TO.C,R11*%
X145430000Y-105060000D02*
X145430000Y-103220000D01*
X145430000Y-103220000D02*
X141590000Y-103220000D01*
X141590000Y-103220000D02*
X141590000Y-105060000D01*
X141590000Y-105060000D02*
X145430000Y-105060000D01*
X146380000Y-104140000D02*
X145430000Y-104140000D01*
X140640000Y-104140000D02*
X141590000Y-104140000D01*
%TO.C,R9*%
X171800000Y-97170000D02*
X173640000Y-97170000D01*
X173640000Y-97170000D02*
X173640000Y-93330000D01*
X173640000Y-93330000D02*
X171800000Y-93330000D01*
X171800000Y-93330000D02*
X171800000Y-97170000D01*
X172720000Y-98120000D02*
X172720000Y-97170000D01*
X172720000Y-92380000D02*
X172720000Y-93330000D01*
%TO.C,R12*%
X145430000Y-107600000D02*
X145430000Y-105760000D01*
X145430000Y-105760000D02*
X141590000Y-105760000D01*
X141590000Y-105760000D02*
X141590000Y-107600000D01*
X141590000Y-107600000D02*
X145430000Y-107600000D01*
X146380000Y-106680000D02*
X145430000Y-106680000D01*
X140640000Y-106680000D02*
X141590000Y-106680000D01*
%TO.C,R13*%
X141590000Y-113380000D02*
X141590000Y-115220000D01*
X141590000Y-115220000D02*
X145430000Y-115220000D01*
X145430000Y-115220000D02*
X145430000Y-113380000D01*
X145430000Y-113380000D02*
X141590000Y-113380000D01*
X140640000Y-114300000D02*
X141590000Y-114300000D01*
X146380000Y-114300000D02*
X145430000Y-114300000D01*
%TO.C,R1*%
X141590000Y-77820000D02*
X141590000Y-79660000D01*
X141590000Y-79660000D02*
X145430000Y-79660000D01*
X145430000Y-79660000D02*
X145430000Y-77820000D01*
X145430000Y-77820000D02*
X141590000Y-77820000D01*
X140640000Y-78740000D02*
X141590000Y-78740000D01*
X146380000Y-78740000D02*
X145430000Y-78740000D01*
%TO.C,R2*%
X141590000Y-80360000D02*
X141590000Y-82200000D01*
X141590000Y-82200000D02*
X145430000Y-82200000D01*
X145430000Y-82200000D02*
X145430000Y-80360000D01*
X145430000Y-80360000D02*
X141590000Y-80360000D01*
X140640000Y-81280000D02*
X141590000Y-81280000D01*
X146380000Y-81280000D02*
X145430000Y-81280000D01*
%TO.C,R3*%
X141590000Y-82900000D02*
X141590000Y-84740000D01*
X141590000Y-84740000D02*
X145430000Y-84740000D01*
X145430000Y-84740000D02*
X145430000Y-82900000D01*
X145430000Y-82900000D02*
X141590000Y-82900000D01*
X140640000Y-83820000D02*
X141590000Y-83820000D01*
X146380000Y-83820000D02*
X145430000Y-83820000D01*
%TO.C,R4*%
X141590000Y-85440000D02*
X141590000Y-87280000D01*
X141590000Y-87280000D02*
X145430000Y-87280000D01*
X145430000Y-87280000D02*
X145430000Y-85440000D01*
X145430000Y-85440000D02*
X141590000Y-85440000D01*
X140640000Y-86360000D02*
X141590000Y-86360000D01*
X146380000Y-86360000D02*
X145430000Y-86360000D01*
%TO.C,R5*%
X141590000Y-87980000D02*
X141590000Y-89820000D01*
X141590000Y-89820000D02*
X145430000Y-89820000D01*
X145430000Y-89820000D02*
X145430000Y-87980000D01*
X145430000Y-87980000D02*
X141590000Y-87980000D01*
X140640000Y-88900000D02*
X141590000Y-88900000D01*
X146380000Y-88900000D02*
X145430000Y-88900000D01*
%TO.C,R6*%
X141590000Y-90520000D02*
X141590000Y-92360000D01*
X141590000Y-92360000D02*
X145430000Y-92360000D01*
X145430000Y-92360000D02*
X145430000Y-90520000D01*
X145430000Y-90520000D02*
X141590000Y-90520000D01*
X140640000Y-91440000D02*
X141590000Y-91440000D01*
X146380000Y-91440000D02*
X145430000Y-91440000D01*
%TO.C,R7*%
X141590000Y-93060000D02*
X141590000Y-94900000D01*
X141590000Y-94900000D02*
X145430000Y-94900000D01*
X145430000Y-94900000D02*
X145430000Y-93060000D01*
X145430000Y-93060000D02*
X141590000Y-93060000D01*
X140640000Y-93980000D02*
X141590000Y-93980000D01*
X146380000Y-93980000D02*
X145430000Y-93980000D01*
%TO.C,R8*%
X141590000Y-95600000D02*
X141590000Y-97440000D01*
X141590000Y-97440000D02*
X145430000Y-97440000D01*
X145430000Y-97440000D02*
X145430000Y-95600000D01*
X145430000Y-95600000D02*
X141590000Y-95600000D01*
X140640000Y-96520000D02*
X141590000Y-96520000D01*
X146380000Y-96520000D02*
X145430000Y-96520000D01*
%TO.C,C4*%
D11*
X144570153Y-134725682D02*
X144522534Y-134773301D01*
X144379677Y-134820920D01*
X144284439Y-134820920D01*
X144141581Y-134773301D01*
X144046343Y-134678063D01*
X143998724Y-134582825D01*
X143951105Y-134392349D01*
X143951105Y-134249492D01*
X143998724Y-134059016D01*
X144046343Y-133963778D01*
X144141581Y-133868540D01*
X144284439Y-133820920D01*
X144379677Y-133820920D01*
X144522534Y-133868540D01*
X144570153Y-133916159D01*
X145427296Y-134154254D02*
X145427296Y-134820920D01*
X145189200Y-133773301D02*
X144951105Y-134487587D01*
X145570153Y-134487587D01*
%TO.C,U1*%
X159258095Y-74433180D02*
X159258095Y-75242704D01*
X159305714Y-75337942D01*
X159353333Y-75385561D01*
X159448571Y-75433180D01*
X159639047Y-75433180D01*
X159734285Y-75385561D01*
X159781904Y-75337942D01*
X159829523Y-75242704D01*
X159829523Y-74433180D01*
X160829523Y-75433180D02*
X160258095Y-75433180D01*
X160543809Y-75433180D02*
X160543809Y-74433180D01*
X160448571Y-74576038D01*
X160353333Y-74671276D01*
X160258095Y-74718895D01*
D14*
X170732395Y-78638419D02*
X170732395Y-78257466D01*
X170351442Y-78219371D01*
X170389538Y-78257466D01*
X170427633Y-78333657D01*
X170427633Y-78524133D01*
X170389538Y-78600323D01*
X170351442Y-78638419D01*
X170275252Y-78676514D01*
X170084776Y-78676514D01*
X170008585Y-78638419D01*
X169970490Y-78600323D01*
X169932395Y-78524133D01*
X169932395Y-78333657D01*
X169970490Y-78257466D01*
X170008585Y-78219371D01*
X170732395Y-78905085D02*
X169932395Y-79171752D01*
X170732395Y-79438419D01*
X170694300Y-81535243D02*
X170732395Y-81459053D01*
X170732395Y-81344767D01*
X170694300Y-81230481D01*
X170618109Y-81154291D01*
X170541919Y-81116196D01*
X170389538Y-81078100D01*
X170275252Y-81078100D01*
X170122871Y-81116196D01*
X170046680Y-81154291D01*
X169970490Y-81230481D01*
X169932395Y-81344767D01*
X169932395Y-81420958D01*
X169970490Y-81535243D01*
X170008585Y-81573339D01*
X170275252Y-81573339D01*
X170275252Y-81420958D01*
X170745095Y-82882863D02*
X170745095Y-83378101D01*
X170440333Y-83111435D01*
X170440333Y-83225720D01*
X170402238Y-83301911D01*
X170364142Y-83340006D01*
X170287952Y-83378101D01*
X170097476Y-83378101D01*
X170021285Y-83340006D01*
X169983190Y-83301911D01*
X169945095Y-83225720D01*
X169945095Y-82997149D01*
X169983190Y-82920959D01*
X170021285Y-82882863D01*
X170745095Y-83606673D02*
X169945095Y-83873340D01*
X170745095Y-84140006D01*
X170745095Y-84330482D02*
X170745095Y-84825720D01*
X170440333Y-84559054D01*
X170440333Y-84673340D01*
X170402238Y-84749530D01*
X170364142Y-84787625D01*
X170287952Y-84825720D01*
X170097476Y-84825720D01*
X170021285Y-84787625D01*
X169983190Y-84749530D01*
X169945095Y-84673340D01*
X169945095Y-84444768D01*
X169983190Y-84368578D01*
X170021285Y-84330482D01*
X170364142Y-85703498D02*
X170326047Y-85817783D01*
X170287952Y-85855879D01*
X170211761Y-85893974D01*
X170097476Y-85893974D01*
X170021285Y-85855879D01*
X169983190Y-85817783D01*
X169945095Y-85741593D01*
X169945095Y-85436831D01*
X170745095Y-85436831D01*
X170745095Y-85703498D01*
X170707000Y-85779688D01*
X170668904Y-85817783D01*
X170592714Y-85855879D01*
X170516523Y-85855879D01*
X170440333Y-85817783D01*
X170402238Y-85779688D01*
X170364142Y-85703498D01*
X170364142Y-85436831D01*
X169945095Y-86655879D02*
X169945095Y-86198736D01*
X169945095Y-86427307D02*
X170745095Y-86427307D01*
X170630809Y-86351117D01*
X170554619Y-86274926D01*
X170516523Y-86198736D01*
X170745095Y-87151117D02*
X170745095Y-87227307D01*
X170707000Y-87303498D01*
X170668904Y-87341593D01*
X170592714Y-87379688D01*
X170440333Y-87417783D01*
X170249857Y-87417783D01*
X170097476Y-87379688D01*
X170021285Y-87341593D01*
X169983190Y-87303498D01*
X169945095Y-87227307D01*
X169945095Y-87151117D01*
X169983190Y-87074926D01*
X170021285Y-87036831D01*
X170097476Y-86998736D01*
X170249857Y-86960640D01*
X170440333Y-86960640D01*
X170592714Y-86998736D01*
X170668904Y-87036831D01*
X170707000Y-87074926D01*
X170745095Y-87151117D01*
X170351442Y-88657470D02*
X170313347Y-88771756D01*
X170275252Y-88809851D01*
X170199061Y-88847946D01*
X170084776Y-88847946D01*
X170008585Y-88809851D01*
X169970490Y-88771756D01*
X169932395Y-88695565D01*
X169932395Y-88390803D01*
X170732395Y-88390803D01*
X170732395Y-88657470D01*
X170694300Y-88733660D01*
X170656204Y-88771756D01*
X170580014Y-88809851D01*
X170503823Y-88809851D01*
X170427633Y-88771756D01*
X170389538Y-88733660D01*
X170351442Y-88657470D01*
X170351442Y-88390803D01*
X170656204Y-89152708D02*
X170694300Y-89190803D01*
X170732395Y-89266994D01*
X170732395Y-89457470D01*
X170694300Y-89533660D01*
X170656204Y-89571756D01*
X170580014Y-89609851D01*
X170503823Y-89609851D01*
X170389538Y-89571756D01*
X169932395Y-89114613D01*
X169932395Y-89609851D01*
X170351442Y-91166990D02*
X170313347Y-91281276D01*
X170275252Y-91319371D01*
X170199061Y-91357466D01*
X170084776Y-91357466D01*
X170008585Y-91319371D01*
X169970490Y-91281276D01*
X169932395Y-91205085D01*
X169932395Y-90900323D01*
X170732395Y-90900323D01*
X170732395Y-91166990D01*
X170694300Y-91243180D01*
X170656204Y-91281276D01*
X170580014Y-91319371D01*
X170503823Y-91319371D01*
X170427633Y-91281276D01*
X170389538Y-91243180D01*
X170351442Y-91166990D01*
X170351442Y-90900323D01*
X169932395Y-92119371D02*
X169932395Y-91662228D01*
X169932395Y-91890800D02*
X170732395Y-91890800D01*
X170618109Y-91814609D01*
X170541919Y-91738419D01*
X170503823Y-91662228D01*
X170364142Y-93714610D02*
X170326047Y-93828896D01*
X170287952Y-93866991D01*
X170211761Y-93905086D01*
X170097476Y-93905086D01*
X170021285Y-93866991D01*
X169983190Y-93828896D01*
X169945095Y-93752705D01*
X169945095Y-93447943D01*
X170745095Y-93447943D01*
X170745095Y-93714610D01*
X170707000Y-93790800D01*
X170668904Y-93828896D01*
X170592714Y-93866991D01*
X170516523Y-93866991D01*
X170440333Y-93828896D01*
X170402238Y-93790800D01*
X170364142Y-93714610D01*
X170364142Y-93447943D01*
X170745095Y-94400324D02*
X170745095Y-94476515D01*
X170707000Y-94552705D01*
X170668904Y-94590800D01*
X170592714Y-94628896D01*
X170440333Y-94666991D01*
X170249857Y-94666991D01*
X170097476Y-94628896D01*
X170021285Y-94590800D01*
X169983190Y-94552705D01*
X169945095Y-94476515D01*
X169945095Y-94400324D01*
X169983190Y-94324134D01*
X170021285Y-94286039D01*
X170097476Y-94247943D01*
X170249857Y-94209848D01*
X170440333Y-94209848D01*
X170592714Y-94247943D01*
X170668904Y-94286039D01*
X170707000Y-94324134D01*
X170745095Y-94400324D01*
X170160966Y-95989211D02*
X170160966Y-96370163D01*
X169932395Y-95913020D02*
X170732395Y-96179687D01*
X169932395Y-96446354D01*
X170732395Y-96636830D02*
X170732395Y-97170163D01*
X169932395Y-96827306D01*
X170173666Y-98529211D02*
X170173666Y-98910163D01*
X169945095Y-98453020D02*
X170745095Y-98719687D01*
X169945095Y-98986354D01*
X170745095Y-99595878D02*
X170745095Y-99443497D01*
X170707000Y-99367306D01*
X170668904Y-99329211D01*
X170554619Y-99253020D01*
X170402238Y-99214925D01*
X170097476Y-99214925D01*
X170021285Y-99253020D01*
X169983190Y-99291116D01*
X169945095Y-99367306D01*
X169945095Y-99519687D01*
X169983190Y-99595878D01*
X170021285Y-99633973D01*
X170097476Y-99672068D01*
X170287952Y-99672068D01*
X170364142Y-99633973D01*
X170402238Y-99595878D01*
X170440333Y-99519687D01*
X170440333Y-99367306D01*
X170402238Y-99291116D01*
X170364142Y-99253020D01*
X170287952Y-99214925D01*
X170173666Y-101081911D02*
X170173666Y-101462863D01*
X169945095Y-101005720D02*
X170745095Y-101272387D01*
X169945095Y-101539054D01*
X170745095Y-102186673D02*
X170745095Y-101805720D01*
X170364142Y-101767625D01*
X170402238Y-101805720D01*
X170440333Y-101881911D01*
X170440333Y-102072387D01*
X170402238Y-102148578D01*
X170364142Y-102186673D01*
X170287952Y-102224768D01*
X170097476Y-102224768D01*
X170021285Y-102186673D01*
X169983190Y-102148578D01*
X169945095Y-102072387D01*
X169945095Y-101881911D01*
X169983190Y-101805720D01*
X170021285Y-101767625D01*
X170148266Y-103621911D02*
X170148266Y-104002863D01*
X169919695Y-103545720D02*
X170719695Y-103812387D01*
X169919695Y-104079054D01*
X170453028Y-104688578D02*
X169919695Y-104688578D01*
X170757790Y-104498101D02*
X170186361Y-104307625D01*
X170186361Y-104802863D01*
X170092386Y-106189851D02*
X170092386Y-106570803D01*
X169863815Y-106113660D02*
X170663815Y-106380327D01*
X169863815Y-106646994D01*
X170663815Y-106837470D02*
X170663815Y-107332708D01*
X170359053Y-107066041D01*
X170359053Y-107180327D01*
X170320958Y-107256518D01*
X170282862Y-107294613D01*
X170206672Y-107332708D01*
X170016196Y-107332708D01*
X169940005Y-107294613D01*
X169901910Y-107256518D01*
X169863815Y-107180327D01*
X169863815Y-106951756D01*
X169901910Y-106875565D01*
X169940005Y-106837470D01*
X170092386Y-108729851D02*
X170092386Y-109110803D01*
X169863815Y-108653660D02*
X170663815Y-108920327D01*
X169863815Y-109186994D01*
X170587624Y-109415565D02*
X170625720Y-109453660D01*
X170663815Y-109529851D01*
X170663815Y-109720327D01*
X170625720Y-109796518D01*
X170587624Y-109834613D01*
X170511434Y-109872708D01*
X170435243Y-109872708D01*
X170320958Y-109834613D01*
X169863815Y-109377470D01*
X169863815Y-109872708D01*
X170064446Y-111234291D02*
X170064446Y-111615243D01*
X169835875Y-111158100D02*
X170635875Y-111424767D01*
X169835875Y-111691434D01*
X169835875Y-112377148D02*
X169835875Y-111920005D01*
X169835875Y-112148577D02*
X170635875Y-112148577D01*
X170521589Y-112072386D01*
X170445399Y-111996196D01*
X170407303Y-111920005D01*
X170092386Y-113797151D02*
X170092386Y-114178103D01*
X169863815Y-113720960D02*
X170663815Y-113987627D01*
X169863815Y-114254294D01*
X170663815Y-114673341D02*
X170663815Y-114749532D01*
X170625720Y-114825722D01*
X170587624Y-114863818D01*
X170511434Y-114901913D01*
X170359053Y-114940008D01*
X170168577Y-114940008D01*
X170016196Y-114901913D01*
X169940005Y-114863818D01*
X169901910Y-114825722D01*
X169863815Y-114749532D01*
X169863815Y-114673341D01*
X169901910Y-114597151D01*
X169940005Y-114559056D01*
X170016196Y-114520960D01*
X170168577Y-114482865D01*
X170359053Y-114482865D01*
X170511434Y-114520960D01*
X170587624Y-114559056D01*
X170625720Y-114597151D01*
X170663815Y-114673341D01*
X169835875Y-117148579D02*
X170216827Y-116881912D01*
X169835875Y-116691436D02*
X170635875Y-116691436D01*
X170635875Y-116996198D01*
X170597780Y-117072388D01*
X170559684Y-117110483D01*
X170483494Y-117148579D01*
X170369208Y-117148579D01*
X170293018Y-117110483D01*
X170254922Y-117072388D01*
X170216827Y-116996198D01*
X170216827Y-116691436D01*
X169912065Y-118891114D02*
X169873970Y-118853019D01*
X169835875Y-118738733D01*
X169835875Y-118662542D01*
X169873970Y-118548257D01*
X169950160Y-118472066D01*
X170026351Y-118433971D01*
X170178732Y-118395876D01*
X170293018Y-118395876D01*
X170445399Y-118433971D01*
X170521589Y-118472066D01*
X170597780Y-118548257D01*
X170635875Y-118662542D01*
X170635875Y-118738733D01*
X170597780Y-118853019D01*
X170559684Y-118891114D01*
X169835875Y-119653019D02*
X169835875Y-119195876D01*
X169835875Y-119424447D02*
X170635875Y-119424447D01*
X170521589Y-119348257D01*
X170445399Y-119272066D01*
X170407303Y-119195876D01*
X170635875Y-120376828D02*
X170635875Y-119995876D01*
X170254922Y-119957780D01*
X170293018Y-119995876D01*
X170331113Y-120072066D01*
X170331113Y-120262542D01*
X170293018Y-120338733D01*
X170254922Y-120376828D01*
X170178732Y-120414923D01*
X169988256Y-120414923D01*
X169912065Y-120376828D01*
X169873970Y-120338733D01*
X169835875Y-120262542D01*
X169835875Y-120072066D01*
X169873970Y-119995876D01*
X169912065Y-119957780D01*
X169967945Y-121451434D02*
X169929850Y-121413339D01*
X169891755Y-121299053D01*
X169891755Y-121222862D01*
X169929850Y-121108577D01*
X170006040Y-121032386D01*
X170082231Y-120994291D01*
X170234612Y-120956196D01*
X170348898Y-120956196D01*
X170501279Y-120994291D01*
X170577469Y-121032386D01*
X170653660Y-121108577D01*
X170691755Y-121222862D01*
X170691755Y-121299053D01*
X170653660Y-121413339D01*
X170615564Y-121451434D01*
X169891755Y-122213339D02*
X169891755Y-121756196D01*
X169891755Y-121984767D02*
X170691755Y-121984767D01*
X170577469Y-121908577D01*
X170501279Y-121832386D01*
X170463183Y-121756196D01*
X170425088Y-122899053D02*
X169891755Y-122899053D01*
X170729850Y-122708577D02*
X170158421Y-122518100D01*
X170158421Y-123013339D01*
X169967945Y-123955874D02*
X169929850Y-123917779D01*
X169891755Y-123803493D01*
X169891755Y-123727302D01*
X169929850Y-123613017D01*
X170006040Y-123536826D01*
X170082231Y-123498731D01*
X170234612Y-123460636D01*
X170348898Y-123460636D01*
X170501279Y-123498731D01*
X170577469Y-123536826D01*
X170653660Y-123613017D01*
X170691755Y-123727302D01*
X170691755Y-123803493D01*
X170653660Y-123917779D01*
X170615564Y-123955874D01*
X169891755Y-124717779D02*
X169891755Y-124260636D01*
X169891755Y-124489207D02*
X170691755Y-124489207D01*
X170577469Y-124413017D01*
X170501279Y-124336826D01*
X170463183Y-124260636D01*
X170691755Y-124984445D02*
X170691755Y-125479683D01*
X170386993Y-125213017D01*
X170386993Y-125327302D01*
X170348898Y-125403493D01*
X170310802Y-125441588D01*
X170234612Y-125479683D01*
X170044136Y-125479683D01*
X169967945Y-125441588D01*
X169929850Y-125403493D01*
X169891755Y-125327302D01*
X169891755Y-125098731D01*
X169929850Y-125022540D01*
X169967945Y-124984445D01*
X170691755Y-126394293D02*
X169891755Y-126660960D01*
X170691755Y-126927626D01*
X170310802Y-127460960D02*
X170272707Y-127575245D01*
X170234612Y-127613340D01*
X170158421Y-127651436D01*
X170044136Y-127651436D01*
X169967945Y-127613340D01*
X169929850Y-127575245D01*
X169891755Y-127499055D01*
X169891755Y-127194293D01*
X170691755Y-127194293D01*
X170691755Y-127460960D01*
X170653660Y-127537150D01*
X170615564Y-127575245D01*
X170539374Y-127613340D01*
X170463183Y-127613340D01*
X170386993Y-127575245D01*
X170348898Y-127537150D01*
X170310802Y-127460960D01*
X170310802Y-127194293D01*
X150018695Y-126070483D02*
X150018695Y-126565721D01*
X149713933Y-126299055D01*
X149713933Y-126413340D01*
X149675838Y-126489531D01*
X149637742Y-126527626D01*
X149561552Y-126565721D01*
X149371076Y-126565721D01*
X149294885Y-126527626D01*
X149256790Y-126489531D01*
X149218695Y-126413340D01*
X149218695Y-126184769D01*
X149256790Y-126108579D01*
X149294885Y-126070483D01*
X150018695Y-126794293D02*
X149218695Y-127060960D01*
X150018695Y-127327626D01*
X150018695Y-127518102D02*
X150018695Y-128013340D01*
X149713933Y-127746674D01*
X149713933Y-127860960D01*
X149675838Y-127937150D01*
X149637742Y-127975245D01*
X149561552Y-128013340D01*
X149371076Y-128013340D01*
X149294885Y-127975245D01*
X149256790Y-127937150D01*
X149218695Y-127860960D01*
X149218695Y-127632388D01*
X149256790Y-127556198D01*
X149294885Y-127518102D01*
X150064420Y-124694923D02*
X150102515Y-124618733D01*
X150102515Y-124504447D01*
X150064420Y-124390161D01*
X149988229Y-124313971D01*
X149912039Y-124275876D01*
X149759658Y-124237780D01*
X149645372Y-124237780D01*
X149492991Y-124275876D01*
X149416800Y-124313971D01*
X149340610Y-124390161D01*
X149302515Y-124504447D01*
X149302515Y-124580638D01*
X149340610Y-124694923D01*
X149378705Y-124733019D01*
X149645372Y-124733019D01*
X149645372Y-124580638D01*
X150074575Y-121820959D02*
X150074575Y-121440006D01*
X149693622Y-121401911D01*
X149731718Y-121440006D01*
X149769813Y-121516197D01*
X149769813Y-121706673D01*
X149731718Y-121782863D01*
X149693622Y-121820959D01*
X149617432Y-121859054D01*
X149426956Y-121859054D01*
X149350765Y-121820959D01*
X149312670Y-121782863D01*
X149274575Y-121706673D01*
X149274575Y-121516197D01*
X149312670Y-121440006D01*
X149350765Y-121401911D01*
X150074575Y-122087625D02*
X149274575Y-122354292D01*
X150074575Y-122620959D01*
X149721562Y-119122230D02*
X149683467Y-119236516D01*
X149645372Y-119274611D01*
X149569181Y-119312706D01*
X149454896Y-119312706D01*
X149378705Y-119274611D01*
X149340610Y-119236516D01*
X149302515Y-119160325D01*
X149302515Y-118855563D01*
X150102515Y-118855563D01*
X150102515Y-119122230D01*
X150064420Y-119198420D01*
X150026324Y-119236516D01*
X149950134Y-119274611D01*
X149873943Y-119274611D01*
X149797753Y-119236516D01*
X149759658Y-119198420D01*
X149721562Y-119122230D01*
X149721562Y-118855563D01*
X149302515Y-119693659D02*
X149302515Y-119846040D01*
X149340610Y-119922230D01*
X149378705Y-119960325D01*
X149492991Y-120036516D01*
X149645372Y-120074611D01*
X149950134Y-120074611D01*
X150026324Y-120036516D01*
X150064420Y-119998420D01*
X150102515Y-119922230D01*
X150102515Y-119769849D01*
X150064420Y-119693659D01*
X150026324Y-119655563D01*
X149950134Y-119617468D01*
X149759658Y-119617468D01*
X149683467Y-119655563D01*
X149645372Y-119693659D01*
X149607277Y-119769849D01*
X149607277Y-119922230D01*
X149645372Y-119998420D01*
X149683467Y-120036516D01*
X149759658Y-120074611D01*
X149721562Y-116561910D02*
X149683467Y-116676196D01*
X149645372Y-116714291D01*
X149569181Y-116752386D01*
X149454896Y-116752386D01*
X149378705Y-116714291D01*
X149340610Y-116676196D01*
X149302515Y-116600005D01*
X149302515Y-116295243D01*
X150102515Y-116295243D01*
X150102515Y-116561910D01*
X150064420Y-116638100D01*
X150026324Y-116676196D01*
X149950134Y-116714291D01*
X149873943Y-116714291D01*
X149797753Y-116676196D01*
X149759658Y-116638100D01*
X149721562Y-116561910D01*
X149721562Y-116295243D01*
X149759658Y-117209529D02*
X149797753Y-117133339D01*
X149835848Y-117095243D01*
X149912039Y-117057148D01*
X149950134Y-117057148D01*
X150026324Y-117095243D01*
X150064420Y-117133339D01*
X150102515Y-117209529D01*
X150102515Y-117361910D01*
X150064420Y-117438100D01*
X150026324Y-117476196D01*
X149950134Y-117514291D01*
X149912039Y-117514291D01*
X149835848Y-117476196D01*
X149797753Y-117438100D01*
X149759658Y-117361910D01*
X149759658Y-117209529D01*
X149721562Y-117133339D01*
X149683467Y-117095243D01*
X149607277Y-117057148D01*
X149454896Y-117057148D01*
X149378705Y-117095243D01*
X149340610Y-117133339D01*
X149302515Y-117209529D01*
X149302515Y-117361910D01*
X149340610Y-117438100D01*
X149378705Y-117476196D01*
X149454896Y-117514291D01*
X149607277Y-117514291D01*
X149683467Y-117476196D01*
X149721562Y-117438100D01*
X149759658Y-117361910D01*
X149721562Y-114037150D02*
X149683467Y-114151436D01*
X149645372Y-114189531D01*
X149569181Y-114227626D01*
X149454896Y-114227626D01*
X149378705Y-114189531D01*
X149340610Y-114151436D01*
X149302515Y-114075245D01*
X149302515Y-113770483D01*
X150102515Y-113770483D01*
X150102515Y-114037150D01*
X150064420Y-114113340D01*
X150026324Y-114151436D01*
X149950134Y-114189531D01*
X149873943Y-114189531D01*
X149797753Y-114151436D01*
X149759658Y-114113340D01*
X149721562Y-114037150D01*
X149721562Y-113770483D01*
X150102515Y-114494293D02*
X150102515Y-115027626D01*
X149302515Y-114684769D01*
X149693622Y-111474290D02*
X149655527Y-111588576D01*
X149617432Y-111626671D01*
X149541241Y-111664766D01*
X149426956Y-111664766D01*
X149350765Y-111626671D01*
X149312670Y-111588576D01*
X149274575Y-111512385D01*
X149274575Y-111207623D01*
X150074575Y-111207623D01*
X150074575Y-111474290D01*
X150036480Y-111550480D01*
X149998384Y-111588576D01*
X149922194Y-111626671D01*
X149846003Y-111626671D01*
X149769813Y-111588576D01*
X149731718Y-111550480D01*
X149693622Y-111474290D01*
X149693622Y-111207623D01*
X150074575Y-112350480D02*
X150074575Y-112198100D01*
X150036480Y-112121909D01*
X149998384Y-112083814D01*
X149884099Y-112007623D01*
X149731718Y-111969528D01*
X149426956Y-111969528D01*
X149350765Y-112007623D01*
X149312670Y-112045719D01*
X149274575Y-112121909D01*
X149274575Y-112274290D01*
X149312670Y-112350480D01*
X149350765Y-112388576D01*
X149426956Y-112426671D01*
X149617432Y-112426671D01*
X149693622Y-112388576D01*
X149731718Y-112350480D01*
X149769813Y-112274290D01*
X149769813Y-112121909D01*
X149731718Y-112045719D01*
X149693622Y-112007623D01*
X149617432Y-111969528D01*
X149749502Y-108931750D02*
X149711407Y-109046036D01*
X149673312Y-109084131D01*
X149597121Y-109122226D01*
X149482836Y-109122226D01*
X149406645Y-109084131D01*
X149368550Y-109046036D01*
X149330455Y-108969845D01*
X149330455Y-108665083D01*
X150130455Y-108665083D01*
X150130455Y-108931750D01*
X150092360Y-109007940D01*
X150054264Y-109046036D01*
X149978074Y-109084131D01*
X149901883Y-109084131D01*
X149825693Y-109046036D01*
X149787598Y-109007940D01*
X149749502Y-108931750D01*
X149749502Y-108665083D01*
X150130455Y-109846036D02*
X150130455Y-109465083D01*
X149749502Y-109426988D01*
X149787598Y-109465083D01*
X149825693Y-109541274D01*
X149825693Y-109731750D01*
X149787598Y-109807940D01*
X149749502Y-109846036D01*
X149673312Y-109884131D01*
X149482836Y-109884131D01*
X149406645Y-109846036D01*
X149368550Y-109807940D01*
X149330455Y-109731750D01*
X149330455Y-109541274D01*
X149368550Y-109465083D01*
X149406645Y-109426988D01*
X149825702Y-106406990D02*
X149787607Y-106521276D01*
X149749512Y-106559371D01*
X149673321Y-106597466D01*
X149559036Y-106597466D01*
X149482845Y-106559371D01*
X149444750Y-106521276D01*
X149406655Y-106445085D01*
X149406655Y-106140323D01*
X150206655Y-106140323D01*
X150206655Y-106406990D01*
X150168560Y-106483180D01*
X150130464Y-106521276D01*
X150054274Y-106559371D01*
X149978083Y-106559371D01*
X149901893Y-106521276D01*
X149863798Y-106483180D01*
X149825702Y-106406990D01*
X149825702Y-106140323D01*
X149939988Y-107283180D02*
X149406655Y-107283180D01*
X150244750Y-107092704D02*
X149673321Y-106902228D01*
X149673321Y-107397466D01*
X149767282Y-103907630D02*
X149729187Y-104021916D01*
X149691092Y-104060011D01*
X149614901Y-104098106D01*
X149500616Y-104098106D01*
X149424425Y-104060011D01*
X149386330Y-104021916D01*
X149348235Y-103945725D01*
X149348235Y-103640963D01*
X150148235Y-103640963D01*
X150148235Y-103907630D01*
X150110140Y-103983820D01*
X150072044Y-104021916D01*
X149995854Y-104060011D01*
X149919663Y-104060011D01*
X149843473Y-104021916D01*
X149805378Y-103983820D01*
X149767282Y-103907630D01*
X149767282Y-103640963D01*
X150148235Y-104364773D02*
X150148235Y-104860011D01*
X149843473Y-104593344D01*
X149843473Y-104707630D01*
X149805378Y-104783820D01*
X149767282Y-104821916D01*
X149691092Y-104860011D01*
X149500616Y-104860011D01*
X149424425Y-104821916D01*
X149386330Y-104783820D01*
X149348235Y-104707630D01*
X149348235Y-104479059D01*
X149386330Y-104402868D01*
X149424425Y-104364773D01*
X149559026Y-100726359D02*
X149559026Y-101107311D01*
X149330455Y-100650168D02*
X150130455Y-100916835D01*
X149330455Y-101183501D01*
X149330455Y-101869216D02*
X149330455Y-101412073D01*
X149330455Y-101640644D02*
X150130455Y-101640644D01*
X150016169Y-101564454D01*
X149939979Y-101488263D01*
X149901883Y-101412073D01*
X150130455Y-102593025D02*
X150130455Y-102212073D01*
X149749502Y-102173978D01*
X149787598Y-102212073D01*
X149825693Y-102288263D01*
X149825693Y-102478740D01*
X149787598Y-102554930D01*
X149749502Y-102593025D01*
X149673312Y-102631120D01*
X149482836Y-102631120D01*
X149406645Y-102593025D01*
X149368550Y-102554930D01*
X149330455Y-102478740D01*
X149330455Y-102288263D01*
X149368550Y-102212073D01*
X149406645Y-102173978D01*
X149617446Y-98138099D02*
X149617446Y-98519051D01*
X149388875Y-98061908D02*
X150188875Y-98328575D01*
X149388875Y-98595241D01*
X149388875Y-99280956D02*
X149388875Y-98823813D01*
X149388875Y-99052384D02*
X150188875Y-99052384D01*
X150074589Y-98976194D01*
X149998399Y-98900003D01*
X149960303Y-98823813D01*
X150112684Y-99585718D02*
X150150780Y-99623813D01*
X150188875Y-99700003D01*
X150188875Y-99890480D01*
X150150780Y-99966670D01*
X150112684Y-100004765D01*
X150036494Y-100042860D01*
X149960303Y-100042860D01*
X149846018Y-100004765D01*
X149388875Y-99547622D01*
X149388875Y-100042860D01*
X149663166Y-95638739D02*
X149663166Y-96019691D01*
X149434595Y-95562548D02*
X150234595Y-95829215D01*
X149434595Y-96095881D01*
X149434595Y-96781596D02*
X149434595Y-96324453D01*
X149434595Y-96553024D02*
X150234595Y-96553024D01*
X150120309Y-96476834D01*
X150044119Y-96400643D01*
X150006023Y-96324453D01*
X149434595Y-97543500D02*
X149434595Y-97086358D01*
X149434595Y-97314929D02*
X150234595Y-97314929D01*
X150120309Y-97238739D01*
X150044119Y-97162548D01*
X150006023Y-97086358D01*
X149673326Y-93070799D02*
X149673326Y-93451751D01*
X149444755Y-92994608D02*
X150244755Y-93261275D01*
X149444755Y-93527941D01*
X149444755Y-94213656D02*
X149444755Y-93756513D01*
X149444755Y-93985084D02*
X150244755Y-93985084D01*
X150130469Y-93908894D01*
X150054279Y-93832703D01*
X150016183Y-93756513D01*
X150244755Y-94708894D02*
X150244755Y-94785084D01*
X150206660Y-94861275D01*
X150168564Y-94899370D01*
X150092374Y-94937465D01*
X149939993Y-94975560D01*
X149749517Y-94975560D01*
X149597136Y-94937465D01*
X149520945Y-94899370D01*
X149482850Y-94861275D01*
X149444755Y-94785084D01*
X149444755Y-94708894D01*
X149482850Y-94632703D01*
X149520945Y-94594608D01*
X149597136Y-94556513D01*
X149749517Y-94518418D01*
X149939993Y-94518418D01*
X150092374Y-94556513D01*
X150168564Y-94594608D01*
X150206660Y-94632703D01*
X150244755Y-94708894D01*
X149719046Y-90878731D02*
X149719046Y-91259683D01*
X149490475Y-90802540D02*
X150290475Y-91069207D01*
X149490475Y-91335874D01*
X149490475Y-91640636D02*
X149490475Y-91793017D01*
X149528570Y-91869207D01*
X149566665Y-91907302D01*
X149680951Y-91983493D01*
X149833332Y-92021588D01*
X150138094Y-92021588D01*
X150214284Y-91983493D01*
X150252380Y-91945398D01*
X150290475Y-91869207D01*
X150290475Y-91716826D01*
X150252380Y-91640636D01*
X150214284Y-91602540D01*
X150138094Y-91564445D01*
X149947618Y-91564445D01*
X149871427Y-91602540D01*
X149833332Y-91640636D01*
X149795237Y-91716826D01*
X149795237Y-91869207D01*
X149833332Y-91945398D01*
X149871427Y-91983493D01*
X149947618Y-92021588D01*
X149719046Y-88364131D02*
X149719046Y-88745083D01*
X149490475Y-88287940D02*
X150290475Y-88554607D01*
X149490475Y-88821274D01*
X149947618Y-89202226D02*
X149985713Y-89126036D01*
X150023808Y-89087940D01*
X150099999Y-89049845D01*
X150138094Y-89049845D01*
X150214284Y-89087940D01*
X150252380Y-89126036D01*
X150290475Y-89202226D01*
X150290475Y-89354607D01*
X150252380Y-89430798D01*
X150214284Y-89468893D01*
X150138094Y-89506988D01*
X150099999Y-89506988D01*
X150023808Y-89468893D01*
X149985713Y-89430798D01*
X149947618Y-89354607D01*
X149947618Y-89202226D01*
X149909522Y-89126036D01*
X149871427Y-89087940D01*
X149795237Y-89049845D01*
X149642856Y-89049845D01*
X149566665Y-89087940D01*
X149528570Y-89126036D01*
X149490475Y-89202226D01*
X149490475Y-89354607D01*
X149528570Y-89430798D01*
X149566665Y-89468893D01*
X149642856Y-89506988D01*
X149795237Y-89506988D01*
X149871427Y-89468893D01*
X149909522Y-89430798D01*
X149947618Y-89354607D01*
X149853642Y-85622218D02*
X149815547Y-85736503D01*
X149777452Y-85774599D01*
X149701261Y-85812694D01*
X149586976Y-85812694D01*
X149510785Y-85774599D01*
X149472690Y-85736503D01*
X149434595Y-85660313D01*
X149434595Y-85355551D01*
X150234595Y-85355551D01*
X150234595Y-85622218D01*
X150196500Y-85698408D01*
X150158404Y-85736503D01*
X150082214Y-85774599D01*
X150006023Y-85774599D01*
X149929833Y-85736503D01*
X149891738Y-85698408D01*
X149853642Y-85622218D01*
X149853642Y-85355551D01*
X149434595Y-86574599D02*
X149434595Y-86117456D01*
X149434595Y-86346027D02*
X150234595Y-86346027D01*
X150120309Y-86269837D01*
X150044119Y-86193646D01*
X150006023Y-86117456D01*
X150234595Y-87298408D02*
X150234595Y-86917456D01*
X149853642Y-86879360D01*
X149891738Y-86917456D01*
X149929833Y-86993646D01*
X149929833Y-87184122D01*
X149891738Y-87260313D01*
X149853642Y-87298408D01*
X149777452Y-87336503D01*
X149586976Y-87336503D01*
X149510785Y-87298408D01*
X149472690Y-87260313D01*
X149434595Y-87184122D01*
X149434595Y-86993646D01*
X149472690Y-86917456D01*
X149510785Y-86879360D01*
X149853642Y-83173658D02*
X149815547Y-83287943D01*
X149777452Y-83326039D01*
X149701261Y-83364134D01*
X149586976Y-83364134D01*
X149510785Y-83326039D01*
X149472690Y-83287943D01*
X149434595Y-83211753D01*
X149434595Y-82906991D01*
X150234595Y-82906991D01*
X150234595Y-83173658D01*
X150196500Y-83249848D01*
X150158404Y-83287943D01*
X150082214Y-83326039D01*
X150006023Y-83326039D01*
X149929833Y-83287943D01*
X149891738Y-83249848D01*
X149853642Y-83173658D01*
X149853642Y-82906991D01*
X149434595Y-84126039D02*
X149434595Y-83668896D01*
X149434595Y-83897467D02*
X150234595Y-83897467D01*
X150120309Y-83821277D01*
X150044119Y-83745086D01*
X150006023Y-83668896D01*
X149967928Y-84811753D02*
X149434595Y-84811753D01*
X150272690Y-84621277D02*
X149701261Y-84430800D01*
X149701261Y-84926039D01*
X149825702Y-80641278D02*
X149787607Y-80755563D01*
X149749512Y-80793659D01*
X149673321Y-80831754D01*
X149559036Y-80831754D01*
X149482845Y-80793659D01*
X149444750Y-80755563D01*
X149406655Y-80679373D01*
X149406655Y-80374611D01*
X150206655Y-80374611D01*
X150206655Y-80641278D01*
X150168560Y-80717468D01*
X150130464Y-80755563D01*
X150054274Y-80793659D01*
X149978083Y-80793659D01*
X149901893Y-80755563D01*
X149863798Y-80717468D01*
X149825702Y-80641278D01*
X149825702Y-80374611D01*
X149406655Y-81593659D02*
X149406655Y-81136516D01*
X149406655Y-81365087D02*
X150206655Y-81365087D01*
X150092369Y-81288897D01*
X150016179Y-81212706D01*
X149978083Y-81136516D01*
X150206655Y-81860325D02*
X150206655Y-82355563D01*
X149901893Y-82088897D01*
X149901893Y-82203182D01*
X149863798Y-82279373D01*
X149825702Y-82317468D01*
X149749512Y-82355563D01*
X149559036Y-82355563D01*
X149482845Y-82317468D01*
X149444750Y-82279373D01*
X149406655Y-82203182D01*
X149406655Y-81974611D01*
X149444750Y-81898420D01*
X149482845Y-81860325D01*
X149833322Y-78190178D02*
X149795227Y-78304463D01*
X149757132Y-78342559D01*
X149680941Y-78380654D01*
X149566656Y-78380654D01*
X149490465Y-78342559D01*
X149452370Y-78304463D01*
X149414275Y-78228273D01*
X149414275Y-77923511D01*
X150214275Y-77923511D01*
X150214275Y-78190178D01*
X150176180Y-78266368D01*
X150138084Y-78304463D01*
X150061894Y-78342559D01*
X149985703Y-78342559D01*
X149909513Y-78304463D01*
X149871418Y-78266368D01*
X149833322Y-78190178D01*
X149833322Y-77923511D01*
X149414275Y-79142559D02*
X149414275Y-78685416D01*
X149414275Y-78913987D02*
X150214275Y-78913987D01*
X150099989Y-78837797D01*
X150023799Y-78761606D01*
X149985703Y-78685416D01*
X150138084Y-79447320D02*
X150176180Y-79485416D01*
X150214275Y-79561606D01*
X150214275Y-79752082D01*
X150176180Y-79828273D01*
X150138084Y-79866368D01*
X150061894Y-79904463D01*
X149985703Y-79904463D01*
X149871418Y-79866368D01*
X149414275Y-79409225D01*
X149414275Y-79904463D01*
D15*
X156931428Y-115417942D02*
X156931428Y-114517942D01*
X157445714Y-115417942D02*
X157060000Y-114903657D01*
X157445714Y-114517942D02*
X156931428Y-115032228D01*
X157831428Y-114946514D02*
X158131428Y-114946514D01*
X158260000Y-115417942D02*
X157831428Y-115417942D01*
X157831428Y-114517942D01*
X158260000Y-114517942D01*
X158817142Y-114989371D02*
X158817142Y-115417942D01*
X158517142Y-114517942D02*
X158817142Y-114989371D01*
X159117142Y-114517942D01*
X164286457Y-91086648D02*
X165186457Y-91086648D01*
X164286457Y-91600934D01*
X165186457Y-91600934D01*
X164286457Y-92543791D02*
X164715028Y-92243791D01*
X164286457Y-92029505D02*
X165186457Y-92029505D01*
X165186457Y-92372362D01*
X165143600Y-92458077D01*
X165100742Y-92500934D01*
X165015028Y-92543791D01*
X164886457Y-92543791D01*
X164800742Y-92500934D01*
X164757885Y-92458077D01*
X164715028Y-92372362D01*
X164715028Y-92029505D01*
X164329314Y-92886648D02*
X164286457Y-93015220D01*
X164286457Y-93229505D01*
X164329314Y-93315220D01*
X164372171Y-93358077D01*
X164457885Y-93400934D01*
X164543600Y-93400934D01*
X164629314Y-93358077D01*
X164672171Y-93315220D01*
X164715028Y-93229505D01*
X164757885Y-93058077D01*
X164800742Y-92972362D01*
X164843600Y-92929505D01*
X164929314Y-92886648D01*
X165015028Y-92886648D01*
X165100742Y-92929505D01*
X165143600Y-92972362D01*
X165186457Y-93058077D01*
X165186457Y-93272362D01*
X165143600Y-93400934D01*
X165186457Y-93658077D02*
X165186457Y-94172362D01*
X164286457Y-93915220D02*
X165186457Y-93915220D01*
X155070325Y-91209860D02*
X155027468Y-91338431D01*
X154984611Y-91381288D01*
X154898897Y-91424145D01*
X154770325Y-91424145D01*
X154684611Y-91381288D01*
X154641754Y-91338431D01*
X154598897Y-91252717D01*
X154598897Y-90909860D01*
X155498897Y-90909860D01*
X155498897Y-91209860D01*
X155456040Y-91295574D01*
X155413182Y-91338431D01*
X155327468Y-91381288D01*
X155241754Y-91381288D01*
X155156040Y-91338431D01*
X155113182Y-91295574D01*
X155070325Y-91209860D01*
X155070325Y-90909860D01*
X155498897Y-91981288D02*
X155498897Y-92152717D01*
X155456040Y-92238431D01*
X155370325Y-92324145D01*
X155198897Y-92367002D01*
X154898897Y-92367002D01*
X154727468Y-92324145D01*
X154641754Y-92238431D01*
X154598897Y-92152717D01*
X154598897Y-91981288D01*
X154641754Y-91895574D01*
X154727468Y-91809860D01*
X154898897Y-91767002D01*
X155198897Y-91767002D01*
X155370325Y-91809860D01*
X155456040Y-91895574D01*
X155498897Y-91981288D01*
X155498897Y-92924145D02*
X155498897Y-93095574D01*
X155456040Y-93181288D01*
X155370325Y-93267002D01*
X155198897Y-93309860D01*
X154898897Y-93309860D01*
X154727468Y-93267002D01*
X154641754Y-93181288D01*
X154598897Y-93095574D01*
X154598897Y-92924145D01*
X154641754Y-92838431D01*
X154727468Y-92752717D01*
X154898897Y-92709860D01*
X155198897Y-92709860D01*
X155370325Y-92752717D01*
X155456040Y-92838431D01*
X155498897Y-92924145D01*
X155498897Y-93567002D02*
X155498897Y-94081288D01*
X154598897Y-93824145D02*
X155498897Y-93824145D01*
X155498897Y-94552717D02*
X155498897Y-94638431D01*
X155456040Y-94724145D01*
X155413182Y-94767002D01*
X155327468Y-94809860D01*
X155156040Y-94852717D01*
X154941754Y-94852717D01*
X154770325Y-94809860D01*
X154684611Y-94767002D01*
X154641754Y-94724145D01*
X154598897Y-94638431D01*
X154598897Y-94552717D01*
X154641754Y-94467002D01*
X154684611Y-94424145D01*
X154770325Y-94381288D01*
X154941754Y-94338431D01*
X155156040Y-94338431D01*
X155327468Y-94381288D01*
X155413182Y-94424145D01*
X155456040Y-94467002D01*
X155498897Y-94552717D01*
D11*
X165522200Y-126555614D02*
X165579342Y-126441328D01*
X165579342Y-126269900D01*
X165522200Y-126098471D01*
X165407914Y-125984185D01*
X165293628Y-125927042D01*
X165065057Y-125869900D01*
X164893628Y-125869900D01*
X164665057Y-125927042D01*
X164550771Y-125984185D01*
X164436485Y-126098471D01*
X164379342Y-126269900D01*
X164379342Y-126384185D01*
X164436485Y-126555614D01*
X164493628Y-126612757D01*
X164893628Y-126612757D01*
X164893628Y-126384185D01*
X164379342Y-127127042D02*
X165579342Y-127127042D01*
X164379342Y-127812757D01*
X165579342Y-127812757D01*
X164379342Y-128384185D02*
X165579342Y-128384185D01*
X165579342Y-128669900D01*
X165522200Y-128841328D01*
X165407914Y-128955614D01*
X165293628Y-129012757D01*
X165065057Y-129069900D01*
X164893628Y-129069900D01*
X164665057Y-129012757D01*
X164550771Y-128955614D01*
X164436485Y-128841328D01*
X164379342Y-128669900D01*
X164379342Y-128384185D01*
X162084445Y-125868622D02*
X162027302Y-126040051D01*
X162027302Y-126325765D01*
X162084445Y-126440051D01*
X162141588Y-126497194D01*
X162255874Y-126554337D01*
X162370160Y-126554337D01*
X162484445Y-126497194D01*
X162541588Y-126440051D01*
X162598731Y-126325765D01*
X162655874Y-126097194D01*
X162713017Y-125982908D01*
X162770160Y-125925765D01*
X162884445Y-125868622D01*
X162998731Y-125868622D01*
X163113017Y-125925765D01*
X163170160Y-125982908D01*
X163227302Y-126097194D01*
X163227302Y-126382908D01*
X163170160Y-126554337D01*
X162141588Y-127754337D02*
X162084445Y-127697194D01*
X162027302Y-127525765D01*
X162027302Y-127411480D01*
X162084445Y-127240051D01*
X162198731Y-127125765D01*
X162313017Y-127068622D01*
X162541588Y-127011480D01*
X162713017Y-127011480D01*
X162941588Y-127068622D01*
X163055874Y-127125765D01*
X163170160Y-127240051D01*
X163227302Y-127411480D01*
X163227302Y-127525765D01*
X163170160Y-127697194D01*
X163113017Y-127754337D01*
X162027302Y-128268622D02*
X163227302Y-128268622D01*
X162027302Y-128954337D02*
X162713017Y-128440051D01*
X163227302Y-128954337D02*
X162541588Y-128268622D01*
X159418722Y-126005108D02*
X160618722Y-126005108D01*
X160618722Y-126290822D01*
X160561580Y-126462251D01*
X160447294Y-126576537D01*
X160333008Y-126633680D01*
X160104437Y-126690822D01*
X159933008Y-126690822D01*
X159704437Y-126633680D01*
X159590151Y-126576537D01*
X159475865Y-126462251D01*
X159418722Y-126290822D01*
X159418722Y-126005108D01*
X159418722Y-127205108D02*
X160618722Y-127205108D01*
X160618722Y-128005108D02*
X160618722Y-128233680D01*
X160561580Y-128347965D01*
X160447294Y-128462251D01*
X160218722Y-128519394D01*
X159818722Y-128519394D01*
X159590151Y-128462251D01*
X159475865Y-128347965D01*
X159418722Y-128233680D01*
X159418722Y-128005108D01*
X159475865Y-127890822D01*
X159590151Y-127776537D01*
X159818722Y-127719394D01*
X160218722Y-127719394D01*
X160447294Y-127776537D01*
X160561580Y-127890822D01*
X160618722Y-128005108D01*
X158068562Y-125847025D02*
X158068562Y-126589882D01*
X157611420Y-126189882D01*
X157611420Y-126361311D01*
X157554277Y-126475597D01*
X157497134Y-126532740D01*
X157382848Y-126589882D01*
X157097134Y-126589882D01*
X156982848Y-126532740D01*
X156925705Y-126475597D01*
X156868562Y-126361311D01*
X156868562Y-126018454D01*
X156925705Y-125904168D01*
X156982848Y-125847025D01*
X158068562Y-126932740D02*
X156868562Y-127332740D01*
X158068562Y-127732740D01*
X158068562Y-128018454D02*
X158068562Y-128761311D01*
X157611420Y-128361311D01*
X157611420Y-128532740D01*
X157554277Y-128647025D01*
X157497134Y-128704168D01*
X157382848Y-128761311D01*
X157097134Y-128761311D01*
X156982848Y-128704168D01*
X156925705Y-128647025D01*
X156868562Y-128532740D01*
X156868562Y-128189882D01*
X156925705Y-128075597D01*
X156982848Y-128018454D01*
%TO.C,J1*%
X134286666Y-73322380D02*
X134286666Y-74036666D01*
X134239047Y-74179523D01*
X134143809Y-74274761D01*
X134000952Y-74322380D01*
X133905714Y-74322380D01*
X135286666Y-74322380D02*
X134715238Y-74322380D01*
X135000952Y-74322380D02*
X135000952Y-73322380D01*
X134905714Y-73465238D01*
X134810476Y-73560476D01*
X134715238Y-73608095D01*
%TO.C,J2*%
X173656666Y-76692380D02*
X173656666Y-77406666D01*
X173609047Y-77549523D01*
X173513809Y-77644761D01*
X173370952Y-77692380D01*
X173275714Y-77692380D01*
X174085238Y-76787619D02*
X174132857Y-76740000D01*
X174228095Y-76692380D01*
X174466190Y-76692380D01*
X174561428Y-76740000D01*
X174609047Y-76787619D01*
X174656666Y-76882857D01*
X174656666Y-76978095D01*
X174609047Y-77120952D01*
X174037619Y-77692380D01*
X174656666Y-77692380D01*
%TO.C,C5*%
X152248573Y-134339602D02*
X152200954Y-134387221D01*
X152058097Y-134434840D01*
X151962859Y-134434840D01*
X151820001Y-134387221D01*
X151724763Y-134291983D01*
X151677144Y-134196745D01*
X151629525Y-134006269D01*
X151629525Y-133863412D01*
X151677144Y-133672936D01*
X151724763Y-133577698D01*
X151820001Y-133482460D01*
X151962859Y-133434840D01*
X152058097Y-133434840D01*
X152200954Y-133482460D01*
X152248573Y-133530079D01*
X153153335Y-133434840D02*
X152677144Y-133434840D01*
X152629525Y-133911031D01*
X152677144Y-133863412D01*
X152772382Y-133815793D01*
X153010478Y-133815793D01*
X153105716Y-133863412D01*
X153153335Y-133911031D01*
X153200954Y-134006269D01*
X153200954Y-134244364D01*
X153153335Y-134339602D01*
X153105716Y-134387221D01*
X153010478Y-134434840D01*
X152772382Y-134434840D01*
X152677144Y-134387221D01*
X152629525Y-134339602D01*
%TO.C,C3*%
X136960313Y-134316742D02*
X136912694Y-134364361D01*
X136769837Y-134411980D01*
X136674599Y-134411980D01*
X136531741Y-134364361D01*
X136436503Y-134269123D01*
X136388884Y-134173885D01*
X136341265Y-133983409D01*
X136341265Y-133840552D01*
X136388884Y-133650076D01*
X136436503Y-133554838D01*
X136531741Y-133459600D01*
X136674599Y-133411980D01*
X136769837Y-133411980D01*
X136912694Y-133459600D01*
X136960313Y-133507219D01*
X137293646Y-133411980D02*
X137912694Y-133411980D01*
X137579360Y-133792933D01*
X137722218Y-133792933D01*
X137817456Y-133840552D01*
X137865075Y-133888171D01*
X137912694Y-133983409D01*
X137912694Y-134221504D01*
X137865075Y-134316742D01*
X137817456Y-134364361D01*
X137722218Y-134411980D01*
X137436503Y-134411980D01*
X137341265Y-134364361D01*
X137293646Y-134316742D01*
%TO.C,C2*%
X132408633Y-120529622D02*
X132361014Y-120577241D01*
X132218157Y-120624860D01*
X132122919Y-120624860D01*
X131980061Y-120577241D01*
X131884823Y-120482003D01*
X131837204Y-120386765D01*
X131789585Y-120196289D01*
X131789585Y-120053432D01*
X131837204Y-119862956D01*
X131884823Y-119767718D01*
X131980061Y-119672480D01*
X132122919Y-119624860D01*
X132218157Y-119624860D01*
X132361014Y-119672480D01*
X132408633Y-119720099D01*
X132789585Y-119720099D02*
X132837204Y-119672480D01*
X132932442Y-119624860D01*
X133170538Y-119624860D01*
X133265776Y-119672480D01*
X133313395Y-119720099D01*
X133361014Y-119815337D01*
X133361014Y-119910575D01*
X133313395Y-120053432D01*
X132741966Y-120624860D01*
X133361014Y-120624860D01*
%TO.C,C1*%
X137531813Y-119597442D02*
X137484194Y-119645061D01*
X137341337Y-119692680D01*
X137246099Y-119692680D01*
X137103241Y-119645061D01*
X137008003Y-119549823D01*
X136960384Y-119454585D01*
X136912765Y-119264109D01*
X136912765Y-119121252D01*
X136960384Y-118930776D01*
X137008003Y-118835538D01*
X137103241Y-118740300D01*
X137246099Y-118692680D01*
X137341337Y-118692680D01*
X137484194Y-118740300D01*
X137531813Y-118787919D01*
X138484194Y-119692680D02*
X137912765Y-119692680D01*
X138198480Y-119692680D02*
X138198480Y-118692680D01*
X138103241Y-118835538D01*
X138008003Y-118930776D01*
X137912765Y-118978395D01*
%TO.C,Q1*%
X141220201Y-110806479D02*
X141124963Y-110758860D01*
X141029725Y-110663621D01*
X140886868Y-110520764D01*
X140791630Y-110473145D01*
X140696392Y-110473145D01*
X140744011Y-110711240D02*
X140648773Y-110663621D01*
X140553535Y-110568383D01*
X140505916Y-110377907D01*
X140505916Y-110044574D01*
X140553535Y-109854098D01*
X140648773Y-109758860D01*
X140744011Y-109711240D01*
X140934487Y-109711240D01*
X141029725Y-109758860D01*
X141124963Y-109854098D01*
X141172582Y-110044574D01*
X141172582Y-110377907D01*
X141124963Y-110568383D01*
X141029725Y-110663621D01*
X140934487Y-110711240D01*
X140744011Y-110711240D01*
X142124963Y-110711240D02*
X141553535Y-110711240D01*
X141839249Y-110711240D02*
X141839249Y-109711240D01*
X141744011Y-109854098D01*
X141648773Y-109949336D01*
X141553535Y-109996955D01*
%TO.C,Q2*%
X147374621Y-124344679D02*
X147279383Y-124297060D01*
X147184145Y-124201821D01*
X147041288Y-124058964D01*
X146946050Y-124011345D01*
X146850812Y-124011345D01*
X146898431Y-124249440D02*
X146803193Y-124201821D01*
X146707955Y-124106583D01*
X146660336Y-123916107D01*
X146660336Y-123582774D01*
X146707955Y-123392298D01*
X146803193Y-123297060D01*
X146898431Y-123249440D01*
X147088907Y-123249440D01*
X147184145Y-123297060D01*
X147279383Y-123392298D01*
X147327002Y-123582774D01*
X147327002Y-123916107D01*
X147279383Y-124106583D01*
X147184145Y-124201821D01*
X147088907Y-124249440D01*
X146898431Y-124249440D01*
X147707955Y-123344679D02*
X147755574Y-123297060D01*
X147850812Y-123249440D01*
X148088907Y-123249440D01*
X148184145Y-123297060D01*
X148231764Y-123344679D01*
X148279383Y-123439917D01*
X148279383Y-123535155D01*
X148231764Y-123678012D01*
X147660336Y-124249440D01*
X148279383Y-124249440D01*
%TO.C,J3*%
X129925486Y-118814600D02*
X129925486Y-119528886D01*
X129877867Y-119671743D01*
X129782629Y-119766981D01*
X129639772Y-119814600D01*
X129544534Y-119814600D01*
X130306439Y-118814600D02*
X130925486Y-118814600D01*
X130592153Y-119195553D01*
X130735010Y-119195553D01*
X130830248Y-119243172D01*
X130877867Y-119290791D01*
X130925486Y-119386029D01*
X130925486Y-119624124D01*
X130877867Y-119719362D01*
X130830248Y-119766981D01*
X130735010Y-119814600D01*
X130449296Y-119814600D01*
X130354058Y-119766981D01*
X130306439Y-119719362D01*
%TO.C,R18*%
X138719322Y-129189740D02*
X138385989Y-128713550D01*
X138147894Y-129189740D02*
X138147894Y-128189740D01*
X138528846Y-128189740D01*
X138624084Y-128237360D01*
X138671703Y-128284979D01*
X138719322Y-128380217D01*
X138719322Y-128523074D01*
X138671703Y-128618312D01*
X138624084Y-128665931D01*
X138528846Y-128713550D01*
X138147894Y-128713550D01*
X139671703Y-129189740D02*
X139100275Y-129189740D01*
X139385989Y-129189740D02*
X139385989Y-128189740D01*
X139290751Y-128332598D01*
X139195513Y-128427836D01*
X139100275Y-128475455D01*
X140243132Y-128618312D02*
X140147894Y-128570693D01*
X140100275Y-128523074D01*
X140052656Y-128427836D01*
X140052656Y-128380217D01*
X140100275Y-128284979D01*
X140147894Y-128237360D01*
X140243132Y-128189740D01*
X140433608Y-128189740D01*
X140528846Y-128237360D01*
X140576465Y-128284979D01*
X140624084Y-128380217D01*
X140624084Y-128427836D01*
X140576465Y-128523074D01*
X140528846Y-128570693D01*
X140433608Y-128618312D01*
X140243132Y-128618312D01*
X140147894Y-128665931D01*
X140100275Y-128713550D01*
X140052656Y-128808788D01*
X140052656Y-128999264D01*
X140100275Y-129094502D01*
X140147894Y-129142121D01*
X140243132Y-129189740D01*
X140433608Y-129189740D01*
X140528846Y-129142121D01*
X140576465Y-129094502D01*
X140624084Y-128999264D01*
X140624084Y-128808788D01*
X140576465Y-128713550D01*
X140528846Y-128665931D01*
X140433608Y-128618312D01*
%TO.C,R17*%
X138620262Y-126705620D02*
X138286929Y-126229430D01*
X138048834Y-126705620D02*
X138048834Y-125705620D01*
X138429786Y-125705620D01*
X138525024Y-125753240D01*
X138572643Y-125800859D01*
X138620262Y-125896097D01*
X138620262Y-126038954D01*
X138572643Y-126134192D01*
X138525024Y-126181811D01*
X138429786Y-126229430D01*
X138048834Y-126229430D01*
X139572643Y-126705620D02*
X139001215Y-126705620D01*
X139286929Y-126705620D02*
X139286929Y-125705620D01*
X139191691Y-125848478D01*
X139096453Y-125943716D01*
X139001215Y-125991335D01*
X139905977Y-125705620D02*
X140572643Y-125705620D01*
X140144072Y-126705620D01*
%TO.C,R15*%
X146473942Y-121506240D02*
X146140609Y-121030050D01*
X145902514Y-121506240D02*
X145902514Y-120506240D01*
X146283466Y-120506240D01*
X146378704Y-120553860D01*
X146426323Y-120601479D01*
X146473942Y-120696717D01*
X146473942Y-120839574D01*
X146426323Y-120934812D01*
X146378704Y-120982431D01*
X146283466Y-121030050D01*
X145902514Y-121030050D01*
X147426323Y-121506240D02*
X146854895Y-121506240D01*
X147140609Y-121506240D02*
X147140609Y-120506240D01*
X147045371Y-120649098D01*
X146950133Y-120744336D01*
X146854895Y-120791955D01*
X148331085Y-120506240D02*
X147854895Y-120506240D01*
X147807276Y-120982431D01*
X147854895Y-120934812D01*
X147950133Y-120887193D01*
X148188228Y-120887193D01*
X148283466Y-120934812D01*
X148331085Y-120982431D01*
X148378704Y-121077669D01*
X148378704Y-121315764D01*
X148331085Y-121411002D01*
X148283466Y-121458621D01*
X148188228Y-121506240D01*
X147950133Y-121506240D01*
X147854895Y-121458621D01*
X147807276Y-121411002D01*
%TO.C,R14*%
X146237722Y-116441480D02*
X145904389Y-115965290D01*
X145666294Y-116441480D02*
X145666294Y-115441480D01*
X146047246Y-115441480D01*
X146142484Y-115489100D01*
X146190103Y-115536719D01*
X146237722Y-115631957D01*
X146237722Y-115774814D01*
X146190103Y-115870052D01*
X146142484Y-115917671D01*
X146047246Y-115965290D01*
X145666294Y-115965290D01*
X147190103Y-116441480D02*
X146618675Y-116441480D01*
X146904389Y-116441480D02*
X146904389Y-115441480D01*
X146809151Y-115584338D01*
X146713913Y-115679576D01*
X146618675Y-115727195D01*
X148047246Y-115774814D02*
X148047246Y-116441480D01*
X147809151Y-115393861D02*
X147571056Y-116108147D01*
X148190103Y-116108147D01*
%TO.C,R10*%
X146578082Y-100937320D02*
X146244749Y-100461130D01*
X146006654Y-100937320D02*
X146006654Y-99937320D01*
X146387606Y-99937320D01*
X146482844Y-99984940D01*
X146530463Y-100032559D01*
X146578082Y-100127797D01*
X146578082Y-100270654D01*
X146530463Y-100365892D01*
X146482844Y-100413511D01*
X146387606Y-100461130D01*
X146006654Y-100461130D01*
X147530463Y-100937320D02*
X146959035Y-100937320D01*
X147244749Y-100937320D02*
X147244749Y-99937320D01*
X147149511Y-100080178D01*
X147054273Y-100175416D01*
X146959035Y-100223035D01*
X148149511Y-99937320D02*
X148244749Y-99937320D01*
X148339987Y-99984940D01*
X148387606Y-100032559D01*
X148435225Y-100127797D01*
X148482844Y-100318273D01*
X148482844Y-100556368D01*
X148435225Y-100746844D01*
X148387606Y-100842082D01*
X148339987Y-100889701D01*
X148244749Y-100937320D01*
X148149511Y-100937320D01*
X148054273Y-100889701D01*
X148006654Y-100842082D01*
X147959035Y-100746844D01*
X147911416Y-100556368D01*
X147911416Y-100318273D01*
X147959035Y-100127797D01*
X148006654Y-100032559D01*
X148054273Y-99984940D01*
X148149511Y-99937320D01*
%TO.C,R16*%
X138620262Y-124224040D02*
X138286929Y-123747850D01*
X138048834Y-124224040D02*
X138048834Y-123224040D01*
X138429786Y-123224040D01*
X138525024Y-123271660D01*
X138572643Y-123319279D01*
X138620262Y-123414517D01*
X138620262Y-123557374D01*
X138572643Y-123652612D01*
X138525024Y-123700231D01*
X138429786Y-123747850D01*
X138048834Y-123747850D01*
X139572643Y-124224040D02*
X139001215Y-124224040D01*
X139286929Y-124224040D02*
X139286929Y-123224040D01*
X139191691Y-123366898D01*
X139096453Y-123462136D01*
X139001215Y-123509755D01*
X140429786Y-123224040D02*
X140239310Y-123224040D01*
X140144072Y-123271660D01*
X140096453Y-123319279D01*
X140001215Y-123462136D01*
X139953596Y-123652612D01*
X139953596Y-124033564D01*
X140001215Y-124128802D01*
X140048834Y-124176421D01*
X140144072Y-124224040D01*
X140334548Y-124224040D01*
X140429786Y-124176421D01*
X140477405Y-124128802D01*
X140525024Y-124033564D01*
X140525024Y-123795469D01*
X140477405Y-123700231D01*
X140429786Y-123652612D01*
X140334548Y-123604993D01*
X140144072Y-123604993D01*
X140048834Y-123652612D01*
X140001215Y-123700231D01*
X139953596Y-123795469D01*
%TO.C,R11*%
X146415522Y-103373180D02*
X146082189Y-102896990D01*
X145844094Y-103373180D02*
X145844094Y-102373180D01*
X146225046Y-102373180D01*
X146320284Y-102420800D01*
X146367903Y-102468419D01*
X146415522Y-102563657D01*
X146415522Y-102706514D01*
X146367903Y-102801752D01*
X146320284Y-102849371D01*
X146225046Y-102896990D01*
X145844094Y-102896990D01*
X147367903Y-103373180D02*
X146796475Y-103373180D01*
X147082189Y-103373180D02*
X147082189Y-102373180D01*
X146986951Y-102516038D01*
X146891713Y-102611276D01*
X146796475Y-102658895D01*
X148320284Y-103373180D02*
X147748856Y-103373180D01*
X148034570Y-103373180D02*
X148034570Y-102373180D01*
X147939332Y-102516038D01*
X147844094Y-102611276D01*
X147748856Y-102658895D01*
%TO.C,R9*%
X174582793Y-95527120D02*
X174249460Y-95050930D01*
X174011364Y-95527120D02*
X174011364Y-94527120D01*
X174392317Y-94527120D01*
X174487555Y-94574740D01*
X174535174Y-94622359D01*
X174582793Y-94717597D01*
X174582793Y-94860454D01*
X174535174Y-94955692D01*
X174487555Y-95003311D01*
X174392317Y-95050930D01*
X174011364Y-95050930D01*
X175058983Y-95527120D02*
X175249460Y-95527120D01*
X175344698Y-95479501D01*
X175392317Y-95431882D01*
X175487555Y-95289025D01*
X175535174Y-95098549D01*
X175535174Y-94717597D01*
X175487555Y-94622359D01*
X175439936Y-94574740D01*
X175344698Y-94527120D01*
X175154221Y-94527120D01*
X175058983Y-94574740D01*
X175011364Y-94622359D01*
X174963745Y-94717597D01*
X174963745Y-94955692D01*
X175011364Y-95050930D01*
X175058983Y-95098549D01*
X175154221Y-95146168D01*
X175344698Y-95146168D01*
X175439936Y-95098549D01*
X175487555Y-95050930D01*
X175535174Y-94955692D01*
%TO.C,R12*%
X146415522Y-106060500D02*
X146082189Y-105584310D01*
X145844094Y-106060500D02*
X145844094Y-105060500D01*
X146225046Y-105060500D01*
X146320284Y-105108120D01*
X146367903Y-105155739D01*
X146415522Y-105250977D01*
X146415522Y-105393834D01*
X146367903Y-105489072D01*
X146320284Y-105536691D01*
X146225046Y-105584310D01*
X145844094Y-105584310D01*
X147367903Y-106060500D02*
X146796475Y-106060500D01*
X147082189Y-106060500D02*
X147082189Y-105060500D01*
X146986951Y-105203358D01*
X146891713Y-105298596D01*
X146796475Y-105346215D01*
X147748856Y-105155739D02*
X147796475Y-105108120D01*
X147891713Y-105060500D01*
X148129808Y-105060500D01*
X148225046Y-105108120D01*
X148272665Y-105155739D01*
X148320284Y-105250977D01*
X148320284Y-105346215D01*
X148272665Y-105489072D01*
X147701237Y-106060500D01*
X148320284Y-106060500D01*
%TO.C,R13*%
X146296142Y-113888780D02*
X145962809Y-113412590D01*
X145724714Y-113888780D02*
X145724714Y-112888780D01*
X146105666Y-112888780D01*
X146200904Y-112936400D01*
X146248523Y-112984019D01*
X146296142Y-113079257D01*
X146296142Y-113222114D01*
X146248523Y-113317352D01*
X146200904Y-113364971D01*
X146105666Y-113412590D01*
X145724714Y-113412590D01*
X147248523Y-113888780D02*
X146677095Y-113888780D01*
X146962809Y-113888780D02*
X146962809Y-112888780D01*
X146867571Y-113031638D01*
X146772333Y-113126876D01*
X146677095Y-113174495D01*
X147581857Y-112888780D02*
X148200904Y-112888780D01*
X147867571Y-113269733D01*
X148010428Y-113269733D01*
X148105666Y-113317352D01*
X148153285Y-113364971D01*
X148200904Y-113460209D01*
X148200904Y-113698304D01*
X148153285Y-113793542D01*
X148105666Y-113841161D01*
X148010428Y-113888780D01*
X147724714Y-113888780D01*
X147629476Y-113841161D01*
X147581857Y-113793542D01*
%TO.C,R1*%
X147054273Y-78242420D02*
X146720940Y-77766230D01*
X146482844Y-78242420D02*
X146482844Y-77242420D01*
X146863797Y-77242420D01*
X146959035Y-77290040D01*
X147006654Y-77337659D01*
X147054273Y-77432897D01*
X147054273Y-77575754D01*
X147006654Y-77670992D01*
X146959035Y-77718611D01*
X146863797Y-77766230D01*
X146482844Y-77766230D01*
X148006654Y-78242420D02*
X147435225Y-78242420D01*
X147720940Y-78242420D02*
X147720940Y-77242420D01*
X147625701Y-77385278D01*
X147530463Y-77480516D01*
X147435225Y-77528135D01*
%TO.C,R2*%
X147094913Y-80815440D02*
X146761580Y-80339250D01*
X146523484Y-80815440D02*
X146523484Y-79815440D01*
X146904437Y-79815440D01*
X146999675Y-79863060D01*
X147047294Y-79910679D01*
X147094913Y-80005917D01*
X147094913Y-80148774D01*
X147047294Y-80244012D01*
X146999675Y-80291631D01*
X146904437Y-80339250D01*
X146523484Y-80339250D01*
X147475865Y-79910679D02*
X147523484Y-79863060D01*
X147618722Y-79815440D01*
X147856818Y-79815440D01*
X147952056Y-79863060D01*
X147999675Y-79910679D01*
X148047294Y-80005917D01*
X148047294Y-80101155D01*
X147999675Y-80244012D01*
X147428246Y-80815440D01*
X148047294Y-80815440D01*
%TO.C,R3*%
X147054273Y-83426560D02*
X146720940Y-82950370D01*
X146482844Y-83426560D02*
X146482844Y-82426560D01*
X146863797Y-82426560D01*
X146959035Y-82474180D01*
X147006654Y-82521799D01*
X147054273Y-82617037D01*
X147054273Y-82759894D01*
X147006654Y-82855132D01*
X146959035Y-82902751D01*
X146863797Y-82950370D01*
X146482844Y-82950370D01*
X147387606Y-82426560D02*
X148006654Y-82426560D01*
X147673320Y-82807513D01*
X147816178Y-82807513D01*
X147911416Y-82855132D01*
X147959035Y-82902751D01*
X148006654Y-82997989D01*
X148006654Y-83236084D01*
X147959035Y-83331322D01*
X147911416Y-83378941D01*
X147816178Y-83426560D01*
X147530463Y-83426560D01*
X147435225Y-83378941D01*
X147387606Y-83331322D01*
%TO.C,R4*%
X146970453Y-85915760D02*
X146637120Y-85439570D01*
X146399024Y-85915760D02*
X146399024Y-84915760D01*
X146779977Y-84915760D01*
X146875215Y-84963380D01*
X146922834Y-85010999D01*
X146970453Y-85106237D01*
X146970453Y-85249094D01*
X146922834Y-85344332D01*
X146875215Y-85391951D01*
X146779977Y-85439570D01*
X146399024Y-85439570D01*
X147827596Y-85249094D02*
X147827596Y-85915760D01*
X147589500Y-84868141D02*
X147351405Y-85582427D01*
X147970453Y-85582427D01*
%TO.C,R5*%
X147011093Y-88488780D02*
X146677760Y-88012590D01*
X146439664Y-88488780D02*
X146439664Y-87488780D01*
X146820617Y-87488780D01*
X146915855Y-87536400D01*
X146963474Y-87584019D01*
X147011093Y-87679257D01*
X147011093Y-87822114D01*
X146963474Y-87917352D01*
X146915855Y-87964971D01*
X146820617Y-88012590D01*
X146439664Y-88012590D01*
X147915855Y-87488780D02*
X147439664Y-87488780D01*
X147392045Y-87964971D01*
X147439664Y-87917352D01*
X147534902Y-87869733D01*
X147772998Y-87869733D01*
X147868236Y-87917352D01*
X147915855Y-87964971D01*
X147963474Y-88060209D01*
X147963474Y-88298304D01*
X147915855Y-88393542D01*
X147868236Y-88441161D01*
X147772998Y-88488780D01*
X147534902Y-88488780D01*
X147439664Y-88441161D01*
X147392045Y-88393542D01*
%TO.C,R6*%
X147054273Y-90934800D02*
X146720940Y-90458610D01*
X146482844Y-90934800D02*
X146482844Y-89934800D01*
X146863797Y-89934800D01*
X146959035Y-89982420D01*
X147006654Y-90030039D01*
X147054273Y-90125277D01*
X147054273Y-90268134D01*
X147006654Y-90363372D01*
X146959035Y-90410991D01*
X146863797Y-90458610D01*
X146482844Y-90458610D01*
X147911416Y-89934800D02*
X147720940Y-89934800D01*
X147625701Y-89982420D01*
X147578082Y-90030039D01*
X147482844Y-90172896D01*
X147435225Y-90363372D01*
X147435225Y-90744324D01*
X147482844Y-90839562D01*
X147530463Y-90887181D01*
X147625701Y-90934800D01*
X147816178Y-90934800D01*
X147911416Y-90887181D01*
X147959035Y-90839562D01*
X148006654Y-90744324D01*
X148006654Y-90506229D01*
X147959035Y-90410991D01*
X147911416Y-90363372D01*
X147816178Y-90315753D01*
X147625701Y-90315753D01*
X147530463Y-90363372D01*
X147482844Y-90410991D01*
X147435225Y-90506229D01*
%TO.C,R7*%
X147094913Y-93591640D02*
X146761580Y-93115450D01*
X146523484Y-93591640D02*
X146523484Y-92591640D01*
X146904437Y-92591640D01*
X146999675Y-92639260D01*
X147047294Y-92686879D01*
X147094913Y-92782117D01*
X147094913Y-92924974D01*
X147047294Y-93020212D01*
X146999675Y-93067831D01*
X146904437Y-93115450D01*
X146523484Y-93115450D01*
X147428246Y-92591640D02*
X148094913Y-92591640D01*
X147666341Y-93591640D01*
%TO.C,R8*%
X147054273Y-96083380D02*
X146720940Y-95607190D01*
X146482844Y-96083380D02*
X146482844Y-95083380D01*
X146863797Y-95083380D01*
X146959035Y-95131000D01*
X147006654Y-95178619D01*
X147054273Y-95273857D01*
X147054273Y-95416714D01*
X147006654Y-95511952D01*
X146959035Y-95559571D01*
X146863797Y-95607190D01*
X146482844Y-95607190D01*
X147625701Y-95511952D02*
X147530463Y-95464333D01*
X147482844Y-95416714D01*
X147435225Y-95321476D01*
X147435225Y-95273857D01*
X147482844Y-95178619D01*
X147530463Y-95131000D01*
X147625701Y-95083380D01*
X147816178Y-95083380D01*
X147911416Y-95131000D01*
X147959035Y-95178619D01*
X148006654Y-95273857D01*
X148006654Y-95321476D01*
X147959035Y-95416714D01*
X147911416Y-95464333D01*
X147816178Y-95511952D01*
X147625701Y-95511952D01*
X147530463Y-95559571D01*
X147482844Y-95607190D01*
X147435225Y-95702428D01*
X147435225Y-95892904D01*
X147482844Y-95988142D01*
X147530463Y-96035761D01*
X147625701Y-96083380D01*
X147816178Y-96083380D01*
X147911416Y-96035761D01*
X147959035Y-95988142D01*
X148006654Y-95892904D01*
X148006654Y-95702428D01*
X147959035Y-95607190D01*
X147911416Y-95559571D01*
X147816178Y-95511952D01*
%TD*%
M02*
