M48
; DRILL file {KiCad (5.1.6)-1} date 11/05/21 01:53:59
; FORMAT={-:-/ absolute / inch / decimal}
; #@! TF.CreationDate,2021-11-05T01:53:59-02:00
; #@! TF.GenerationSoftware,Kicad,Pcbnew,(5.1.6)-1
; #@! TF.FileFunction,Plated,1,2,PTH
FMAT,2
INCH
T1C0.0276
T2C0.0295
T3C0.0315
T4C0.0394
%
G90
G05
T1
X5.5Y-4.6
X5.8Y-4.6
X5.2Y-4.9
X5.5Y-4.9
X5.5Y-3.4
X5.8Y-3.4
X5.5Y-3.8
X5.8Y-3.8
X5.2Y-5.0
X5.5Y-5.0
X5.2Y-5.1
X5.5Y-5.1
X5.5Y-3.7
X5.8Y-3.7
X5.5Y-3.3
X5.8Y-3.3
X6.8Y-3.6
X6.8Y-3.9
X5.5Y-3.1
X5.8Y-3.1
X5.5Y-3.2
X5.8Y-3.2
X5.5Y-4.0
X5.8Y-4.0
X5.5Y-4.1
X5.8Y-4.1
X5.5Y-4.5
X5.8Y-4.5
X5.5Y-4.8
X5.8Y-4.8
X5.5Y-3.5
X5.8Y-3.5
X5.5Y-4.2
X5.8Y-4.2
X5.5Y-3.6
X5.8Y-3.6
T2
X5.65Y-4.35
X5.7Y-4.35
X5.75Y-4.35
X5.6505Y-4.95
X5.7005Y-4.95
X5.7505Y-4.95
T3
X5.5Y-4.7
X5.7Y-4.7
X5.65Y-5.15
X5.7484Y-5.15
X5.9Y-5.2
X6.1Y-5.2
X5.3Y-5.2
X5.5Y-5.2
X5.2Y-4.8
X5.4Y-4.8
T4
X6.85Y-3.15
X6.85Y-3.25
X6.85Y-3.35
X6.85Y-3.45
X5.25Y-3.0
X5.25Y-3.1
X5.25Y-3.2
X5.25Y-3.3
X5.25Y-3.4
X5.25Y-3.5
X5.25Y-3.6
X5.25Y-3.7
X5.25Y-3.8
X5.25Y-3.9
X5.25Y-4.0
X5.25Y-4.1
X5.25Y-4.2
X5.25Y-4.3
X5.25Y-4.4
X5.25Y-4.5
X5.25Y-4.6
X5.35Y-3.0
X5.35Y-3.1
X5.35Y-3.2
X5.35Y-3.3
X5.35Y-3.4
X5.35Y-3.5
X5.35Y-3.6
X5.35Y-3.7
X5.35Y-3.8
X5.35Y-3.9
X5.35Y-4.0
X5.35Y-4.1
X5.35Y-4.2
X5.35Y-4.3
X5.35Y-4.4
X5.35Y-4.5
X5.35Y-4.6
X6.0Y-3.1
X6.0Y-3.2
X6.0Y-3.3
X6.0Y-3.4
X6.0Y-3.5
X6.0Y-3.6
X6.0Y-3.7
X6.0Y-3.8
X6.0Y-3.9
X6.0Y-4.0
X6.0Y-4.1
X6.0Y-4.2
X6.0Y-4.3
X6.0Y-4.4
X6.0Y-4.5
X6.0Y-4.6
X6.0Y-4.7
X6.0Y-4.8
X6.0Y-4.9
X6.0Y-5.0
X6.6Y-3.1
X6.6Y-3.2
X6.6Y-3.3
X6.6Y-3.4
X6.6Y-3.5
X6.6Y-3.6
X6.6Y-3.7
X6.6Y-3.8
X6.6Y-3.9
X6.6Y-4.0
X6.6Y-4.1
X6.6Y-4.2
X6.6Y-4.3
X6.6Y-4.4
X6.6Y-4.5
X6.6Y-4.6
X6.6Y-4.7
X6.6Y-4.8
X6.6Y-4.9
X6.6Y-5.0
X5.05Y-4.75
X5.05Y-4.85
X5.05Y-4.95
X5.05Y-5.05
T0
M30
