%TF.GenerationSoftware,KiCad,Pcbnew,(5.1.6)-1*%
%TF.CreationDate,2021-11-05T01:54:12-02:00*%
%TF.ProjectId,PS2-MSX-F4,5053322d-4d53-4582-9d46-342e6b696361,rev?*%
%TF.SameCoordinates,Original*%
%TF.FileFunction,Soldermask,Bot*%
%TF.FilePolarity,Negative*%
%FSLAX46Y46*%
G04 Gerber Fmt 4.6, Leading zero omitted, Abs format (unit mm)*
G04 Created by KiCad (PCBNEW (5.1.6)-1) date 2021-11-05 01:54:12*
%MOMM*%
%LPD*%
G01*
G04 APERTURE LIST*
%ADD10C,0.050000*%
%ADD11C,1.700000*%
%ADD12R,1.700000X1.700000*%
%ADD13C,1.800000*%
%ADD14R,1.800000X1.800000*%
%ADD15R,0.550000X1.050000*%
%ADD16O,1.800000X1.800000*%
%ADD17C,2.800000*%
%ADD18R,1.150000X1.600000*%
%ADD19O,1.150000X1.600000*%
%ADD20O,1.500000X1.500000*%
%ADD21C,1.500000*%
G04 APERTURE END LIST*
D10*
X128666666Y-74930000D02*
G75*
G03*
X128666666Y-74930000I-1666666J0D01*
G01*
X124500000Y-74930000D02*
X129500000Y-74930000D01*
X127000000Y-72430000D02*
X127000000Y-77430000D01*
X178196666Y-134620000D02*
G75*
G03*
X178196666Y-134620000I-1666666J0D01*
G01*
X174030000Y-134620000D02*
X179030000Y-134620000D01*
X176530000Y-132120000D02*
X176530000Y-137120000D01*
D11*
%TO.C,C4*%
X146010000Y-130810000D03*
D12*
X143510000Y-130810000D03*
%TD*%
D13*
%TO.C,U1*%
X152400000Y-127000000D03*
X167640000Y-127000000D03*
X152400000Y-124460000D03*
X167640000Y-124460000D03*
X152400000Y-121920000D03*
X167640000Y-121920000D03*
X152400000Y-119380000D03*
X167640000Y-119380000D03*
X152400000Y-116840000D03*
X167640000Y-116840000D03*
X152400000Y-114300000D03*
X167640000Y-114300000D03*
X152400000Y-111760000D03*
X167640000Y-111760000D03*
X152400000Y-109220000D03*
X167640000Y-109220000D03*
X152400000Y-106680000D03*
X167640000Y-106680000D03*
X152400000Y-104140000D03*
X167640000Y-104140000D03*
X152400000Y-101600000D03*
X167640000Y-101600000D03*
X152400000Y-99060000D03*
X167640000Y-99060000D03*
X152400000Y-96520000D03*
X167640000Y-96520000D03*
X152400000Y-93980000D03*
X167640000Y-93980000D03*
X152400000Y-91440000D03*
X167640000Y-91440000D03*
X152400000Y-88900000D03*
X167640000Y-88900000D03*
X152400000Y-86360000D03*
X167640000Y-86360000D03*
X152400000Y-83820000D03*
X167640000Y-83820000D03*
X152400000Y-81280000D03*
X167640000Y-81280000D03*
D14*
X152400000Y-78740000D03*
D13*
X167640000Y-78740000D03*
%TD*%
D15*
%TO.C,F1*%
X135282940Y-119258080D03*
X136428480Y-119258080D03*
G36*
G01*
X135131980Y-118598083D02*
X135131980Y-119912997D01*
G75*
G02*
X134864437Y-120180540I-267543J0D01*
G01*
X133874523Y-120180540D01*
G75*
G02*
X133606980Y-119912997I0J267543D01*
G01*
X133606980Y-118598083D01*
G75*
G02*
X133874523Y-118330540I267543J0D01*
G01*
X134864437Y-118330540D01*
G75*
G02*
X135131980Y-118598083I0J-267543D01*
G01*
G37*
G36*
G01*
X138106980Y-118598083D02*
X138106980Y-119912997D01*
G75*
G02*
X137839437Y-120180540I-267543J0D01*
G01*
X136849523Y-120180540D01*
G75*
G02*
X136581980Y-119912997I0J267543D01*
G01*
X136581980Y-118598083D01*
G75*
G02*
X136849523Y-118330540I267543J0D01*
G01*
X137839437Y-118330540D01*
G75*
G02*
X138106980Y-118598083I0J-267543D01*
G01*
G37*
%TD*%
D16*
%TO.C,J1*%
X135890000Y-116840000D03*
X133350000Y-116840000D03*
X135890000Y-114300000D03*
X133350000Y-114300000D03*
X135890000Y-111760000D03*
X133350000Y-111760000D03*
X135890000Y-109220000D03*
X133350000Y-109220000D03*
X135890000Y-106680000D03*
X133350000Y-106680000D03*
X135890000Y-104140000D03*
X133350000Y-104140000D03*
X135890000Y-101600000D03*
X133350000Y-101600000D03*
X135890000Y-99060000D03*
X133350000Y-99060000D03*
X135890000Y-96520000D03*
X133350000Y-96520000D03*
X135890000Y-93980000D03*
X133350000Y-93980000D03*
X135890000Y-91440000D03*
X133350000Y-91440000D03*
X135890000Y-88900000D03*
X133350000Y-88900000D03*
X135890000Y-86360000D03*
X133350000Y-86360000D03*
X135890000Y-83820000D03*
X133350000Y-83820000D03*
X135890000Y-81280000D03*
X133350000Y-81280000D03*
X135890000Y-78740000D03*
X133350000Y-78740000D03*
X135890000Y-76200000D03*
D14*
X133350000Y-76200000D03*
%TD*%
D16*
%TO.C,J2*%
X173990000Y-87630000D03*
X173990000Y-85090000D03*
X173990000Y-82550000D03*
D14*
X173990000Y-80010000D03*
%TD*%
D17*
%TO.C,REF\u002A\u002A*%
X176530000Y-74930000D03*
%TD*%
%TO.C,REF\u002A\u002A*%
X127000000Y-74930000D03*
%TD*%
%TO.C,REF\u002A\u002A*%
X127000000Y-134620000D03*
%TD*%
%TO.C,REF\u002A\u002A*%
X176530000Y-134620000D03*
%TD*%
D11*
%TO.C,C5*%
X149860000Y-132080000D03*
X154940000Y-132080000D03*
%TD*%
%TO.C,C3*%
X134620000Y-132080000D03*
X139700000Y-132080000D03*
%TD*%
%TO.C,C2*%
X137160000Y-121920000D03*
X132080000Y-121920000D03*
%TD*%
%TO.C,C1*%
X144780000Y-119380000D03*
X139700000Y-119380000D03*
%TD*%
D18*
%TO.C,Q1*%
X143510000Y-110490000D03*
D19*
X146050000Y-110490000D03*
X144780000Y-110490000D03*
%TD*%
D18*
%TO.C,Q2*%
X143522700Y-125730000D03*
D19*
X146062700Y-125730000D03*
X144792700Y-125730000D03*
%TD*%
D16*
%TO.C,J3*%
X128270000Y-128270000D03*
X128270000Y-125730000D03*
X128270000Y-123190000D03*
D14*
X128270000Y-120650000D03*
%TD*%
D20*
%TO.C,R18*%
X132080000Y-129540000D03*
D21*
X139700000Y-129540000D03*
%TD*%
D20*
%TO.C,R17*%
X132080000Y-127000000D03*
D21*
X139700000Y-127000000D03*
%TD*%
D20*
%TO.C,R15*%
X139700000Y-121920000D03*
D21*
X147320000Y-121920000D03*
%TD*%
D20*
%TO.C,R14*%
X147320000Y-116840000D03*
D21*
X139700000Y-116840000D03*
%TD*%
D20*
%TO.C,R10*%
X139700000Y-101600000D03*
D21*
X147320000Y-101600000D03*
%TD*%
D20*
%TO.C,R16*%
X132080000Y-124460000D03*
D21*
X139700000Y-124460000D03*
%TD*%
D20*
%TO.C,R11*%
X139700000Y-104140000D03*
D21*
X147320000Y-104140000D03*
%TD*%
D20*
%TO.C,R9*%
X172720000Y-91440000D03*
D21*
X172720000Y-99060000D03*
%TD*%
D20*
%TO.C,R12*%
X139700000Y-106680000D03*
D21*
X147320000Y-106680000D03*
%TD*%
D20*
%TO.C,R13*%
X147320000Y-114300000D03*
D21*
X139700000Y-114300000D03*
%TD*%
D20*
%TO.C,R1*%
X147320000Y-78740000D03*
D21*
X139700000Y-78740000D03*
%TD*%
D20*
%TO.C,R2*%
X147320000Y-81280000D03*
D21*
X139700000Y-81280000D03*
%TD*%
D20*
%TO.C,R3*%
X147320000Y-83820000D03*
D21*
X139700000Y-83820000D03*
%TD*%
D20*
%TO.C,R4*%
X147320000Y-86360000D03*
D21*
X139700000Y-86360000D03*
%TD*%
D20*
%TO.C,R5*%
X147320000Y-88900000D03*
D21*
X139700000Y-88900000D03*
%TD*%
D20*
%TO.C,R6*%
X147320000Y-91440000D03*
D21*
X139700000Y-91440000D03*
%TD*%
D20*
%TO.C,R7*%
X147320000Y-93980000D03*
D21*
X139700000Y-93980000D03*
%TD*%
D20*
%TO.C,R8*%
X147320000Y-96520000D03*
D21*
X139700000Y-96520000D03*
%TD*%
M02*
