%TF.GenerationSoftware,KiCad,Pcbnew,(5.1.6)-1*%
%TF.CreationDate,2021-11-05T07:23:51-03:00*%
%TF.ProjectId,PS2-MSX-F1,5053322d-4d53-4582-9d46-312e6b696361,rev?*%
%TF.SameCoordinates,Original*%
%TF.FileFunction,Soldermask,Bot*%
%TF.FilePolarity,Negative*%
%FSLAX46Y46*%
G04 Gerber Fmt 4.6, Leading zero omitted, Abs format (unit mm)*
G04 Created by KiCad (PCBNEW (5.1.6)-1) date 2021-11-05 07:23:51*
%MOMM*%
%LPD*%
G01*
G04 APERTURE LIST*
%ADD10C,1.700000*%
%ADD11R,1.700000X1.700000*%
%ADD12R,0.550000X1.050000*%
%ADD13O,1.500000X1.500000*%
%ADD14C,1.500000*%
%ADD15O,1.800000X1.800000*%
%ADD16R,1.800000X1.800000*%
%ADD17C,1.800000*%
%ADD18R,1.150000X1.600000*%
%ADD19O,1.150000X1.600000*%
%ADD20C,2.800000*%
G04 APERTURE END LIST*
D10*
%TO.C,C4*%
X146010000Y-130810000D03*
D11*
X143510000Y-130810000D03*
%TD*%
D12*
%TO.C,F1*%
X135399780Y-118968520D03*
X136545320Y-118968520D03*
G36*
G01*
X135248820Y-118308523D02*
X135248820Y-119623437D01*
G75*
G02*
X134981277Y-119890980I-267543J0D01*
G01*
X133991363Y-119890980D01*
G75*
G02*
X133723820Y-119623437I0J267543D01*
G01*
X133723820Y-118308523D01*
G75*
G02*
X133991363Y-118040980I267543J0D01*
G01*
X134981277Y-118040980D01*
G75*
G02*
X135248820Y-118308523I0J-267543D01*
G01*
G37*
G36*
G01*
X138223820Y-118308523D02*
X138223820Y-119623437D01*
G75*
G02*
X137956277Y-119890980I-267543J0D01*
G01*
X136966363Y-119890980D01*
G75*
G02*
X136698820Y-119623437I0J267543D01*
G01*
X136698820Y-118308523D01*
G75*
G02*
X136966363Y-118040980I267543J0D01*
G01*
X137956277Y-118040980D01*
G75*
G02*
X138223820Y-118308523I0J-267543D01*
G01*
G37*
%TD*%
D13*
%TO.C,R15*%
X139700000Y-121920000D03*
D14*
X147320000Y-121920000D03*
%TD*%
D13*
%TO.C,R14*%
X147320000Y-116840000D03*
D14*
X139700000Y-116840000D03*
%TD*%
D15*
%TO.C,J1*%
X135890000Y-116840000D03*
X133350000Y-116840000D03*
X135890000Y-114300000D03*
X133350000Y-114300000D03*
X135890000Y-111760000D03*
X133350000Y-111760000D03*
X135890000Y-109220000D03*
X133350000Y-109220000D03*
X135890000Y-106680000D03*
X133350000Y-106680000D03*
X135890000Y-104140000D03*
X133350000Y-104140000D03*
X135890000Y-101600000D03*
X133350000Y-101600000D03*
X135890000Y-99060000D03*
X133350000Y-99060000D03*
X135890000Y-96520000D03*
X133350000Y-96520000D03*
X135890000Y-93980000D03*
X133350000Y-93980000D03*
X135890000Y-91440000D03*
X133350000Y-91440000D03*
X135890000Y-88900000D03*
X133350000Y-88900000D03*
X135890000Y-86360000D03*
X133350000Y-86360000D03*
X135890000Y-83820000D03*
X133350000Y-83820000D03*
X135890000Y-81280000D03*
X133350000Y-81280000D03*
X135890000Y-78740000D03*
X133350000Y-78740000D03*
X135890000Y-76200000D03*
D16*
X133350000Y-76200000D03*
%TD*%
D17*
%TO.C,U1*%
X152400000Y-127000000D03*
X167640000Y-127000000D03*
X152400000Y-124460000D03*
X167640000Y-124460000D03*
X152400000Y-121920000D03*
X167640000Y-121920000D03*
X152400000Y-119380000D03*
X167640000Y-119380000D03*
X152400000Y-116840000D03*
X167640000Y-116840000D03*
X152400000Y-114300000D03*
X167640000Y-114300000D03*
X152400000Y-111760000D03*
X167640000Y-111760000D03*
X152400000Y-109220000D03*
X167640000Y-109220000D03*
X152400000Y-106680000D03*
X167640000Y-106680000D03*
X152400000Y-104140000D03*
X167640000Y-104140000D03*
X152400000Y-101600000D03*
X167640000Y-101600000D03*
X152400000Y-99060000D03*
X167640000Y-99060000D03*
X152400000Y-96520000D03*
X167640000Y-96520000D03*
X152400000Y-93980000D03*
X167640000Y-93980000D03*
X152400000Y-91440000D03*
X167640000Y-91440000D03*
X152400000Y-88900000D03*
X167640000Y-88900000D03*
X152400000Y-86360000D03*
X167640000Y-86360000D03*
X152400000Y-83820000D03*
X167640000Y-83820000D03*
X152400000Y-81280000D03*
X167640000Y-81280000D03*
D16*
X152400000Y-78740000D03*
D17*
X167640000Y-78740000D03*
%TD*%
D18*
%TO.C,Q2*%
X143510000Y-125730000D03*
D19*
X146050000Y-125730000D03*
X144780000Y-125730000D03*
%TD*%
D18*
%TO.C,Q1*%
X143510000Y-110490000D03*
D19*
X146050000Y-110490000D03*
X144780000Y-110490000D03*
%TD*%
D14*
%TO.C,JP1*%
X149860000Y-96520000D03*
X149860000Y-116840000D03*
%TD*%
D15*
%TO.C,J2*%
X175260000Y-87630000D03*
X175260000Y-85090000D03*
X175260000Y-82550000D03*
D16*
X175260000Y-80010000D03*
%TD*%
D10*
%TO.C,C1*%
X144780000Y-119380000D03*
X139700000Y-119380000D03*
%TD*%
%TO.C,C5*%
X149860000Y-132080000D03*
X154940000Y-132080000D03*
%TD*%
%TO.C,C3*%
X134620000Y-132080000D03*
X139700000Y-132080000D03*
%TD*%
%TO.C,C2*%
X137160000Y-121920000D03*
X132080000Y-121920000D03*
%TD*%
D13*
%TO.C,R8*%
X147320000Y-96520000D03*
D14*
X139700000Y-96520000D03*
%TD*%
D13*
%TO.C,R7*%
X147320000Y-93980000D03*
D14*
X139700000Y-93980000D03*
%TD*%
D13*
%TO.C,R6*%
X147320000Y-91440000D03*
D14*
X139700000Y-91440000D03*
%TD*%
D13*
%TO.C,R5*%
X147320000Y-88900000D03*
D14*
X139700000Y-88900000D03*
%TD*%
D13*
%TO.C,R4*%
X147320000Y-86360000D03*
D14*
X139700000Y-86360000D03*
%TD*%
D13*
%TO.C,R3*%
X147320000Y-83820000D03*
D14*
X139700000Y-83820000D03*
%TD*%
D13*
%TO.C,R2*%
X147320000Y-81280000D03*
D14*
X139700000Y-81280000D03*
%TD*%
D13*
%TO.C,R1*%
X147320000Y-78740000D03*
D14*
X139700000Y-78740000D03*
%TD*%
D13*
%TO.C,R13*%
X147320000Y-114300000D03*
D14*
X139700000Y-114300000D03*
%TD*%
D13*
%TO.C,R12*%
X139700000Y-106680000D03*
D14*
X147320000Y-106680000D03*
%TD*%
D13*
%TO.C,R9*%
X175260000Y-101600000D03*
D14*
X175260000Y-93980000D03*
%TD*%
D13*
%TO.C,R11*%
X139700000Y-104140000D03*
D14*
X147320000Y-104140000D03*
%TD*%
D13*
%TO.C,R16*%
X132080000Y-124460000D03*
D14*
X139700000Y-124460000D03*
%TD*%
D13*
%TO.C,R10*%
X139700000Y-101600000D03*
D14*
X147320000Y-101600000D03*
%TD*%
D13*
%TO.C,R17*%
X132080000Y-127000000D03*
D14*
X139700000Y-127000000D03*
%TD*%
D13*
%TO.C,R18*%
X132080000Y-129540000D03*
D14*
X139700000Y-129540000D03*
%TD*%
D15*
%TO.C,J3*%
X128270000Y-128270000D03*
X128270000Y-125730000D03*
X128270000Y-123190000D03*
D16*
X128270000Y-120650000D03*
%TD*%
D20*
%TO.C,REF\u002A\u002A*%
X127000000Y-134620000D03*
%TD*%
%TO.C,REF\u002A\u002A*%
X176530000Y-134620000D03*
%TD*%
%TO.C,REF\u002A\u002A*%
X176530000Y-74930000D03*
%TD*%
%TO.C,REF\u002A\u002A*%
X127000000Y-74930000D03*
%TD*%
M02*
